<ttFont>
<head>
    <!-- Most of this table will be recalculated by the compiler -->
    <tableVersion value="1.0"/>
    <fontRevision value="1.51"/>
    <checkSumAdjustment value="0x987ac21b"/>
    <magicNumber value="0x5f0f3cf5"/>
    <flags value="00000000 00001000"/>
    <unitsPerEm value="2048"/>
    <created value="Thu Jul 30 14:58:45 1992"/>
    <modified value="Tue Aug 17 10:17:57 1999"/>
    <xMin value="-309"/>
    <yMin value="-539"/>
    <xMax value="2266"/>
    <yMax value="1805"/>
    <macStyle value="00000000 00000000"/>
    <lowestRecPPEM value="9"/>
    <fontDirectionHint value="1"/>
    <indexToLocFormat value="0"/>
    <glyphDataFormat value="0"/>
  </head>
    <TTGlyph name=".notdef" xMin="68" yMin="0" xMax="614" yMax="1365">
      <contour>
        <pt x="68" y="0" on="1"/>
        <pt x="68" y="1365" on="1"/>
        <pt x="614" y="1365" on="1"/>
        <pt x="614" y="0" on="1"/>
      </contour>
      <contour>
        <pt x="546" y="68" on="1"/>
        <pt x="546" y="1297" on="1"/>
        <pt x="136" y="1297" on="1"/>
        <pt x="136" y="68" on="1"/>
      </contour>
    </TTGlyph>
    <TTGlyph name=".notdef#10" xMin="331" yMin="1526" xMax="728" yMax="1772">
      <contour>
        <pt x="728" y="1526" on="1"/>
        <pt x="679" y="1526" on="1"/>
        <pt x="331" y="1772" on="1"/>
        <pt x="531" y="1772" on="1"/>
      </contour>
    </TTGlyph>
    <TTGlyph name=".notdef#11" xMin="346" yMin="1514" xMax="931" yMax="1768">
      <contour>
        <pt x="639" y="1659" on="1"/>
        <pt x="401" y="1514" on="1"/>
        <pt x="346" y="1514" on="1"/>
        <pt x="617" y="1768" on="1"/>
        <pt x="660" y="1768" on="1"/>
        <pt x="931" y="1514" on="1"/>
        <pt x="877" y="1514" on="1"/>
      </contour>
    </TTGlyph>
    <TTGlyph name=".notdef#12" xMin="147" yMin="1552" xMax="590" yMax="1748">
      <contour>
        <pt x="244" y="1748" on="1"/>
        <pt x="285" y="1748" on="0"/>
        <pt x="342" y="1691" on="0"/>
        <pt x="342" y="1650" on="1"/>
        <pt x="342" y="1610" on="0"/>
        <pt x="285" y="1552" on="0"/>
        <pt x="244" y="1552" on="1"/>
        <pt x="204" y="1552" on="0"/>
        <pt x="147" y="1610" on="0"/>
        <pt x="147" y="1650" on="1"/>
        <pt x="147" y="1691" on="0"/>
        <pt x="204" y="1748" on="0"/>
      </contour>
      <contour>
        <pt x="494" y="1747" on="1"/>
        <pt x="534" y="1747" on="0"/>
        <pt x="590" y="1691" on="0"/>
        <pt x="590" y="1651" on="1"/>
        <pt x="590" y="1611" on="0"/>
        <pt x="534" y="1554" on="0"/>
        <pt x="494" y="1554" on="1"/>
        <pt x="454" y="1554" on="0"/>
        <pt x="397" y="1611" on="0"/>
        <pt x="397" y="1651" on="1"/>
        <pt x="397" y="1691" on="0"/>
        <pt x="454" y="1747" on="0"/>
      </contour>
    </TTGlyph>
    <TTGlyph name=".notdef#13" xMin="293" yMin="1526" xMax="689" yMax="1772">
      <contour>
        <pt x="293" y="1526" on="1"/>
        <pt x="490" y="1772" on="1"/>
        <pt x="689" y="1772" on="1"/>
        <pt x="342" y="1526" on="1"/>
      </contour>
    </TTGlyph>
    <TTGlyph name=".notdef#14" xMin="34" yMin="1526" xMax="430" yMax="1772">
      <contour>
        <pt x="430" y="1526" on="1"/>
        <pt x="382" y="1526" on="1"/>
        <pt x="34" y="1772" on="1"/>
        <pt x="234" y="1772" on="1"/>
      </contour>
    </TTGlyph>
    <TTGlyph name=".notdef#15" xMin="76" yMin="1514" xMax="661" yMax="1768">
      <contour>
        <pt x="369" y="1659" on="1"/>
        <pt x="131" y="1514" on="1"/>
        <pt x="76" y="1514" on="1"/>
        <pt x="347" y="1768" on="1"/>
        <pt x="390" y="1768" on="1"/>
        <pt x="661" y="1514" on="1"/>
        <pt x="606" y="1514" on="1"/>
      </contour>
    </TTGlyph>
    <TTGlyph name=".notdef#16" xMin="525" yMin="1549" xMax="1004" yMax="1741">
      <contour>
        <pt x="978" y="1722" on="1"/>
        <pt x="1001" y="1722" on="1"/>
        <pt x="1004" y="1700" on="0"/>
        <pt x="1004" y="1690" on="1"/>
        <pt x="1004" y="1628" on="0"/>
        <pt x="932" y="1549" on="0"/>
        <pt x="876" y="1549" on="1"/>
        <pt x="835" y="1549" on="0"/>
        <pt x="765" y="1574" on="0"/>
        <pt x="689" y="1615" on="1"/>
        <pt x="648" y="1637" on="0"/>
        <pt x="622" y="1637" on="1"/>
        <pt x="557" y="1637" on="0"/>
        <pt x="549" y="1571" on="1"/>
        <pt x="526" y="1571" on="1"/>
        <pt x="525" y="1585" on="0"/>
        <pt x="525" y="1593" on="1"/>
        <pt x="525" y="1661" on="0"/>
        <pt x="591" y="1741" on="0"/>
        <pt x="647" y="1741" on="1"/>
        <pt x="701" y="1741" on="0"/>
        <pt x="763" y="1709" on="1"/>
        <pt x="809" y="1685" on="1"/>
        <pt x="868" y="1654" on="0"/>
        <pt x="908" y="1654" on="1"/>
        <pt x="938" y="1654" on="0"/>
        <pt x="969" y="1683" on="0"/>
      </contour>
    </TTGlyph>
    <TTGlyph name=".notdef#17" xMin="546" yMin="1552" xMax="1116" yMax="1748">
      <contour>
        <pt x="644" y="1748" on="1"/>
        <pt x="685" y="1748" on="0"/>
        <pt x="742" y="1691" on="0"/>
        <pt x="742" y="1650" on="1"/>
        <pt x="742" y="1610" on="0"/>
        <pt x="685" y="1552" on="0"/>
        <pt x="644" y="1552" on="1"/>
        <pt x="604" y="1552" on="0"/>
        <pt x="546" y="1610" on="0"/>
        <pt x="546" y="1650" on="1"/>
        <pt x="546" y="1691" on="0"/>
        <pt x="604" y="1748" on="0"/>
      </contour>
      <contour>
        <pt x="1019" y="1747" on="1"/>
        <pt x="1059" y="1747" on="0"/>
        <pt x="1116" y="1691" on="0"/>
        <pt x="1116" y="1651" on="1"/>
        <pt x="1116" y="1611" on="0"/>
        <pt x="1059" y="1554" on="0"/>
        <pt x="1019" y="1554" on="1"/>
        <pt x="979" y="1554" on="0"/>
        <pt x="922" y="1611" on="0"/>
        <pt x="922" y="1651" on="1"/>
        <pt x="922" y="1691" on="0"/>
        <pt x="979" y="1747" on="0"/>
      </contour>
    </TTGlyph>
    <TTGlyph name=".notdef#18" xMin="755" yMin="1526" xMax="1151" yMax="1772">
      <contour>
        <pt x="755" y="1526" on="1"/>
        <pt x="951" y="1772" on="1"/>
        <pt x="1151" y="1772" on="1"/>
        <pt x="803" y="1526" on="1"/>
      </contour>
    </TTGlyph>
    <TTGlyph name=".notdef#19" xMin="496" yMin="1526" xMax="893" yMax="1772">
      <contour>
        <pt x="893" y="1526" on="1"/>
        <pt x="844" y="1526" on="1"/>
        <pt x="496" y="1772" on="1"/>
        <pt x="696" y="1772" on="1"/>
      </contour>
    </TTGlyph>
    <TTGlyph name=".notdef#20" xMin="538" yMin="1514" xMax="1122" yMax="1768">
      <contour>
        <pt x="830" y="1659" on="1"/>
        <pt x="592" y="1514" on="1"/>
        <pt x="538" y="1514" on="1"/>
        <pt x="808" y="1768" on="1"/>
        <pt x="852" y="1768" on="1"/>
        <pt x="1122" y="1514" on="1"/>
        <pt x="1068" y="1514" on="1"/>
      </contour>
    </TTGlyph>
    <TTGlyph name=".notdef#21" xMin="582" yMin="1549" xMax="1060" yMax="1741">
      <contour>
        <pt x="1035" y="1722" on="1"/>
        <pt x="1058" y="1722" on="1"/>
        <pt x="1060" y="1700" on="0"/>
        <pt x="1060" y="1690" on="1"/>
        <pt x="1060" y="1628" on="0"/>
        <pt x="989" y="1549" on="0"/>
        <pt x="933" y="1549" on="1"/>
        <pt x="892" y="1549" on="0"/>
        <pt x="822" y="1574" on="0"/>
        <pt x="746" y="1615" on="1"/>
        <pt x="705" y="1637" on="0"/>
        <pt x="679" y="1637" on="1"/>
        <pt x="614" y="1637" on="0"/>
        <pt x="606" y="1571" on="1"/>
        <pt x="582" y="1571" on="1"/>
        <pt x="582" y="1593" on="1"/>
        <pt x="582" y="1661" on="0"/>
        <pt x="648" y="1741" on="0"/>
        <pt x="704" y="1741" on="1"/>
        <pt x="758" y="1741" on="0"/>
        <pt x="820" y="1709" on="1"/>
        <pt x="866" y="1685" on="1"/>
        <pt x="925" y="1654" on="0"/>
        <pt x="965" y="1654" on="1"/>
        <pt x="995" y="1654" on="0"/>
        <pt x="1026" y="1683" on="0"/>
      </contour>
    </TTGlyph>
    <TTGlyph name=".notdef#22" xMin="237" yMin="1514" xMax="821" yMax="1768">
      <contour>
        <pt x="529" y="1622" on="1"/>
        <pt x="767" y="1768" on="1"/>
        <pt x="821" y="1768" on="1"/>
        <pt x="551" y="1514" on="1"/>
        <pt x="507" y="1514" on="1"/>
        <pt x="237" y="1768" on="1"/>
        <pt x="291" y="1768" on="1"/>
      </contour>
    </TTGlyph>
    <TTGlyph name=".notdef#23" xMin="527" yMin="1552" xMax="1096" yMax="1748">
      <contour>
        <pt x="625" y="1748" on="1"/>
        <pt x="665" y="1748" on="0"/>
        <pt x="723" y="1691" on="0"/>
        <pt x="723" y="1650" on="1"/>
        <pt x="723" y="1610" on="0"/>
        <pt x="665" y="1552" on="0"/>
        <pt x="625" y="1552" on="1"/>
        <pt x="584" y="1552" on="0"/>
        <pt x="527" y="1610" on="0"/>
        <pt x="527" y="1650" on="1"/>
        <pt x="527" y="1691" on="0"/>
        <pt x="584" y="1748" on="0"/>
      </contour>
      <contour>
        <pt x="1000" y="1747" on="1"/>
        <pt x="1040" y="1747" on="0"/>
        <pt x="1096" y="1691" on="0"/>
        <pt x="1096" y="1651" on="1"/>
        <pt x="1096" y="1611" on="0"/>
        <pt x="1040" y="1554" on="0"/>
        <pt x="1000" y="1554" on="1"/>
        <pt x="960" y="1554" on="0"/>
        <pt x="903" y="1611" on="0"/>
        <pt x="903" y="1651" on="1"/>
        <pt x="903" y="1691" on="0"/>
        <pt x="960" y="1747" on="0"/>
      </contour>
    </TTGlyph>
    <TTGlyph name=".notdef#24" xMin="737" yMin="1526" xMax="1134" yMax="1772">
      <contour>
        <pt x="737" y="1526" on="1"/>
        <pt x="934" y="1772" on="1"/>
        <pt x="1134" y="1772" on="1"/>
        <pt x="786" y="1526" on="1"/>
      </contour>
    </TTGlyph>
    <TTGlyph name=".notdef#25" xMin="477" yMin="1526" xMax="873" yMax="1772">
      <contour>
        <pt x="873" y="1526" on="1"/>
        <pt x="825" y="1526" on="1"/>
        <pt x="477" y="1772" on="1"/>
        <pt x="677" y="1772" on="1"/>
      </contour>
    </TTGlyph>
    <TTGlyph name=".notdef#26" xMin="533" yMin="1514" xMax="1118" yMax="1768">
      <contour>
        <pt x="825" y="1659" on="1"/>
        <pt x="587" y="1514" on="1"/>
        <pt x="533" y="1514" on="1"/>
        <pt x="804" y="1768" on="1"/>
        <pt x="847" y="1768" on="1"/>
        <pt x="1118" y="1514" on="1"/>
        <pt x="1063" y="1514" on="1"/>
      </contour>
    </TTGlyph>
    <TTGlyph name=".notdef#27" xMin="442" yMin="1552" xMax="1011" yMax="1748">
      <contour>
        <pt x="539" y="1748" on="1"/>
        <pt x="580" y="1748" on="0"/>
        <pt x="637" y="1691" on="0"/>
        <pt x="637" y="1650" on="1"/>
        <pt x="637" y="1610" on="0"/>
        <pt x="580" y="1552" on="0"/>
        <pt x="539" y="1552" on="1"/>
        <pt x="499" y="1552" on="0"/>
        <pt x="442" y="1610" on="0"/>
        <pt x="442" y="1650" on="1"/>
        <pt x="442" y="1691" on="0"/>
        <pt x="499" y="1748" on="0"/>
      </contour>
      <contour>
        <pt x="914" y="1747" on="1"/>
        <pt x="954" y="1747" on="0"/>
        <pt x="1011" y="1691" on="0"/>
        <pt x="1011" y="1651" on="1"/>
        <pt x="1011" y="1611" on="0"/>
        <pt x="954" y="1554" on="0"/>
        <pt x="914" y="1554" on="1"/>
        <pt x="874" y="1554" on="0"/>
        <pt x="818" y="1611" on="0"/>
        <pt x="818" y="1651" on="1"/>
        <pt x="818" y="1691" on="0"/>
        <pt x="874" y="1747" on="0"/>
      </contour>
    </TTGlyph>
    <TTGlyph name=".notdef#28" xMin="37" yMin="1063" xMax="459" yMax="1240">
      <contour>
        <pt x="126" y="1240" on="1"/>
        <pt x="162" y="1240" on="0"/>
        <pt x="215" y="1188" on="0"/>
        <pt x="215" y="1151" on="1"/>
        <pt x="215" y="1115" on="0"/>
        <pt x="162" y="1063" on="0"/>
        <pt x="126" y="1063" on="1"/>
        <pt x="89" y="1063" on="0"/>
        <pt x="37" y="1114" on="0"/>
        <pt x="37" y="1151" on="1"/>
        <pt x="37" y="1188" on="0"/>
        <pt x="89" y="1240" on="0"/>
      </contour>
      <contour>
        <pt x="371" y="1240" on="1"/>
        <pt x="407" y="1240" on="0"/>
        <pt x="459" y="1188" on="0"/>
        <pt x="459" y="1152" on="1"/>
        <pt x="459" y="1115" on="0"/>
        <pt x="407" y="1064" on="0"/>
        <pt x="371" y="1064" on="1"/>
        <pt x="335" y="1064" on="0"/>
        <pt x="283" y="1115" on="0"/>
        <pt x="283" y="1152" on="1"/>
        <pt x="283" y="1188" on="0"/>
        <pt x="335" y="1240" on="0"/>
      </contour>
    </TTGlyph>
    <TTGlyph name=".notdef#3" xMin="398" yMin="1552" xMax="968" yMax="1748">
      <contour>
        <pt x="496" y="1748" on="1"/>
        <pt x="537" y="1748" on="0"/>
        <pt x="594" y="1691" on="0"/>
        <pt x="594" y="1650" on="1"/>
        <pt x="594" y="1610" on="0"/>
        <pt x="537" y="1552" on="0"/>
        <pt x="496" y="1552" on="1"/>
        <pt x="456" y="1552" on="0"/>
        <pt x="398" y="1610" on="0"/>
        <pt x="398" y="1650" on="1"/>
        <pt x="398" y="1691" on="0"/>
        <pt x="456" y="1748" on="0"/>
      </contour>
      <contour>
        <pt x="871" y="1747" on="1"/>
        <pt x="911" y="1747" on="0"/>
        <pt x="968" y="1691" on="0"/>
        <pt x="968" y="1651" on="1"/>
        <pt x="968" y="1611" on="0"/>
        <pt x="911" y="1554" on="0"/>
        <pt x="871" y="1554" on="1"/>
        <pt x="831" y="1554" on="0"/>
        <pt x="774" y="1611" on="0"/>
        <pt x="774" y="1651" on="1"/>
        <pt x="774" y="1691" on="0"/>
        <pt x="831" y="1747" on="0"/>
      </contour>
    </TTGlyph>
    <TTGlyph name=".notdef#4" xMin="662" yMin="1526" xMax="1059" yMax="1772">
      <contour>
        <pt x="662" y="1526" on="1"/>
        <pt x="859" y="1772" on="1"/>
        <pt x="1059" y="1772" on="1"/>
        <pt x="711" y="1526" on="1"/>
      </contour>
    </TTGlyph>
    <TTGlyph name=".notdef#5" xMin="334" yMin="1526" xMax="730" yMax="1772">
      <contour>
        <pt x="730" y="1526" on="1"/>
        <pt x="681" y="1526" on="1"/>
        <pt x="334" y="1772" on="1"/>
        <pt x="533" y="1772" on="1"/>
      </contour>
    </TTGlyph>
    <TTGlyph name=".notdef#6" xMin="397" yMin="1514" xMax="982" yMax="1768">
      <contour>
        <pt x="690" y="1659" on="1"/>
        <pt x="452" y="1514" on="1"/>
        <pt x="397" y="1514" on="1"/>
        <pt x="668" y="1768" on="1"/>
        <pt x="711" y="1768" on="1"/>
        <pt x="982" y="1514" on="1"/>
        <pt x="928" y="1514" on="1"/>
      </contour>
    </TTGlyph>
    <TTGlyph name=".notdef#7" xMin="448" yMin="1549" xMax="927" yMax="1741">
      <contour>
        <pt x="901" y="1722" on="1"/>
        <pt x="924" y="1722" on="1"/>
        <pt x="927" y="1700" on="0"/>
        <pt x="927" y="1690" on="1"/>
        <pt x="927" y="1628" on="0"/>
        <pt x="856" y="1549" on="0"/>
        <pt x="799" y="1549" on="1"/>
        <pt x="759" y="1549" on="0"/>
        <pt x="689" y="1574" on="0"/>
        <pt x="612" y="1615" on="1"/>
        <pt x="572" y="1637" on="0"/>
        <pt x="545" y="1637" on="1"/>
        <pt x="480" y="1637" on="0"/>
        <pt x="472" y="1571" on="1"/>
        <pt x="449" y="1571" on="1"/>
        <pt x="448" y="1585" on="0"/>
        <pt x="448" y="1593" on="1"/>
        <pt x="448" y="1661" on="0"/>
        <pt x="514" y="1741" on="0"/>
        <pt x="571" y="1741" on="1"/>
        <pt x="625" y="1741" on="0"/>
        <pt x="687" y="1709" on="1"/>
        <pt x="732" y="1685" on="1"/>
        <pt x="792" y="1654" on="0"/>
        <pt x="831" y="1654" on="1"/>
        <pt x="862" y="1654" on="0"/>
        <pt x="892" y="1683" on="0"/>
      </contour>
    </TTGlyph>
    <TTGlyph name=".notdef#8" xMin="353" yMin="1552" xMax="923" yMax="1748">
      <contour>
        <pt x="451" y="1748" on="1"/>
        <pt x="492" y="1748" on="0"/>
        <pt x="549" y="1691" on="0"/>
        <pt x="549" y="1650" on="1"/>
        <pt x="549" y="1610" on="0"/>
        <pt x="492" y="1552" on="0"/>
        <pt x="451" y="1552" on="1"/>
        <pt x="411" y="1552" on="0"/>
        <pt x="353" y="1610" on="0"/>
        <pt x="353" y="1650" on="1"/>
        <pt x="353" y="1691" on="0"/>
        <pt x="410" y="1748" on="0"/>
      </contour>
      <contour>
        <pt x="826" y="1747" on="1"/>
        <pt x="866" y="1747" on="0"/>
        <pt x="923" y="1691" on="0"/>
        <pt x="923" y="1651" on="1"/>
        <pt x="923" y="1611" on="0"/>
        <pt x="866" y="1554" on="0"/>
        <pt x="826" y="1554" on="1"/>
        <pt x="786" y="1554" on="0"/>
        <pt x="729" y="1611" on="0"/>
        <pt x="729" y="1651" on="1"/>
        <pt x="729" y="1691" on="0"/>
        <pt x="786" y="1747" on="0"/>
      </contour>
    </TTGlyph>
    <TTGlyph name=".notdef#9" xMin="590" yMin="1526" xMax="986" yMax="1772">
      <contour>
        <pt x="590" y="1526" on="1"/>
        <pt x="786" y="1772" on="1"/>
        <pt x="986" y="1772" on="1"/>
        <pt x="638" y="1526" on="1"/>
      </contour>
    </TTGlyph>
    <TTGlyph name="A" xMin="-20" yMin="0" xMax="1441" yMax="1365">
      <contour>
        <pt x="1441" y="0" on="1"/>
        <pt x="784" y="0" on="1"/>
        <pt x="784" y="23" on="1"/>
        <pt x="873" y="31" on="0"/>
        <pt x="908" y="53" on="1"/>
        <pt x="970" y="92" on="0"/>
        <pt x="970" y="161" on="1"/>
        <pt x="970" y="202" on="0"/>
        <pt x="942" y="271" on="1"/>
        <pt x="925" y="313" on="1"/>
        <pt x="829" y="549" on="1"/>
        <pt x="389" y="549" on="1"/>
        <pt x="337" y="411" on="1"/>
        <pt x="312" y="349" on="1"/>
        <pt x="267" y="239" on="0"/>
        <pt x="267" y="176" on="1"/>
        <pt x="267" y="139" on="0"/>
        <pt x="300" y="75" on="0"/>
        <pt x="328" y="55" on="1"/>
        <pt x="367" y="28" on="0"/>
        <pt x="428" y="23" on="1"/>
        <pt x="428" y="0" on="1"/>
        <pt x="-20" y="0" on="1"/>
        <pt x="-20" y="23" on="1"/>
        <pt x="33" y="26" on="0"/>
        <pt x="113" y="72" on="0"/>
        <pt x="151" y="123" on="1"/>
        <pt x="183" y="164" on="0"/>
        <pt x="244" y="293" on="0"/>
        <pt x="294" y="422" on="1"/>
        <pt x="660" y="1365" on="1"/>
        <pt x="717" y="1365" on="1"/>
        <pt x="1152" y="314" on="1"/>
        <pt x="1201" y="195" on="0"/>
        <pt x="1259" y="93" on="0"/>
        <pt x="1293" y="67" on="1"/>
        <pt x="1317" y="49" on="0"/>
        <pt x="1379" y="30" on="0"/>
        <pt x="1441" y="23" on="1"/>
      </contour>
      <contour>
        <pt x="813" y="590" on="1"/>
        <pt x="603" y="1108" on="1"/>
        <pt x="405" y="590" on="1"/>
      </contour>
    </TTGlyph>
    <TTGlyph name="AE" xMin="-7" yMin="0" xMax="2031" yMax="1365">
      <contour>
        <pt x="825" y="23" on="1"/>
        <pt x="882" y="26" on="0"/>
        <pt x="954" y="52" on="0"/>
        <pt x="981" y="81" on="1"/>
        <pt x="1012" y="113" on="0"/>
        <pt x="1035" y="210" on="0"/>
        <pt x="1035" y="309" on="1"/>
        <pt x="1035" y="542" on="1"/>
        <pt x="521" y="542" on="1"/>
        <pt x="357" y="308" on="1"/>
        <pt x="272" y="187" on="0"/>
        <pt x="272" y="136" on="1"/>
        <pt x="272" y="84" on="0"/>
        <pt x="325" y="53" on="1"/>
        <pt x="365" y="30" on="0"/>
        <pt x="439" y="23" on="1"/>
        <pt x="439" y="0" on="1"/>
        <pt x="-7" y="0" on="1"/>
        <pt x="-7" y="23" on="1"/>
        <pt x="78" y="50" on="0"/>
        <pt x="184" y="145" on="0"/>
        <pt x="285" y="289" on="1"/>
        <pt x="927" y="1198" on="1"/>
        <pt x="969" y="1257" on="0"/>
        <pt x="969" y="1280" on="1"/>
        <pt x="969" y="1313" on="0"/>
        <pt x="927" y="1329" on="1"/>
        <pt x="901" y="1339" on="0"/>
        <pt x="840" y="1341" on="1"/>
        <pt x="825" y="1342" on="1"/>
        <pt x="825" y="1365" on="1"/>
        <pt x="1900" y="1365" on="1"/>
        <pt x="1917" y="1035" on="1"/>
        <pt x="1894" y="1033" on="1"/>
        <pt x="1877" y="1124" on="0"/>
        <pt x="1818" y="1232" on="0"/>
        <pt x="1764" y="1271" on="1"/>
        <pt x="1717" y="1305" on="0"/>
        <pt x="1586" y="1334" on="0"/>
        <pt x="1483" y="1334" on="1"/>
        <pt x="1254" y="1334" on="1"/>
        <pt x="1254" y="734" on="1"/>
        <pt x="1314" y="734" on="1"/>
        <pt x="1405" y="734" on="0"/>
        <pt x="1497" y="758" on="0"/>
        <pt x="1526" y="789" on="1"/>
        <pt x="1554" y="818" on="0"/>
        <pt x="1581" y="898" on="0"/>
        <pt x="1590" y="975" on="1"/>
        <pt x="1613" y="974" on="1"/>
        <pt x="1605" y="437" on="1"/>
        <pt x="1582" y="437" on="1"/>
        <pt x="1565" y="580" on="0"/>
        <pt x="1508" y="641" on="1"/>
        <pt x="1479" y="673" on="0"/>
        <pt x="1384" y="703" on="0"/>
        <pt x="1311" y="703" on="1"/>
        <pt x="1254" y="703" on="1"/>
        <pt x="1254" y="474" on="1"/>
        <pt x="1254" y="421" on="0"/>
        <pt x="1257" y="353" on="1"/>
        <pt x="1261" y="282" on="0"/>
        <pt x="1274" y="201" on="0"/>
        <pt x="1287" y="170" on="1"/>
        <pt x="1317" y="100" on="0"/>
        <pt x="1460" y="31" on="0"/>
        <pt x="1577" y="31" on="1"/>
        <pt x="1695" y="31" on="0"/>
        <pt x="1857" y="92" on="0"/>
        <pt x="1908" y="156" on="1"/>
        <pt x="1944" y="199" on="0"/>
        <pt x="1989" y="309" on="0"/>
        <pt x="2008" y="399" on="1"/>
        <pt x="2031" y="396" on="1"/>
        <pt x="2018" y="0" on="1"/>
        <pt x="825" y="0" on="1"/>
      </contour>
      <contour>
        <pt x="1035" y="583" on="1"/>
        <pt x="1035" y="1271" on="1"/>
        <pt x="547" y="583" on="1"/>
      </contour>
    </TTGlyph>
    <TTGlyph name="Aacute" xMin="-20" yMin="0" xMax="1441" yMax="1772">
      <component glyphName="A" x="0" y="0" flags="0x214"/>
      <component glyphName=".notdef#4" x="0" y="0" flags="0x14"/>
    </TTGlyph>
    <TTGlyph name="Acircumflex" xMin="-20" yMin="0" xMax="1441" yMax="1768">
      <component glyphName="A" x="0" y="0" flags="0x214"/>
      <component glyphName=".notdef#6" x="0" y="0" flags="0x14"/>
    </TTGlyph>
    <TTGlyph name="Adieresis" xMin="-20" yMin="0" xMax="1441" yMax="1748">
      <component glyphName="A" x="0" y="0" flags="0x214"/>
      <component glyphName=".notdef#3" x="0" y="0" flags="0x14"/>
    </TTGlyph>
    <TTGlyph name="Agrave" xMin="-20" yMin="0" xMax="1441" yMax="1772">
      <component glyphName="A" x="0" y="0" flags="0x214"/>
      <component glyphName=".notdef#5" x="0" y="0" flags="0x14"/>
    </TTGlyph>
    <TTGlyph name="Aring" xMin="-20" yMin="0" xMax="1441" yMax="1805">
      <component glyphName="A" x="0" y="0" flags="0x214"/>
      <component glyphName="ring" x="171" y="492" flags="0x14"/>
    </TTGlyph>
    <TTGlyph name="Atilde" xMin="-20" yMin="0" xMax="1441" yMax="1741">
      <component glyphName="A" x="0" y="0" flags="0x214"/>
      <component glyphName=".notdef#7" x="0" y="0" flags="0x14"/>
    </TTGlyph>
    <TTGlyph name="B" xMin="49" yMin="0" xMax="1288" yMax="1365">
      <contour>
        <pt x="49" y="0" on="1"/>
        <pt x="49" y="23" on="1"/>
        <pt x="107" y="26" on="0"/>
        <pt x="178" y="53" on="0"/>
        <pt x="205" y="81" on="1"/>
        <pt x="237" y="113" on="0"/>
        <pt x="259" y="211" on="0"/>
        <pt x="259" y="314" on="1"/>
        <pt x="259" y="1051" on="1"/>
        <pt x="259" y="1154" on="0"/>
        <pt x="237" y="1252" on="0"/>
        <pt x="205" y="1284" on="1"/>
        <pt x="178" y="1313" on="0"/>
        <pt x="106" y="1339" on="0"/>
        <pt x="49" y="1342" on="1"/>
        <pt x="49" y="1365" on="1"/>
        <pt x="706" y="1365" on="1"/>
        <pt x="806" y="1365" on="0"/>
        <pt x="837" y="1363" on="1"/>
        <pt x="951" y="1354" on="0"/>
        <pt x="1026" y="1309" on="1"/>
        <pt x="1091" y="1269" on="0"/>
        <pt x="1162" y="1139" on="0"/>
        <pt x="1162" y="1058" on="1"/>
        <pt x="1162" y="927" on="0"/>
        <pt x="1081" y="843" on="1"/>
        <pt x="1052" y="812" on="0"/>
        <pt x="978" y="771" on="0"/>
        <pt x="908" y="746" on="1"/>
        <pt x="1004" y="730" on="0"/>
        <pt x="1110" y="692" on="0"/>
        <pt x="1153" y="658" on="1"/>
        <pt x="1217" y="606" on="0"/>
        <pt x="1288" y="451" on="0"/>
        <pt x="1288" y="361" on="1"/>
        <pt x="1288" y="270" on="0"/>
        <pt x="1215" y="119" on="0"/>
        <pt x="1150" y="73" on="1"/>
        <pt x="1091" y="32" on="0"/>
        <pt x="928" y="0" on="0"/>
        <pt x="780" y="0" on="1"/>
      </contour>
      <contour>
        <pt x="478" y="1334" on="1"/>
        <pt x="478" y="740" on="1"/>
        <pt x="559" y="740" on="1"/>
        <pt x="616" y="740" on="0"/>
        <pt x="677" y="748" on="1"/>
        <pt x="730" y="756" on="0"/>
        <pt x="795" y="778" on="0"/>
        <pt x="822" y="797" on="1"/>
        <pt x="873" y="835" on="0"/>
        <pt x="928" y="954" on="0"/>
        <pt x="928" y="1026" on="1"/>
        <pt x="928" y="1102" on="0"/>
        <pt x="871" y="1239" on="0"/>
        <pt x="824" y="1277" on="1"/>
        <pt x="783" y="1310" on="0"/>
        <pt x="678" y="1334" on="0"/>
        <pt x="571" y="1334" on="1"/>
      </contour>
      <contour>
        <pt x="478" y="709" on="1"/>
        <pt x="478" y="297" on="1"/>
        <pt x="478" y="222" on="0"/>
        <pt x="499" y="130" on="0"/>
        <pt x="523" y="98" on="1"/>
        <pt x="574" y="31" on="0"/>
        <pt x="698" y="31" on="1"/>
        <pt x="859" y="31" on="0"/>
        <pt x="1046" y="207" on="0"/>
        <pt x="1046" y="359" on="1"/>
        <pt x="1046" y="446" on="0"/>
        <pt x="988" y="595" on="0"/>
        <pt x="939" y="635" on="1"/>
        <pt x="849" y="709" on="0"/>
        <pt x="657" y="709" on="1"/>
      </contour>
    </TTGlyph>
    <TTGlyph name="C" xMin="96" yMin="-34" xMax="1310" yMax="1400">
      <contour>
        <pt x="1279" y="1372" on="1"/>
        <pt x="1291" y="925" on="1"/>
        <pt x="1268" y="925" on="1"/>
        <pt x="1257" y="954" on="0"/>
        <pt x="1251" y="969" on="1"/>
        <pt x="1216" y="1065" on="0"/>
        <pt x="1194" y="1112" on="1"/>
        <pt x="1155" y="1196" on="0"/>
        <pt x="1081" y="1266" on="1"/>
        <pt x="1025" y="1319" on="0"/>
        <pt x="905" y="1367" on="0"/>
        <pt x="830" y="1367" on="1"/>
        <pt x="717" y="1367" on="0"/>
        <pt x="634" y="1318" on="1"/>
        <pt x="561" y="1275" on="0"/>
        <pt x="435" y="1114" on="0"/>
        <pt x="395" y="1011" on="1"/>
        <pt x="338" y="866" on="0"/>
        <pt x="338" y="681" on="1"/>
        <pt x="338" y="524" on="0"/>
        <pt x="416" y="272" on="0"/>
        <pt x="491" y="187" on="1"/>
        <pt x="629" y="29" on="0"/>
        <pt x="857" y="29" on="1"/>
        <pt x="971" y="29" on="0"/>
        <pt x="1153" y="108" on="0"/>
        <pt x="1203" y="180" on="1"/>
        <pt x="1261" y="263" on="0"/>
        <pt x="1287" y="404" on="1"/>
        <pt x="1310" y="400" on="1"/>
        <pt x="1291" y="242" on="0"/>
        <pt x="1224" y="149" on="1"/>
        <pt x="1160" y="60" on="0"/>
        <pt x="935" y="-34" on="0"/>
        <pt x="787" y="-34" on="1"/>
        <pt x="649" y="-34" on="0"/>
        <pt x="523" y="7" on="1"/>
        <pt x="322" y="73" on="0"/>
        <pt x="96" y="418" on="0"/>
        <pt x="96" y="657" on="1"/>
        <pt x="96" y="840" on="0"/>
        <pt x="228" y="1149" on="0"/>
        <pt x="346" y="1243" on="1"/>
        <pt x="437" y="1315" on="0"/>
        <pt x="690" y="1400" on="0"/>
        <pt x="817" y="1400" on="1"/>
        <pt x="938" y="1400" on="0"/>
        <pt x="1073" y="1354" on="1"/>
        <pt x="1155" y="1327" on="1"/>
        <pt x="1179" y="1318" on="0"/>
        <pt x="1197" y="1318" on="1"/>
        <pt x="1222" y="1318" on="0"/>
        <pt x="1238" y="1339" on="1"/>
        <pt x="1245" y="1349" on="0"/>
        <pt x="1255" y="1372" on="1"/>
      </contour>
    </TTGlyph>
    <TTGlyph name="Ccedilla" xMin="96" yMin="-440" xMax="1310" yMax="1400">
      <contour>
        <pt x="759" y="-34" on="1"/>
        <pt x="722" y="-137" on="1"/>
        <pt x="814" y="-153" on="0"/>
        <pt x="902" y="-226" on="0"/>
        <pt x="902" y="-285" on="1"/>
        <pt x="902" y="-350" on="0"/>
        <pt x="784" y="-440" on="0"/>
        <pt x="698" y="-440" on="1"/>
        <pt x="607" y="-440" on="0"/>
        <pt x="513" y="-387" on="1"/>
        <pt x="527" y="-364" on="1"/>
        <pt x="605" y="-393" on="0"/>
        <pt x="661" y="-393" on="1"/>
        <pt x="708" y="-393" on="0"/>
        <pt x="773" y="-329" on="0"/>
        <pt x="773" y="-283" on="1"/>
        <pt x="773" y="-245" on="0"/>
        <pt x="729" y="-196" on="0"/>
        <pt x="673" y="-171" on="1"/>
        <pt x="666" y="-168" on="0"/>
        <pt x="653" y="-162" on="1"/>
        <pt x="700" y="-30" on="1"/>
        <pt x="501" y="-8" on="0"/>
        <pt x="363" y="87" on="1"/>
        <pt x="234" y="176" on="0"/>
        <pt x="96" y="472" on="0"/>
        <pt x="96" y="657" on="1"/>
        <pt x="96" y="840" on="0"/>
        <pt x="228" y="1149" on="0"/>
        <pt x="346" y="1243" on="1"/>
        <pt x="437" y="1315" on="0"/>
        <pt x="690" y="1400" on="0"/>
        <pt x="817" y="1400" on="1"/>
        <pt x="938" y="1400" on="0"/>
        <pt x="1073" y="1354" on="1"/>
        <pt x="1155" y="1327" on="1"/>
        <pt x="1179" y="1318" on="0"/>
        <pt x="1197" y="1318" on="1"/>
        <pt x="1222" y="1318" on="0"/>
        <pt x="1238" y="1339" on="1"/>
        <pt x="1245" y="1349" on="0"/>
        <pt x="1255" y="1372" on="1"/>
        <pt x="1279" y="1372" on="1"/>
        <pt x="1291" y="925" on="1"/>
        <pt x="1268" y="925" on="1"/>
        <pt x="1257" y="954" on="0"/>
        <pt x="1251" y="969" on="1"/>
        <pt x="1216" y="1065" on="0"/>
        <pt x="1194" y="1112" on="1"/>
        <pt x="1155" y="1196" on="0"/>
        <pt x="1081" y="1266" on="1"/>
        <pt x="1025" y="1319" on="0"/>
        <pt x="905" y="1367" on="0"/>
        <pt x="830" y="1367" on="1"/>
        <pt x="717" y="1367" on="0"/>
        <pt x="634" y="1318" on="1"/>
        <pt x="561" y="1275" on="0"/>
        <pt x="435" y="1114" on="0"/>
        <pt x="395" y="1011" on="1"/>
        <pt x="338" y="866" on="0"/>
        <pt x="338" y="681" on="1"/>
        <pt x="338" y="524" on="0"/>
        <pt x="416" y="272" on="0"/>
        <pt x="491" y="187" on="1"/>
        <pt x="629" y="29" on="0"/>
        <pt x="857" y="29" on="1"/>
        <pt x="971" y="29" on="0"/>
        <pt x="1153" y="108" on="0"/>
        <pt x="1203" y="180" on="1"/>
        <pt x="1261" y="263" on="0"/>
        <pt x="1287" y="404" on="1"/>
        <pt x="1310" y="400" on="1"/>
        <pt x="1291" y="242" on="0"/>
        <pt x="1224" y="149" on="1"/>
        <pt x="1160" y="61" on="0"/>
        <pt x="937" y="-34" on="0"/>
        <pt x="793" y="-34" on="1"/>
      </contour>
    </TTGlyph>
    <TTGlyph name="D" xMin="49" yMin="0" xMax="1486" yMax="1365">
      <contour>
        <pt x="49" y="23" on="1"/>
        <pt x="107" y="26" on="0"/>
        <pt x="177" y="52" on="0"/>
        <pt x="205" y="81" on="1"/>
        <pt x="236" y="113" on="0"/>
        <pt x="259" y="212" on="0"/>
        <pt x="259" y="314" on="1"/>
        <pt x="259" y="1051" on="1"/>
        <pt x="259" y="1161" on="0"/>
        <pt x="232" y="1263" on="0"/>
        <pt x="193" y="1296" on="1"/>
        <pt x="144" y="1337" on="0"/>
        <pt x="49" y="1342" on="1"/>
        <pt x="49" y="1365" on="1"/>
        <pt x="599" y="1365" on="1"/>
        <pt x="782" y="1365" on="0"/>
        <pt x="832" y="1361" on="1"/>
        <pt x="1043" y="1345" on="0"/>
        <pt x="1190" y="1241" on="1"/>
        <pt x="1330" y="1142" on="0"/>
        <pt x="1486" y="821" on="0"/>
        <pt x="1486" y="632" on="1"/>
        <pt x="1486" y="494" on="0"/>
        <pt x="1397" y="249" on="0"/>
        <pt x="1318" y="168" on="1"/>
        <pt x="1207" y="54" on="0"/>
        <pt x="1041" y="23" on="1"/>
        <pt x="917" y="0" on="0"/>
        <pt x="788" y="0" on="1"/>
        <pt x="49" y="0" on="1"/>
      </contour>
      <contour>
        <pt x="478" y="1334" on="1"/>
        <pt x="478" y="340" on="1"/>
        <pt x="478" y="242" on="0"/>
        <pt x="500" y="140" on="0"/>
        <pt x="530" y="104" on="1"/>
        <pt x="594" y="26" on="0"/>
        <pt x="738" y="26" on="1"/>
        <pt x="861" y="26" on="0"/>
        <pt x="1036" y="107" on="0"/>
        <pt x="1105" y="198" on="1"/>
        <pt x="1173" y="286" on="0"/>
        <pt x="1244" y="513" on="0"/>
        <pt x="1244" y="641" on="1"/>
        <pt x="1244" y="783" on="0"/>
        <pt x="1158" y="1039" on="0"/>
        <pt x="1078" y="1135" on="1"/>
        <pt x="967" y="1268" on="0"/>
        <pt x="813" y="1311" on="1"/>
        <pt x="729" y="1334" on="0"/>
        <pt x="599" y="1334" on="1"/>
      </contour>
    </TTGlyph>
    <TTGlyph name="Delta" xMin="13" yMin="0" xMax="1353" yMax="1398">
      <contour>
        <pt x="723" y="1398" on="1"/>
        <pt x="1353" y="0" on="1"/>
        <pt x="13" y="0" on="1"/>
        <pt x="641" y="1398" on="1"/>
      </contour>
      <contour>
        <pt x="634" y="1205" on="1"/>
        <pt x="216" y="273" on="1"/>
        <pt x="186" y="207" on="0"/>
        <pt x="186" y="174" on="1"/>
        <pt x="186" y="144" on="0"/>
        <pt x="205" y="126" on="1"/>
        <pt x="222" y="108" on="0"/>
        <pt x="281" y="108" on="1"/>
        <pt x="1116" y="108" on="1"/>
      </contour>
    </TTGlyph>
    <TTGlyph name="E" xMin="49" yMin="0" xMax="1255" yMax="1365">
      <contour>
        <pt x="1124" y="1365" on="1"/>
        <pt x="1141" y="1035" on="1"/>
        <pt x="1118" y="1034" on="1"/>
        <pt x="1105" y="1118" on="0"/>
        <pt x="1045" y="1228" on="0"/>
        <pt x="988" y="1270" on="1"/>
        <pt x="941" y="1305" on="0"/>
        <pt x="813" y="1334" on="0"/>
        <pt x="707" y="1334" on="1"/>
        <pt x="478" y="1334" on="1"/>
        <pt x="478" y="734" on="1"/>
        <pt x="538" y="734" on="1"/>
        <pt x="629" y="734" on="0"/>
        <pt x="721" y="758" on="0"/>
        <pt x="750" y="789" on="1"/>
        <pt x="778" y="818" on="0"/>
        <pt x="805" y="897" on="0"/>
        <pt x="814" y="974" on="1"/>
        <pt x="837" y="973" on="1"/>
        <pt x="833" y="437" on="1"/>
        <pt x="810" y="437" on="1"/>
        <pt x="801" y="514" on="0"/>
        <pt x="766" y="608" on="0"/>
        <pt x="735" y="641" on="1"/>
        <pt x="705" y="673" on="0"/>
        <pt x="609" y="703" on="0"/>
        <pt x="535" y="703" on="1"/>
        <pt x="478" y="703" on="1"/>
        <pt x="478" y="474" on="1"/>
        <pt x="478" y="337" on="0"/>
        <pt x="492" y="212" on="0"/>
        <pt x="512" y="170" on="1"/>
        <pt x="546" y="98" on="0"/>
        <pt x="685" y="31" on="0"/>
        <pt x="799" y="31" on="1"/>
        <pt x="919" y="31" on="0"/>
        <pt x="1081" y="92" on="0"/>
        <pt x="1132" y="156" on="1"/>
        <pt x="1168" y="199" on="0"/>
        <pt x="1213" y="309" on="0"/>
        <pt x="1232" y="399" on="1"/>
        <pt x="1255" y="398" on="1"/>
        <pt x="1242" y="0" on="1"/>
        <pt x="49" y="0" on="1"/>
        <pt x="49" y="23" on="1"/>
        <pt x="106" y="26" on="0"/>
        <pt x="177" y="52" on="0"/>
        <pt x="205" y="81" on="1"/>
        <pt x="236" y="113" on="0"/>
        <pt x="259" y="212" on="0"/>
        <pt x="259" y="314" on="1"/>
        <pt x="259" y="1051" on="1"/>
        <pt x="259" y="1153" on="0"/>
        <pt x="236" y="1252" on="0"/>
        <pt x="205" y="1284" on="1"/>
        <pt x="178" y="1313" on="0"/>
        <pt x="107" y="1339" on="0"/>
        <pt x="49" y="1342" on="1"/>
        <pt x="49" y="1365" on="1"/>
      </contour>
    </TTGlyph>
    <TTGlyph name="Eacute" xMin="49" yMin="0" xMax="1255" yMax="1772">
      <component glyphName="E" x="0" y="0" flags="0x214"/>
      <component glyphName=".notdef#9" x="0" y="0" flags="0x14"/>
    </TTGlyph>
    <TTGlyph name="Ecircumflex" xMin="49" yMin="0" xMax="1255" yMax="1768">
      <component glyphName="E" x="0" y="0" flags="0x214"/>
      <component glyphName=".notdef#11" x="0" y="0" flags="0x14"/>
    </TTGlyph>
    <TTGlyph name="Edieresis" xMin="49" yMin="0" xMax="1255" yMax="1748">
      <component glyphName="E" x="0" y="0" flags="0x214"/>
      <component glyphName=".notdef#8" x="0" y="0" flags="0x14"/>
    </TTGlyph>
    <TTGlyph name="Egrave" xMin="49" yMin="0" xMax="1255" yMax="1772">
      <component glyphName="E" x="0" y="0" flags="0x214"/>
      <component glyphName=".notdef#10" x="0" y="0" flags="0x14"/>
    </TTGlyph>
    <TTGlyph name="Eth" xMin="49" yMin="0" xMax="1484" yMax="1365">
      <contour>
        <pt x="257" y="662" on="1"/>
        <pt x="74" y="662" on="1"/>
        <pt x="74" y="730" on="1"/>
        <pt x="257" y="730" on="1"/>
        <pt x="257" y="1051" on="1"/>
        <pt x="257" y="1160" on="0"/>
        <pt x="229" y="1263" on="0"/>
        <pt x="191" y="1295" on="1"/>
        <pt x="143" y="1336" on="0"/>
        <pt x="49" y="1342" on="1"/>
        <pt x="49" y="1365" on="1"/>
        <pt x="596" y="1365" on="1"/>
        <pt x="779" y="1365" on="0"/>
        <pt x="830" y="1361" on="1"/>
        <pt x="1041" y="1344" on="0"/>
        <pt x="1188" y="1241" on="1"/>
        <pt x="1328" y="1141" on="0"/>
        <pt x="1484" y="821" on="0"/>
        <pt x="1484" y="632" on="1"/>
        <pt x="1484" y="494" on="0"/>
        <pt x="1395" y="249" on="0"/>
        <pt x="1316" y="168" on="1"/>
        <pt x="1205" y="54" on="0"/>
        <pt x="1039" y="23" on="1"/>
        <pt x="915" y="0" on="0"/>
        <pt x="785" y="0" on="1"/>
        <pt x="620" y="0" on="1"/>
        <pt x="49" y="0" on="1"/>
        <pt x="49" y="23" on="1"/>
        <pt x="106" y="27" on="0"/>
        <pt x="175" y="52" on="0"/>
        <pt x="203" y="81" on="1"/>
        <pt x="234" y="113" on="0"/>
        <pt x="257" y="212" on="0"/>
        <pt x="257" y="314" on="1"/>
      </contour>
      <contour>
        <pt x="475" y="662" on="1"/>
        <pt x="475" y="340" on="1"/>
        <pt x="475" y="242" on="0"/>
        <pt x="498" y="140" on="0"/>
        <pt x="528" y="104" on="1"/>
        <pt x="592" y="26" on="0"/>
        <pt x="735" y="26" on="1"/>
        <pt x="860" y="26" on="0"/>
        <pt x="1036" y="108" on="0"/>
        <pt x="1106" y="198" on="1"/>
        <pt x="1174" y="286" on="0"/>
        <pt x="1245" y="513" on="0"/>
        <pt x="1245" y="641" on="1"/>
        <pt x="1245" y="783" on="0"/>
        <pt x="1159" y="1039" on="0"/>
        <pt x="1078" y="1135" on="1"/>
        <pt x="966" y="1268" on="0"/>
        <pt x="811" y="1311" on="1"/>
        <pt x="727" y="1334" on="0"/>
        <pt x="596" y="1334" on="1"/>
        <pt x="475" y="1334" on="1"/>
        <pt x="475" y="730" on="1"/>
        <pt x="770" y="730" on="1"/>
        <pt x="770" y="662" on="1"/>
      </contour>
    </TTGlyph>
    <TTGlyph name="Euro" xMin="20" yMin="-18" xMax="930" yMax="1382">
      <contour>
        <pt x="930" y="401" on="1"/>
        <pt x="843" y="-18" on="0"/>
        <pt x="602" y="-18" on="1"/>
        <pt x="418" y="-18" on="0"/>
        <pt x="149" y="301" on="0"/>
        <pt x="123" y="580" on="1"/>
        <pt x="20" y="580" on="1"/>
        <pt x="41" y="625" on="1"/>
        <pt x="117" y="625" on="1"/>
        <pt x="117" y="682" on="1"/>
        <pt x="116" y="712" on="1"/>
        <pt x="116" y="725" on="0"/>
        <pt x="117" y="733" on="1"/>
        <pt x="20" y="733" on="1"/>
        <pt x="41" y="778" on="1"/>
        <pt x="121" y="778" on="1"/>
        <pt x="149" y="1059" on="0"/>
        <pt x="393" y="1382" on="0"/>
        <pt x="563" y="1382" on="1"/>
        <pt x="643" y="1382" on="0"/>
        <pt x="743" y="1335" on="1"/>
        <pt x="805" y="1305" on="0"/>
        <pt x="838" y="1305" on="1"/>
        <pt x="873" y="1305" on="0"/>
        <pt x="885" y="1356" on="1"/>
        <pt x="907" y="1356" on="1"/>
        <pt x="913" y="958" on="1"/>
        <pt x="891" y="958" on="1"/>
        <pt x="800" y="1360" on="0"/>
        <pt x="563" y="1360" on="1"/>
        <pt x="449" y="1360" on="0"/>
        <pt x="304" y="1057" on="0"/>
        <pt x="285" y="778" on="1"/>
        <pt x="596" y="778" on="1"/>
        <pt x="575" y="733" on="1"/>
        <pt x="283" y="733" on="1"/>
        <pt x="281" y="716" on="0"/>
        <pt x="281" y="682" on="1"/>
        <pt x="281" y="644" on="0"/>
        <pt x="283" y="625" on="1"/>
        <pt x="596" y="625" on="1"/>
        <pt x="575" y="580" on="1"/>
        <pt x="285" y="580" on="1"/>
        <pt x="293" y="308" on="0"/>
        <pt x="472" y="6" on="0"/>
        <pt x="602" y="6" on="1"/>
        <pt x="813" y="6" on="0"/>
        <pt x="905" y="403" on="1"/>
      </contour>
    </TTGlyph>
    <TTGlyph name="F" xMin="49" yMin="0" xMax="1123" yMax="1365">
      <contour>
        <pt x="478" y="713" on="1"/>
        <pt x="478" y="314" on="1"/>
        <pt x="478" y="212" on="0"/>
        <pt x="500" y="115" on="0"/>
        <pt x="531" y="82" on="1"/>
        <pt x="558" y="53" on="0"/>
        <pt x="631" y="26" on="0"/>
        <pt x="688" y="23" on="1"/>
        <pt x="688" y="0" on="1"/>
        <pt x="49" y="0" on="1"/>
        <pt x="49" y="23" on="1"/>
        <pt x="97" y="23" on="0"/>
        <pt x="183" y="54" on="0"/>
        <pt x="207" y="80" on="1"/>
        <pt x="235" y="111" on="0"/>
        <pt x="259" y="219" on="0"/>
        <pt x="259" y="314" on="1"/>
        <pt x="259" y="1051" on="1"/>
        <pt x="259" y="1115" on="0"/>
        <pt x="252" y="1184" on="1"/>
        <pt x="242" y="1272" on="0"/>
        <pt x="166" y="1315" on="1"/>
        <pt x="124" y="1338" on="0"/>
        <pt x="49" y="1342" on="1"/>
        <pt x="49" y="1365" on="1"/>
        <pt x="1094" y="1365" on="1"/>
        <pt x="1123" y="1040" on="1"/>
        <pt x="1100" y="1035" on="1"/>
        <pt x="1075" y="1111" on="0"/>
        <pt x="1054" y="1149" on="1"/>
        <pt x="1007" y="1236" on="0"/>
        <pt x="922" y="1284" on="1"/>
        <pt x="873" y="1312" on="0"/>
        <pt x="745" y="1334" on="0"/>
        <pt x="633" y="1334" on="1"/>
        <pt x="478" y="1334" on="1"/>
        <pt x="478" y="744" on="1"/>
        <pt x="518" y="744" on="1"/>
        <pt x="695" y="744" on="0"/>
        <pt x="775" y="823" on="1"/>
        <pt x="810" y="857" on="0"/>
        <pt x="846" y="950" on="0"/>
        <pt x="852" y="1025" on="1"/>
        <pt x="875" y="1024" on="1"/>
        <pt x="869" y="418" on="1"/>
        <pt x="845" y="418" on="1"/>
        <pt x="834" y="520" on="0"/>
        <pt x="781" y="631" on="0"/>
        <pt x="727" y="665" on="1"/>
        <pt x="687" y="690" on="0"/>
        <pt x="570" y="713" on="0"/>
      </contour>
    </TTGlyph>
    <TTGlyph name="G" xMin="96" yMin="-34" xMax="1526" yMax="1400">
      <contour>
        <pt x="1301" y="1365" on="1"/>
        <pt x="1313" y="930" on="1"/>
        <pt x="1290" y="928" on="1"/>
        <pt x="1221" y="1150" on="0"/>
        <pt x="1005" y="1367" on="0"/>
        <pt x="852" y="1367" on="1"/>
        <pt x="733" y="1367" on="0"/>
        <pt x="562" y="1270" on="0"/>
        <pt x="488" y="1161" on="1"/>
        <pt x="338" y="938" on="0"/>
        <pt x="338" y="651" on="1"/>
        <pt x="338" y="514" on="0"/>
        <pt x="410" y="271" on="0"/>
        <pt x="479" y="178" on="1"/>
        <pt x="613" y="-2" on="0"/>
        <pt x="806" y="-2" on="1"/>
        <pt x="882" y="-2" on="0"/>
        <pt x="1016" y="62" on="0"/>
        <pt x="1059" y="118" on="1"/>
        <pt x="1118" y="196" on="0"/>
        <pt x="1118" y="303" on="1"/>
        <pt x="1118" y="402" on="0"/>
        <pt x="1011" y="490" on="0"/>
        <pt x="888" y="490" on="1"/>
        <pt x="888" y="513" on="1"/>
        <pt x="1526" y="513" on="1"/>
        <pt x="1526" y="490" on="1"/>
        <pt x="1438" y="482" on="0"/>
        <pt x="1367" y="449" on="0"/>
        <pt x="1350" y="409" on="1"/>
        <pt x="1331" y="365" on="0"/>
        <pt x="1331" y="234" on="1"/>
        <pt x="1331" y="198" on="0"/>
        <pt x="1335" y="122" on="1"/>
        <pt x="1337" y="99" on="1"/>
        <pt x="1299" y="113" on="0"/>
        <pt x="1281" y="113" on="1"/>
        <pt x="1259" y="113" on="0"/>
        <pt x="1225" y="90" on="1"/>
        <pt x="1138" y="30" on="0"/>
        <pt x="908" y="-34" on="0"/>
        <pt x="780" y="-34" on="1"/>
        <pt x="604" y="-34" on="0"/>
        <pt x="321" y="86" on="0"/>
        <pt x="233" y="198" on="1"/>
        <pt x="167" y="282" on="0"/>
        <pt x="96" y="514" on="0"/>
        <pt x="96" y="644" on="1"/>
        <pt x="96" y="823" on="0"/>
        <pt x="224" y="1131" on="0"/>
        <pt x="340" y="1231" on="1"/>
        <pt x="435" y="1312" on="0"/>
        <pt x="683" y="1400" on="0"/>
        <pt x="821" y="1400" on="1"/>
        <pt x="901" y="1400" on="0"/>
        <pt x="1038" y="1370" on="0"/>
        <pt x="1115" y="1336" on="1"/>
        <pt x="1174" y="1309" on="1"/>
        <pt x="1196" y="1300" on="0"/>
        <pt x="1214" y="1300" on="1"/>
        <pt x="1254" y="1300" on="0"/>
        <pt x="1275" y="1365" on="1"/>
      </contour>
    </TTGlyph>
    <TTGlyph name="H" xMin="49" yMin="0" xMax="1616" yMax="1365">
      <contour>
        <pt x="478" y="730" on="1"/>
        <pt x="1188" y="730" on="1"/>
        <pt x="1188" y="1051" on="1"/>
        <pt x="1188" y="1154" on="0"/>
        <pt x="1165" y="1252" on="0"/>
        <pt x="1134" y="1284" on="1"/>
        <pt x="1106" y="1313" on="0"/>
        <pt x="1035" y="1339" on="0"/>
        <pt x="977" y="1342" on="1"/>
        <pt x="977" y="1365" on="1"/>
        <pt x="1616" y="1365" on="1"/>
        <pt x="1616" y="1342" on="1"/>
        <pt x="1559" y="1339" on="0"/>
        <pt x="1488" y="1313" on="0"/>
        <pt x="1460" y="1284" on="1"/>
        <pt x="1429" y="1252" on="0"/>
        <pt x="1406" y="1153" on="0"/>
        <pt x="1406" y="1051" on="1"/>
        <pt x="1406" y="314" on="1"/>
        <pt x="1406" y="212" on="0"/>
        <pt x="1429" y="114" on="0"/>
        <pt x="1460" y="81" on="1"/>
        <pt x="1488" y="53" on="0"/>
        <pt x="1559" y="26" on="0"/>
        <pt x="1616" y="23" on="1"/>
        <pt x="1616" y="0" on="1"/>
        <pt x="977" y="0" on="1"/>
        <pt x="977" y="23" on="1"/>
        <pt x="1035" y="26" on="0"/>
        <pt x="1106" y="53" on="0"/>
        <pt x="1134" y="81" on="1"/>
        <pt x="1165" y="113" on="0"/>
        <pt x="1188" y="211" on="0"/>
        <pt x="1188" y="314" on="1"/>
        <pt x="1188" y="683" on="1"/>
        <pt x="478" y="683" on="1"/>
        <pt x="478" y="314" on="1"/>
        <pt x="478" y="212" on="0"/>
        <pt x="501" y="113" on="0"/>
        <pt x="532" y="81" on="1"/>
        <pt x="559" y="53" on="0"/>
        <pt x="630" y="26" on="0"/>
        <pt x="688" y="23" on="1"/>
        <pt x="688" y="0" on="1"/>
        <pt x="49" y="0" on="1"/>
        <pt x="49" y="23" on="1"/>
        <pt x="107" y="26" on="0"/>
        <pt x="178" y="53" on="0"/>
        <pt x="205" y="81" on="1"/>
        <pt x="237" y="113" on="0"/>
        <pt x="259" y="211" on="0"/>
        <pt x="259" y="314" on="1"/>
        <pt x="259" y="1051" on="1"/>
        <pt x="259" y="1154" on="0"/>
        <pt x="237" y="1252" on="0"/>
        <pt x="205" y="1284" on="1"/>
        <pt x="178" y="1313" on="0"/>
        <pt x="106" y="1339" on="0"/>
        <pt x="49" y="1342" on="1"/>
        <pt x="49" y="1365" on="1"/>
        <pt x="688" y="1365" on="1"/>
        <pt x="688" y="1342" on="1"/>
        <pt x="631" y="1339" on="0"/>
        <pt x="560" y="1313" on="0"/>
        <pt x="532" y="1284" on="1"/>
        <pt x="501" y="1252" on="0"/>
        <pt x="478" y="1153" on="0"/>
        <pt x="478" y="1051" on="1"/>
      </contour>
    </TTGlyph>
    <TTGlyph name="I" xMin="49" yMin="0" xMax="688" yMax="1365">
      <contour>
        <pt x="688" y="1365" on="1"/>
        <pt x="688" y="1342" on="1"/>
        <pt x="631" y="1339" on="0"/>
        <pt x="560" y="1313" on="0"/>
        <pt x="532" y="1284" on="1"/>
        <pt x="493" y="1244" on="0"/>
        <pt x="484" y="1173" on="1"/>
        <pt x="478" y="1120" on="0"/>
        <pt x="478" y="1051" on="1"/>
        <pt x="478" y="314" on="1"/>
        <pt x="478" y="231" on="0"/>
        <pt x="494" y="135" on="0"/>
        <pt x="512" y="106" on="1"/>
        <pt x="538" y="66" on="0"/>
        <pt x="620" y="27" on="0"/>
        <pt x="688" y="23" on="1"/>
        <pt x="688" y="0" on="1"/>
        <pt x="49" y="0" on="1"/>
        <pt x="49" y="23" on="1"/>
        <pt x="107" y="26" on="0"/>
        <pt x="178" y="53" on="0"/>
        <pt x="205" y="81" on="1"/>
        <pt x="237" y="113" on="0"/>
        <pt x="259" y="211" on="0"/>
        <pt x="259" y="314" on="1"/>
        <pt x="259" y="1051" on="1"/>
        <pt x="259" y="1154" on="0"/>
        <pt x="237" y="1252" on="0"/>
        <pt x="205" y="1284" on="1"/>
        <pt x="178" y="1313" on="0"/>
        <pt x="106" y="1339" on="0"/>
        <pt x="49" y="1342" on="1"/>
        <pt x="49" y="1365" on="1"/>
      </contour>
    </TTGlyph>
    <TTGlyph name="Iacute" xMin="49" yMin="0" xMax="689" yMax="1772">
      <component glyphName="I" x="0" y="0" flags="0x214"/>
      <component glyphName=".notdef#13" x="0" y="0" flags="0x14"/>
    </TTGlyph>
    <TTGlyph name="Icircumflex" xMin="49" yMin="0" xMax="688" yMax="1768">
      <component glyphName="I" x="0" y="0" flags="0x214"/>
      <component glyphName=".notdef#15" x="0" y="0" flags="0x14"/>
    </TTGlyph>
    <TTGlyph name="Idieresis" xMin="49" yMin="0" xMax="688" yMax="1748">
      <component glyphName="I" x="0" y="0" flags="0x214"/>
      <component glyphName=".notdef#12" x="0" y="0" flags="0x14"/>
    </TTGlyph>
    <TTGlyph name="Igrave" xMin="34" yMin="0" xMax="688" yMax="1772">
      <component glyphName="I" x="0" y="0" flags="0x214"/>
      <component glyphName=".notdef#14" x="0" y="0" flags="0x14"/>
    </TTGlyph>
    <TTGlyph name="J" xMin="-230" yMin="-284" xMax="654" yMax="1365">
      <contour>
        <pt x="654" y="1365" on="1"/>
        <pt x="654" y="1342" on="1"/>
        <pt x="601" y="1339" on="0"/>
        <pt x="537" y="1319" on="0"/>
        <pt x="510" y="1296" on="1"/>
        <pt x="472" y="1264" on="0"/>
        <pt x="443" y="1162" on="0"/>
        <pt x="443" y="1056" on="1"/>
        <pt x="443" y="163" on="1"/>
        <pt x="443" y="27" on="0"/>
        <pt x="403" y="-118" on="0"/>
        <pt x="350" y="-170" on="1"/>
        <pt x="297" y="-221" on="0"/>
        <pt x="117" y="-284" on="0"/>
        <pt x="23" y="-284" on="1"/>
        <pt x="-33" y="-284" on="0"/>
        <pt x="-139" y="-260" on="0"/>
        <pt x="-171" y="-240" on="1"/>
        <pt x="-230" y="-204" on="0"/>
        <pt x="-230" y="-144" on="1"/>
        <pt x="-230" y="-108" on="0"/>
        <pt x="-184" y="-62" on="0"/>
        <pt x="-147" y="-62" on="1"/>
        <pt x="-111" y="-62" on="0"/>
        <pt x="-86" y="-86" on="1"/>
        <pt x="-74" y="-98" on="0"/>
        <pt x="-56" y="-133" on="0"/>
        <pt x="-38" y="-180" on="1"/>
        <pt x="-21" y="-223" on="0"/>
        <pt x="25" y="-260" on="0"/>
        <pt x="62" y="-260" on="1"/>
        <pt x="110" y="-260" on="0"/>
        <pt x="181" y="-198" on="0"/>
        <pt x="200" y="-139" on="1"/>
        <pt x="225" y="-58" on="0"/>
        <pt x="225" y="172" on="1"/>
        <pt x="225" y="1057" on="1"/>
        <pt x="225" y="1120" on="0"/>
        <pt x="216" y="1171" on="1"/>
        <pt x="205" y="1236" on="0"/>
        <pt x="168" y="1273" on="1"/>
        <pt x="110" y="1334" on="0"/>
        <pt x="10" y="1342" on="1"/>
        <pt x="10" y="1365" on="1"/>
      </contour>
    </TTGlyph>
    <TTGlyph name="K" xMin="49" yMin="0" xMax="1497" yMax="1365">
      <contour>
        <pt x="478" y="696" on="1"/>
        <pt x="901" y="1116" on="1"/>
        <pt x="964" y="1178" on="0"/>
        <pt x="995" y="1223" on="0"/>
        <pt x="995" y="1250" on="1"/>
        <pt x="995" y="1299" on="0"/>
        <pt x="947" y="1324" on="1"/>
        <pt x="922" y="1336" on="0"/>
        <pt x="863" y="1342" on="1"/>
        <pt x="863" y="1365" on="1"/>
        <pt x="1294" y="1365" on="1"/>
        <pt x="1294" y="1342" on="1"/>
        <pt x="1250" y="1338" on="0"/>
        <pt x="1191" y="1317" on="0"/>
        <pt x="1156" y="1292" on="1"/>
        <pt x="1117" y="1264" on="0"/>
        <pt x="1022" y="1173" on="1"/>
        <pt x="698" y="862" on="1"/>
        <pt x="1159" y="274" on="1"/>
        <pt x="1216" y="201" on="1"/>
        <pt x="1279" y="123" on="0"/>
        <pt x="1347" y="79" on="1"/>
        <pt x="1388" y="52" on="0"/>
        <pt x="1450" y="29" on="0"/>
        <pt x="1497" y="23" on="1"/>
        <pt x="1497" y="0" on="1"/>
        <pt x="836" y="0" on="1"/>
        <pt x="836" y="23" on="1"/>
        <pt x="911" y="29" on="0"/>
        <pt x="977" y="67" on="0"/>
        <pt x="977" y="104" on="1"/>
        <pt x="977" y="144" on="0"/>
        <pt x="936" y="206" on="1"/>
        <pt x="916" y="236" on="0"/>
        <pt x="806" y="384" on="0"/>
        <pt x="768" y="430" on="1"/>
        <pt x="543" y="709" on="1"/>
        <pt x="478" y="645" on="1"/>
        <pt x="478" y="314" on="1"/>
        <pt x="478" y="212" on="0"/>
        <pt x="501" y="113" on="0"/>
        <pt x="532" y="81" on="1"/>
        <pt x="559" y="53" on="0"/>
        <pt x="630" y="26" on="0"/>
        <pt x="688" y="23" on="1"/>
        <pt x="688" y="0" on="1"/>
        <pt x="49" y="0" on="1"/>
        <pt x="49" y="23" on="1"/>
        <pt x="107" y="26" on="0"/>
        <pt x="178" y="53" on="0"/>
        <pt x="205" y="81" on="1"/>
        <pt x="237" y="113" on="0"/>
        <pt x="259" y="211" on="0"/>
        <pt x="259" y="314" on="1"/>
        <pt x="259" y="1051" on="1"/>
        <pt x="259" y="1154" on="0"/>
        <pt x="237" y="1252" on="0"/>
        <pt x="205" y="1284" on="1"/>
        <pt x="178" y="1313" on="0"/>
        <pt x="106" y="1339" on="0"/>
        <pt x="49" y="1342" on="1"/>
        <pt x="49" y="1365" on="1"/>
        <pt x="688" y="1365" on="1"/>
        <pt x="688" y="1342" on="1"/>
        <pt x="631" y="1339" on="0"/>
        <pt x="560" y="1313" on="0"/>
        <pt x="532" y="1284" on="1"/>
        <pt x="501" y="1252" on="0"/>
        <pt x="478" y="1153" on="0"/>
        <pt x="478" y="1051" on="1"/>
      </contour>
    </TTGlyph>
    <TTGlyph name="L" xMin="49" yMin="0" xMax="1256" yMax="1365">
      <contour>
        <pt x="49" y="0" on="1"/>
        <pt x="49" y="24" on="1"/>
        <pt x="150" y="24" on="0"/>
        <pt x="205" y="81" on="1"/>
        <pt x="236" y="113" on="0"/>
        <pt x="259" y="212" on="0"/>
        <pt x="259" y="314" on="1"/>
        <pt x="259" y="1051" on="1"/>
        <pt x="259" y="1157" on="0"/>
        <pt x="234" y="1258" on="0"/>
        <pt x="200" y="1290" on="1"/>
        <pt x="172" y="1316" on="0"/>
        <pt x="103" y="1340" on="0"/>
        <pt x="49" y="1342" on="1"/>
        <pt x="49" y="1365" on="1"/>
        <pt x="688" y="1365" on="1"/>
        <pt x="688" y="1342" on="1"/>
        <pt x="633" y="1339" on="0"/>
        <pt x="563" y="1315" on="0"/>
        <pt x="536" y="1289" on="1"/>
        <pt x="502" y="1256" on="0"/>
        <pt x="478" y="1156" on="0"/>
        <pt x="478" y="1051" on="1"/>
        <pt x="478" y="474" on="1"/>
        <pt x="478" y="341" on="0"/>
        <pt x="492" y="211" on="0"/>
        <pt x="512" y="170" on="1"/>
        <pt x="547" y="98" on="0"/>
        <pt x="685" y="31" on="0"/>
        <pt x="799" y="31" on="1"/>
        <pt x="918" y="31" on="0"/>
        <pt x="1081" y="94" on="0"/>
        <pt x="1133" y="160" on="1"/>
        <pt x="1168" y="205" on="0"/>
        <pt x="1213" y="319" on="0"/>
        <pt x="1232" y="412" on="1"/>
        <pt x="1256" y="410" on="1"/>
        <pt x="1243" y="0" on="1"/>
      </contour>
    </TTGlyph>
    <TTGlyph name="M" xMin="49" yMin="0" xMax="1776" yMax="1365">
      <contour>
        <pt x="1776" y="1342" on="1"/>
        <pt x="1719" y="1339" on="0"/>
        <pt x="1650" y="1314" on="0"/>
        <pt x="1621" y="1285" on="1"/>
        <pt x="1599" y="1264" on="0"/>
        <pt x="1577" y="1213" on="0"/>
        <pt x="1573" y="1174" on="1"/>
        <pt x="1566" y="1122" on="0"/>
        <pt x="1566" y="1051" on="1"/>
        <pt x="1566" y="314" on="1"/>
        <pt x="1566" y="211" on="0"/>
        <pt x="1590" y="111" on="0"/>
        <pt x="1621" y="81" on="1"/>
        <pt x="1676" y="28" on="0"/>
        <pt x="1776" y="23" on="1"/>
        <pt x="1776" y="0" on="1"/>
        <pt x="1137" y="0" on="1"/>
        <pt x="1137" y="23" on="1"/>
        <pt x="1195" y="26" on="0"/>
        <pt x="1266" y="53" on="0"/>
        <pt x="1294" y="81" on="1"/>
        <pt x="1325" y="113" on="0"/>
        <pt x="1348" y="212" on="0"/>
        <pt x="1348" y="314" on="1"/>
        <pt x="1348" y="1208" on="1"/>
        <pt x="833" y="0" on="1"/>
        <pt x="812" y="0" on="1"/>
        <pt x="300" y="1190" on="1"/>
        <pt x="300" y="314" on="1"/>
        <pt x="300" y="211" on="0"/>
        <pt x="323" y="113" on="0"/>
        <pt x="354" y="81" on="1"/>
        <pt x="382" y="52" on="0"/>
        <pt x="453" y="26" on="0"/>
        <pt x="510" y="23" on="1"/>
        <pt x="510" y="0" on="1"/>
        <pt x="49" y="0" on="1"/>
        <pt x="49" y="23" on="1"/>
        <pt x="106" y="26" on="0"/>
        <pt x="177" y="52" on="0"/>
        <pt x="205" y="81" on="1"/>
        <pt x="236" y="113" on="0"/>
        <pt x="259" y="212" on="0"/>
        <pt x="259" y="314" on="1"/>
        <pt x="259" y="1051" on="1"/>
        <pt x="259" y="1097" on="0"/>
        <pt x="256" y="1138" on="1"/>
        <pt x="251" y="1212" on="0"/>
        <pt x="233" y="1246" on="1"/>
        <pt x="208" y="1293" on="0"/>
        <pt x="121" y="1338" on="0"/>
        <pt x="49" y="1342" on="1"/>
        <pt x="49" y="1365" on="1"/>
        <pt x="483" y="1365" on="1"/>
        <pt x="916" y="296" on="1"/>
        <pt x="1365" y="1365" on="1"/>
        <pt x="1776" y="1365" on="1"/>
      </contour>
    </TTGlyph>
    <TTGlyph name="N" xMin="49" yMin="0" xMax="1497" yMax="1365">
      <contour>
        <pt x="300" y="1184" on="1"/>
        <pt x="300" y="314" on="1"/>
        <pt x="300" y="211" on="0"/>
        <pt x="323" y="113" on="0"/>
        <pt x="354" y="81" on="1"/>
        <pt x="382" y="52" on="0"/>
        <pt x="453" y="26" on="0"/>
        <pt x="510" y="23" on="1"/>
        <pt x="510" y="0" on="1"/>
        <pt x="49" y="0" on="1"/>
        <pt x="49" y="23" on="1"/>
        <pt x="106" y="26" on="0"/>
        <pt x="177" y="52" on="0"/>
        <pt x="205" y="81" on="1"/>
        <pt x="236" y="113" on="0"/>
        <pt x="259" y="212" on="0"/>
        <pt x="259" y="314" on="1"/>
        <pt x="259" y="1052" on="1"/>
        <pt x="259" y="1153" on="0"/>
        <pt x="236" y="1252" on="0"/>
        <pt x="205" y="1284" on="1"/>
        <pt x="178" y="1313" on="0"/>
        <pt x="107" y="1339" on="0"/>
        <pt x="49" y="1342" on="1"/>
        <pt x="49" y="1365" on="1"/>
        <pt x="434" y="1365" on="1"/>
        <pt x="1246" y="329" on="1"/>
        <pt x="1246" y="1051" on="1"/>
        <pt x="1246" y="1154" on="0"/>
        <pt x="1223" y="1252" on="0"/>
        <pt x="1192" y="1284" on="1"/>
        <pt x="1164" y="1313" on="0"/>
        <pt x="1093" y="1339" on="0"/>
        <pt x="1036" y="1342" on="1"/>
        <pt x="1036" y="1365" on="1"/>
        <pt x="1497" y="1365" on="1"/>
        <pt x="1497" y="1342" on="1"/>
        <pt x="1397" y="1342" on="0"/>
        <pt x="1341" y="1284" on="1"/>
        <pt x="1310" y="1252" on="0"/>
        <pt x="1287" y="1153" on="0"/>
        <pt x="1287" y="1052" on="1"/>
        <pt x="1287" y="0" on="1"/>
        <pt x="1242" y="0" on="1"/>
      </contour>
    </TTGlyph>
    <TTGlyph name="Ntilde" xMin="49" yMin="0" xMax="1497" yMax="1741">
      <component glyphName="N" x="0" y="0" flags="0x214"/>
      <component glyphName=".notdef#16" x="0" y="0" flags="0x14"/>
    </TTGlyph>
    <TTGlyph name="O" xMin="96" yMin="-34" xMax="1566" yMax="1399">
      <contour>
        <pt x="96" y="673" on="1"/>
        <pt x="96" y="841" on="0"/>
        <pt x="240" y="1128" on="0"/>
        <pt x="378" y="1235" on="1"/>
        <pt x="481" y="1314" on="0"/>
        <pt x="719" y="1399" on="0"/>
        <pt x="840" y="1399" on="1"/>
        <pt x="994" y="1399" on="0"/>
        <pt x="1282" y="1264" on="0"/>
        <pt x="1390" y="1141" on="1"/>
        <pt x="1566" y="941" on="0"/>
        <pt x="1566" y="686" on="1"/>
        <pt x="1566" y="558" on="0"/>
        <pt x="1474" y="320" on="0"/>
        <pt x="1386" y="222" on="1"/>
        <pt x="1278" y="100" on="0"/>
        <pt x="983" y="-34" on="0"/>
        <pt x="822" y="-34" on="1"/>
        <pt x="663" y="-34" on="0"/>
        <pt x="373" y="96" on="0"/>
        <pt x="268" y="215" on="1"/>
        <pt x="185" y="308" on="0"/>
        <pt x="96" y="545" on="0"/>
      </contour>
      <contour>
        <pt x="338" y="658" on="1"/>
        <pt x="338" y="368" on="0"/>
        <pt x="496" y="169" on="1"/>
        <pt x="567" y="80" on="0"/>
        <pt x="726" y="-1" on="0"/>
        <pt x="830" y="-1" on="1"/>
        <pt x="935" y="-1" on="0"/>
        <pt x="1094" y="79" on="0"/>
        <pt x="1166" y="169" on="1"/>
        <pt x="1324" y="369" on="0"/>
        <pt x="1324" y="662" on="1"/>
        <pt x="1324" y="823" on="0"/>
        <pt x="1237" y="1110" on="0"/>
        <pt x="1158" y="1210" on="1"/>
        <pt x="1094" y="1292" on="0"/>
        <pt x="937" y="1367" on="0"/>
        <pt x="830" y="1367" on="1"/>
        <pt x="724" y="1367" on="0"/>
        <pt x="569" y="1293" on="0"/>
        <pt x="503" y="1210" on="1"/>
        <pt x="424" y="1111" on="0"/>
        <pt x="338" y="823" on="0"/>
      </contour>
    </TTGlyph>
    <TTGlyph name="OE" xMin="96" yMin="-8" xMax="2145" yMax="1374">
      <contour>
        <pt x="2013" y="1365" on="1"/>
        <pt x="2029" y="1035" on="1"/>
        <pt x="2006" y="1032" on="1"/>
        <pt x="1987" y="1131" on="0"/>
        <pt x="1932" y="1235" on="0"/>
        <pt x="1878" y="1272" on="1"/>
        <pt x="1832" y="1305" on="0"/>
        <pt x="1698" y="1334" on="0"/>
        <pt x="1596" y="1334" on="1"/>
        <pt x="1366" y="1334" on="1"/>
        <pt x="1366" y="734" on="1"/>
        <pt x="1427" y="734" on="1"/>
        <pt x="1518" y="734" on="0"/>
        <pt x="1610" y="758" on="0"/>
        <pt x="1639" y="789" on="1"/>
        <pt x="1667" y="818" on="0"/>
        <pt x="1694" y="897" on="0"/>
        <pt x="1703" y="973" on="1"/>
        <pt x="1726" y="973" on="1"/>
        <pt x="1718" y="437" on="1"/>
        <pt x="1695" y="437" on="1"/>
        <pt x="1678" y="588" on="0"/>
        <pt x="1560" y="703" on="0"/>
        <pt x="1423" y="703" on="1"/>
        <pt x="1366" y="703" on="1"/>
        <pt x="1366" y="474" on="1"/>
        <pt x="1366" y="421" on="0"/>
        <pt x="1370" y="353" on="1"/>
        <pt x="1373" y="282" on="0"/>
        <pt x="1387" y="201" on="0"/>
        <pt x="1400" y="170" on="1"/>
        <pt x="1430" y="100" on="0"/>
        <pt x="1573" y="31" on="0"/>
        <pt x="1689" y="31" on="1"/>
        <pt x="1808" y="31" on="0"/>
        <pt x="1970" y="92" on="0"/>
        <pt x="2021" y="156" on="1"/>
        <pt x="2057" y="200" on="0"/>
        <pt x="2102" y="311" on="0"/>
        <pt x="2121" y="400" on="1"/>
        <pt x="2145" y="396" on="1"/>
        <pt x="2131" y="0" on="1"/>
        <pt x="1205" y="0" on="1"/>
        <pt x="1068" y="-3" on="1"/>
        <pt x="955" y="-5" on="1"/>
        <pt x="830" y="-8" on="1"/>
        <pt x="707" y="-8" on="0"/>
        <pt x="451" y="83" on="0"/>
        <pt x="353" y="162" on="1"/>
        <pt x="232" y="259" on="0"/>
        <pt x="96" y="530" on="0"/>
        <pt x="96" y="674" on="1"/>
        <pt x="96" y="816" on="0"/>
        <pt x="228" y="1083" on="0"/>
        <pt x="349" y="1187" on="1"/>
        <pt x="565" y="1374" on="0"/>
        <pt x="844" y="1374" on="1"/>
        <pt x="987" y="1370" on="1"/>
        <pt x="1223" y="1365" on="1"/>
      </contour>
      <contour>
        <pt x="1148" y="397" on="1"/>
        <pt x="1148" y="1039" on="1"/>
        <pt x="1146" y="1114" on="1"/>
        <pt x="1146" y="1200" on="0"/>
        <pt x="1112" y="1284" on="0"/>
        <pt x="1067" y="1306" on="1"/>
        <pt x="994" y="1341" on="0"/>
        <pt x="856" y="1341" on="1"/>
        <pt x="752" y="1341" on="0"/>
        <pt x="593" y="1276" on="0"/>
        <pt x="529" y="1208" on="1"/>
        <pt x="441" y="1116" on="0"/>
        <pt x="337" y="823" on="0"/>
        <pt x="337" y="670" on="1"/>
        <pt x="337" y="511" on="0"/>
        <pt x="451" y="238" on="0"/>
        <pt x="557" y="140" on="1"/>
        <pt x="624" y="79" on="0"/>
        <pt x="764" y="24" on="0"/>
        <pt x="852" y="24" on="1"/>
        <pt x="943" y="24" on="0"/>
        <pt x="1058" y="56" on="0"/>
        <pt x="1088" y="90" on="1"/>
        <pt x="1123" y="129" on="0"/>
        <pt x="1148" y="258" on="0"/>
      </contour>
    </TTGlyph>
    <TTGlyph name="Oacute" xMin="96" yMin="-34" xMax="1566" yMax="1772">
      <component glyphName="O" x="0" y="0" flags="0x214"/>
      <component glyphName=".notdef#18" x="0" y="0" flags="0x14"/>
    </TTGlyph>
    <TTGlyph name="Ocircumflex" xMin="96" yMin="-34" xMax="1566" yMax="1768">
      <component glyphName="O" x="0" y="0" flags="0x214"/>
      <component glyphName=".notdef#20" x="0" y="0" flags="0x14"/>
    </TTGlyph>
    <TTGlyph name="Odieresis" xMin="96" yMin="-34" xMax="1566" yMax="1748">
      <component glyphName="O" x="0" y="0" flags="0x214"/>
      <component glyphName=".notdef#17" x="0" y="0" flags="0x14"/>
    </TTGlyph>
    <TTGlyph name="Ograve" xMin="96" yMin="-34" xMax="1566" yMax="1772">
      <component glyphName="O" x="0" y="0" flags="0x214"/>
      <component glyphName=".notdef#19" x="0" y="0" flags="0x14"/>
    </TTGlyph>
    <TTGlyph name="Omega" xMin="-46" yMin="0" xMax="1411" yMax="1387">
      <contour>
        <pt x="1411" y="248" on="1"/>
        <pt x="1333" y="0" on="1"/>
        <pt x="765" y="0" on="1"/>
        <pt x="765" y="94" on="1"/>
        <pt x="866" y="144" on="0"/>
        <pt x="971" y="223" on="0"/>
        <pt x="1021" y="284" on="1"/>
        <pt x="1096" y="376" on="0"/>
        <pt x="1175" y="606" on="0"/>
        <pt x="1175" y="731" on="1"/>
        <pt x="1175" y="845" on="0"/>
        <pt x="1107" y="1065" on="0"/>
        <pt x="1046" y="1150" on="1"/>
        <pt x="982" y="1238" on="0"/>
        <pt x="797" y="1329" on="0"/>
        <pt x="683" y="1329" on="1"/>
        <pt x="454" y="1329" on="0"/>
        <pt x="324" y="1155" on="1"/>
        <pt x="261" y="1071" on="0"/>
        <pt x="191" y="850" on="0"/>
        <pt x="191" y="736" on="1"/>
        <pt x="191" y="613" on="0"/>
        <pt x="269" y="383" on="0"/>
        <pt x="342" y="289" on="1"/>
        <pt x="393" y="224" on="0"/>
        <pt x="499" y="144" on="0"/>
        <pt x="601" y="94" on="1"/>
        <pt x="601" y="0" on="1"/>
        <pt x="31" y="0" on="1"/>
        <pt x="-46" y="248" on="1"/>
        <pt x="-7" y="248" on="1"/>
        <pt x="12" y="194" on="0"/>
        <pt x="57" y="138" on="0"/>
        <pt x="95" y="121" on="1"/>
        <pt x="146" y="99" on="0"/>
        <pt x="253" y="99" on="1"/>
        <pt x="475" y="93" on="1"/>
        <pt x="475" y="104" on="1"/>
        <pt x="374" y="143" on="0"/>
        <pt x="262" y="208" on="0"/>
        <pt x="208" y="258" on="1"/>
        <pt x="105" y="353" on="0"/>
        <pt x="-8" y="603" on="0"/>
        <pt x="-9" y="724" on="1"/>
        <pt x="-10" y="754" on="1"/>
        <pt x="-10" y="988" on="0"/>
        <pt x="168" y="1178" on="1"/>
        <pt x="175" y="1185" on="1"/>
        <pt x="369" y="1387" on="0"/>
        <pt x="684" y="1387" on="1"/>
        <pt x="1015" y="1387" on="0"/>
        <pt x="1209" y="1164" on="1"/>
        <pt x="1288" y="1073" on="0"/>
        <pt x="1373" y="853" on="0"/>
        <pt x="1373" y="740" on="1"/>
        <pt x="1373" y="603" on="0"/>
        <pt x="1257" y="349" on="0"/>
        <pt x="1152" y="254" on="1"/>
        <pt x="1100" y="207" on="0"/>
        <pt x="990" y="144" on="0"/>
        <pt x="891" y="104" on="1"/>
        <pt x="891" y="93" on="1"/>
        <pt x="1125" y="100" on="1"/>
        <pt x="1230" y="100" on="0"/>
        <pt x="1279" y="125" on="1"/>
        <pt x="1312" y="141" on="0"/>
        <pt x="1353" y="195" on="0"/>
        <pt x="1372" y="248" on="1"/>
      </contour>
    </TTGlyph>
    <TTGlyph name="Oslash" xMin="96" yMin="-137" xMax="1566" yMax="1502">
      <contour>
        <pt x="1198" y="1300" on="1"/>
        <pt x="1334" y="1502" on="1"/>
        <pt x="1416" y="1502" on="1"/>
        <pt x="1256" y="1263" on="1"/>
        <pt x="1406" y="1153" on="0"/>
        <pt x="1566" y="855" on="0"/>
        <pt x="1566" y="686" on="1"/>
        <pt x="1566" y="542" on="0"/>
        <pt x="1507" y="409" on="1"/>
        <pt x="1462" y="306" on="0"/>
        <pt x="1306" y="132" on="0"/>
        <pt x="1205" y="72" on="1"/>
        <pt x="1027" y="-34" on="0"/>
        <pt x="822" y="-34" on="1"/>
        <pt x="628" y="-34" on="0"/>
        <pt x="456" y="62" on="1"/>
        <pt x="324" y="-137" on="1"/>
        <pt x="242" y="-137" on="1"/>
        <pt x="399" y="99" on="1"/>
        <pt x="253" y="200" on="0"/>
        <pt x="96" y="499" on="0"/>
        <pt x="96" y="674" on="1"/>
        <pt x="96" y="841" on="0"/>
        <pt x="240" y="1128" on="0"/>
        <pt x="378" y="1235" on="1"/>
        <pt x="480" y="1314" on="0"/>
        <pt x="719" y="1399" on="0"/>
        <pt x="840" y="1399" on="1"/>
        <pt x="1028" y="1399" on="0"/>
      </contour>
      <contour>
        <pt x="1140" y="1233" on="1"/>
        <pt x="1078" y="1303" on="0"/>
        <pt x="930" y="1367" on="0"/>
        <pt x="831" y="1367" on="1"/>
        <pt x="721" y="1367" on="0"/>
        <pt x="642" y="1327" on="1"/>
        <pt x="506" y="1260" on="0"/>
        <pt x="338" y="891" on="0"/>
        <pt x="338" y="662" on="1"/>
        <pt x="338" y="523" on="0"/>
        <pt x="403" y="303" on="0"/>
        <pt x="476" y="196" on="1"/>
      </contour>
      <contour>
        <pt x="1185" y="1174" on="1"/>
        <pt x="520" y="141" on="1"/>
        <pt x="589" y="65" on="0"/>
        <pt x="734" y="-1" on="0"/>
        <pt x="829" y="-1" on="1"/>
        <pt x="956" y="-1" on="0"/>
        <pt x="1047" y="58" on="1"/>
        <pt x="1107" y="96" on="0"/>
        <pt x="1217" y="233" on="0"/>
        <pt x="1255" y="314" on="1"/>
        <pt x="1324" y="465" on="0"/>
        <pt x="1324" y="664" on="1"/>
        <pt x="1324" y="957" on="0"/>
      </contour>
    </TTGlyph>
    <TTGlyph name="Otilde" xMin="96" yMin="-34" xMax="1566" yMax="1741">
      <component glyphName="O" x="0" y="0" flags="0x214"/>
      <component glyphName=".notdef#21" x="0" y="0" flags="0x14"/>
    </TTGlyph>
    <TTGlyph name="P" xMin="49" yMin="0" xMax="1164" yMax="1365">
      <contour>
        <pt x="478" y="673" on="1"/>
        <pt x="478" y="314" on="1"/>
        <pt x="478" y="212" on="0"/>
        <pt x="501" y="113" on="0"/>
        <pt x="532" y="81" on="1"/>
        <pt x="559" y="53" on="0"/>
        <pt x="630" y="26" on="0"/>
        <pt x="688" y="23" on="1"/>
        <pt x="688" y="0" on="1"/>
        <pt x="49" y="0" on="1"/>
        <pt x="49" y="23" on="1"/>
        <pt x="107" y="26" on="0"/>
        <pt x="178" y="53" on="0"/>
        <pt x="205" y="81" on="1"/>
        <pt x="237" y="113" on="0"/>
        <pt x="259" y="211" on="0"/>
        <pt x="259" y="314" on="1"/>
        <pt x="259" y="1051" on="1"/>
        <pt x="259" y="1137" on="0"/>
        <pt x="244" y="1230" on="0"/>
        <pt x="226" y="1259" on="1"/>
        <pt x="200" y="1299" on="0"/>
        <pt x="120" y="1338" on="0"/>
        <pt x="56" y="1342" on="1"/>
        <pt x="49" y="1342" on="1"/>
        <pt x="49" y="1365" on="1"/>
        <pt x="652" y="1365" on="1"/>
        <pt x="810" y="1365" on="0"/>
        <pt x="960" y="1333" on="0"/>
        <pt x="1022" y="1285" on="1"/>
        <pt x="1164" y="1177" on="0"/>
        <pt x="1164" y="997" on="1"/>
        <pt x="1164" y="814" on="0"/>
        <pt x="1020" y="729" on="1"/>
        <pt x="945" y="685" on="0"/>
        <pt x="838" y="676" on="1"/>
        <pt x="804" y="673" on="0"/>
        <pt x="674" y="673" on="1"/>
      </contour>
      <contour>
        <pt x="478" y="705" on="1"/>
        <pt x="576" y="705" on="1"/>
        <pt x="675" y="705" on="0"/>
        <pt x="782" y="734" on="0"/>
        <pt x="824" y="773" on="1"/>
        <pt x="922" y="862" on="0"/>
        <pt x="922" y="1010" on="1"/>
        <pt x="922" y="1092" on="0"/>
        <pt x="865" y="1229" on="0"/>
        <pt x="812" y="1272" on="1"/>
        <pt x="751" y="1323" on="0"/>
        <pt x="667" y="1332" on="1"/>
        <pt x="644" y="1334" on="0"/>
        <pt x="562" y="1334" on="1"/>
        <pt x="478" y="1334" on="1"/>
      </contour>
    </TTGlyph>
    <TTGlyph name="Q" xMin="96" yMin="-243" xMax="1632" yMax="1399">
      <contour>
        <pt x="1047" y="-2" on="1"/>
        <pt x="1106" y="-40" on="0"/>
        <pt x="1253" y="-83" on="0"/>
        <pt x="1327" y="-83" on="1"/>
        <pt x="1390" y="-83" on="0"/>
        <pt x="1503" y="-54" on="0"/>
        <pt x="1537" y="-29" on="1"/>
        <pt x="1567" y="-7" on="0"/>
        <pt x="1602" y="52" on="0"/>
        <pt x="1616" y="104" on="1"/>
        <pt x="1632" y="102" on="1"/>
        <pt x="1628" y="29" on="0"/>
        <pt x="1587" y="-72" on="0"/>
        <pt x="1542" y="-119" on="1"/>
        <pt x="1423" y="-243" on="0"/>
        <pt x="1198" y="-243" on="1"/>
        <pt x="1067" y="-243" on="0"/>
        <pt x="978" y="-196" on="1"/>
        <pt x="898" y="-153" on="0"/>
        <pt x="807" y="-41" on="1"/>
        <pt x="801" y="-34" on="1"/>
        <pt x="713" y="-34" on="0"/>
        <pt x="524" y="21" on="0"/>
        <pt x="441" y="71" on="1"/>
        <pt x="277" y="169" on="0"/>
        <pt x="96" y="487" on="0"/>
        <pt x="96" y="674" on="1"/>
        <pt x="96" y="841" on="0"/>
        <pt x="240" y="1128" on="0"/>
        <pt x="378" y="1235" on="1"/>
        <pt x="479" y="1314" on="0"/>
        <pt x="719" y="1399" on="0"/>
        <pt x="840" y="1399" on="1"/>
        <pt x="982" y="1399" on="0"/>
        <pt x="1116" y="1342" on="1"/>
        <pt x="1218" y="1297" on="0"/>
        <pt x="1395" y="1146" on="0"/>
        <pt x="1456" y="1051" on="1"/>
        <pt x="1564" y="883" on="0"/>
        <pt x="1564" y="685" on="1"/>
        <pt x="1564" y="558" on="0"/>
        <pt x="1473" y="321" on="0"/>
        <pt x="1387" y="222" on="1"/>
        <pt x="1316" y="140" on="0"/>
        <pt x="1158" y="36" on="0"/>
      </contour>
      <contour>
        <pt x="489" y="172" on="1"/>
        <pt x="562" y="193" on="0"/>
        <pt x="634" y="193" on="1"/>
        <pt x="723" y="193" on="0"/>
        <pt x="805" y="158" on="1"/>
        <pt x="840" y="143" on="0"/>
        <pt x="914" y="95" on="0"/>
        <pt x="997" y="35" on="1"/>
        <pt x="1006" y="28" on="1"/>
        <pt x="1071" y="63" on="0"/>
        <pt x="1166" y="157" on="0"/>
        <pt x="1211" y="233" on="1"/>
        <pt x="1322" y="416" on="0"/>
        <pt x="1322" y="661" on="1"/>
        <pt x="1322" y="821" on="0"/>
        <pt x="1235" y="1111" on="0"/>
        <pt x="1156" y="1210" on="1"/>
        <pt x="1092" y="1291" on="0"/>
        <pt x="935" y="1367" on="0"/>
        <pt x="830" y="1367" on="1"/>
        <pt x="724" y="1367" on="0"/>
        <pt x="567" y="1292" on="0"/>
        <pt x="503" y="1210" on="1"/>
        <pt x="425" y="1111" on="0"/>
        <pt x="338" y="822" on="0"/>
        <pt x="338" y="662" on="1"/>
        <pt x="338" y="514" on="0"/>
        <pt x="410" y="281" on="0"/>
      </contour>
      <contour>
        <pt x="778" y="-6" on="1"/>
        <pt x="771" y="2" on="1"/>
        <pt x="701" y="86" on="0"/>
        <pt x="603" y="154" on="0"/>
        <pt x="552" y="154" on="1"/>
        <pt x="533" y="154" on="0"/>
        <pt x="510" y="146" on="1"/>
        <pt x="573" y="73" on="0"/>
        <pt x="694" y="5" on="0"/>
      </contour>
    </TTGlyph>
    <TTGlyph name="R" xMin="49" yMin="0" xMax="1339" yMax="1365">
      <contour>
        <pt x="478" y="668" on="1"/>
        <pt x="478" y="314" on="1"/>
        <pt x="478" y="212" on="0"/>
        <pt x="501" y="113" on="0"/>
        <pt x="532" y="81" on="1"/>
        <pt x="559" y="53" on="0"/>
        <pt x="630" y="26" on="0"/>
        <pt x="688" y="23" on="1"/>
        <pt x="688" y="0" on="1"/>
        <pt x="49" y="0" on="1"/>
        <pt x="49" y="23" on="1"/>
        <pt x="107" y="26" on="0"/>
        <pt x="178" y="53" on="0"/>
        <pt x="205" y="81" on="1"/>
        <pt x="237" y="113" on="0"/>
        <pt x="259" y="211" on="0"/>
        <pt x="259" y="314" on="1"/>
        <pt x="259" y="1051" on="1"/>
        <pt x="259" y="1154" on="0"/>
        <pt x="237" y="1252" on="0"/>
        <pt x="205" y="1284" on="1"/>
        <pt x="178" y="1313" on="0"/>
        <pt x="106" y="1339" on="0"/>
        <pt x="49" y="1342" on="1"/>
        <pt x="49" y="1365" on="1"/>
        <pt x="531" y="1365" on="1"/>
        <pt x="652" y="1365" on="0"/>
        <pt x="690" y="1364" on="1"/>
        <pt x="845" y="1357" on="0"/>
        <pt x="933" y="1322" on="1"/>
        <pt x="1032" y="1282" on="0"/>
        <pt x="1141" y="1123" on="0"/>
        <pt x="1141" y="1018" on="1"/>
        <pt x="1141" y="862" on="0"/>
        <pt x="1023" y="768" on="1"/>
        <pt x="987" y="740" on="0"/>
        <pt x="900" y="704" on="0"/>
        <pt x="827" y="688" on="1"/>
        <pt x="887" y="663" on="0"/>
        <pt x="916" y="636" on="1"/>
        <pt x="939" y="615" on="0"/>
        <pt x="977" y="552" on="0"/>
        <pt x="1015" y="472" on="1"/>
        <pt x="1104" y="289" on="0"/>
        <pt x="1195" y="120" on="0"/>
        <pt x="1226" y="82" on="1"/>
        <pt x="1251" y="51" on="0"/>
        <pt x="1298" y="27" on="0"/>
        <pt x="1339" y="23" on="1"/>
        <pt x="1339" y="0" on="1"/>
        <pt x="1007" y="0" on="1"/>
        <pt x="982" y="55" on="0"/>
        <pt x="975" y="70" on="1"/>
        <pt x="905" y="229" on="1"/>
        <pt x="842" y="372" on="0"/>
        <pt x="778" y="482" on="1"/>
        <pt x="714" y="591" on="0"/>
        <pt x="661" y="631" on="1"/>
        <pt x="634" y="651" on="0"/>
        <pt x="572" y="668" on="0"/>
        <pt x="527" y="668" on="1"/>
      </contour>
      <contour>
        <pt x="478" y="690" on="1"/>
        <pt x="516" y="690" on="1"/>
        <pt x="640" y="690" on="0"/>
        <pt x="747" y="718" on="0"/>
        <pt x="794" y="762" on="1"/>
        <pt x="899" y="862" on="0"/>
        <pt x="899" y="1010" on="1"/>
        <pt x="899" y="1089" on="0"/>
        <pt x="838" y="1228" on="0"/>
        <pt x="784" y="1273" on="1"/>
        <pt x="742" y="1307" on="0"/>
        <pt x="626" y="1334" on="0"/>
        <pt x="519" y="1334" on="1"/>
        <pt x="478" y="1334" on="1"/>
      </contour>
    </TTGlyph>
    <TTGlyph name="S" xMin="98" yMin="-35" xMax="974" yMax="1399">
      <contour>
        <pt x="98" y="3" on="1"/>
        <pt x="101" y="416" on="1"/>
        <pt x="124" y="416" on="1"/>
        <pt x="166" y="258" on="0"/>
        <pt x="224" y="167" on="1"/>
        <pt x="333" y="-1" on="0"/>
        <pt x="498" y="-1" on="1"/>
        <pt x="613" y="-1" on="0"/>
        <pt x="763" y="153" on="0"/>
        <pt x="763" y="271" on="1"/>
        <pt x="763" y="322" on="0"/>
        <pt x="730" y="428" on="0"/>
        <pt x="702" y="466" on="1"/>
        <pt x="673" y="505" on="0"/>
        <pt x="568" y="577" on="0"/>
        <pt x="460" y="632" on="1"/>
        <pt x="365" y="680" on="0"/>
        <pt x="264" y="746" on="0"/>
        <pt x="233" y="780" on="1"/>
        <pt x="147" y="874" on="0"/>
        <pt x="147" y="1009" on="1"/>
        <pt x="147" y="1092" on="0"/>
        <pt x="214" y="1246" on="0"/>
        <pt x="274" y="1301" on="1"/>
        <pt x="380" y="1399" on="0"/>
        <pt x="525" y="1399" on="1"/>
        <pt x="572" y="1399" on="0"/>
        <pt x="652" y="1380" on="0"/>
        <pt x="719" y="1352" on="1"/>
        <pt x="769" y="1332" on="0"/>
        <pt x="805" y="1321" on="0"/>
        <pt x="819" y="1321" on="1"/>
        <pt x="854" y="1321" on="0"/>
        <pt x="866" y="1372" on="1"/>
        <pt x="889" y="1372" on="1"/>
        <pt x="896" y="975" on="1"/>
        <pt x="873" y="975" on="1"/>
        <pt x="846" y="1070" on="0"/>
        <pt x="807" y="1171" on="0"/>
        <pt x="780" y="1214" on="1"/>
        <pt x="731" y="1292" on="0"/>
        <pt x="613" y="1367" on="0"/>
        <pt x="536" y="1367" on="1"/>
        <pt x="424" y="1367" on="0"/>
        <pt x="359" y="1291" on="1"/>
        <pt x="332" y="1260" on="0"/>
        <pt x="301" y="1176" on="0"/>
        <pt x="301" y="1134" on="1"/>
        <pt x="301" y="967" on="0"/>
        <pt x="516" y="865" on="1"/>
        <pt x="657" y="797" on="1"/>
        <pt x="820" y="720" on="0"/>
        <pt x="892" y="627" on="1"/>
        <pt x="974" y="523" on="0"/>
        <pt x="974" y="385" on="1"/>
        <pt x="974" y="293" on="0"/>
        <pt x="937" y="209" on="1"/>
        <pt x="885" y="92" on="0"/>
        <pt x="677" y="-35" on="0"/>
        <pt x="536" y="-35" on="1"/>
        <pt x="407" y="-35" on="0"/>
        <pt x="288" y="16" on="1"/>
        <pt x="226" y="43" on="0"/>
        <pt x="202" y="51" on="0"/>
        <pt x="187" y="51" on="1"/>
        <pt x="139" y="51" on="0"/>
        <pt x="121" y="3" on="1"/>
      </contour>
    </TTGlyph>
    <TTGlyph name="Scaron" xMin="98" yMin="-35" xMax="974" yMax="1768">
      <component glyphName="S" x="0" y="0" flags="0x214"/>
      <component glyphName=".notdef#22" x="0" y="0" flags="0x14"/>
    </TTGlyph>
    <TTGlyph name="T" xMin="8" yMin="0" xMax="1397" yMax="1365">
      <contour>
        <pt x="589" y="1334" on="1"/>
        <pt x="526" y="1334" on="0"/>
        <pt x="454" y="1330" on="1"/>
        <pt x="300" y="1322" on="0"/>
        <pt x="149" y="1260" on="0"/>
        <pt x="100" y="1184" on="1"/>
        <pt x="55" y="1114" on="0"/>
        <pt x="31" y="994" on="1"/>
        <pt x="8" y="996" on="1"/>
        <pt x="26" y="1365" on="1"/>
        <pt x="1379" y="1365" on="1"/>
        <pt x="1397" y="996" on="1"/>
        <pt x="1374" y="994" on="1"/>
        <pt x="1347" y="1133" on="0"/>
        <pt x="1232" y="1276" on="0"/>
        <pt x="1122" y="1307" on="1"/>
        <pt x="1029" y="1334" on="0"/>
        <pt x="807" y="1334" on="1"/>
        <pt x="807" y="314" on="1"/>
        <pt x="807" y="212" on="0"/>
        <pt x="830" y="113" on="0"/>
        <pt x="861" y="81" on="1"/>
        <pt x="889" y="52" on="0"/>
        <pt x="960" y="26" on="0"/>
        <pt x="1017" y="23" on="1"/>
        <pt x="1017" y="0" on="1"/>
        <pt x="378" y="0" on="1"/>
        <pt x="378" y="23" on="1"/>
        <pt x="436" y="26" on="0"/>
        <pt x="507" y="52" on="0"/>
        <pt x="535" y="81" on="1"/>
        <pt x="566" y="113" on="0"/>
        <pt x="589" y="211" on="0"/>
        <pt x="589" y="314" on="1"/>
      </contour>
    </TTGlyph>
    <TTGlyph name="Thorn" xMin="49" yMin="0" xMax="1161" yMax="1365">
      <contour>
        <pt x="475" y="1106" on="1"/>
        <pt x="649" y="1106" on="1"/>
        <pt x="808" y="1106" on="0"/>
        <pt x="958" y="1074" on="0"/>
        <pt x="1019" y="1027" on="1"/>
        <pt x="1161" y="918" on="0"/>
        <pt x="1161" y="734" on="1"/>
        <pt x="1161" y="555" on="0"/>
        <pt x="1017" y="469" on="1"/>
        <pt x="943" y="426" on="0"/>
        <pt x="835" y="417" on="1"/>
        <pt x="801" y="414" on="0"/>
        <pt x="671" y="414" on="1"/>
        <pt x="475" y="414" on="1"/>
        <pt x="475" y="314" on="1"/>
        <pt x="475" y="212" on="0"/>
        <pt x="498" y="113" on="0"/>
        <pt x="529" y="81" on="1"/>
        <pt x="556" y="53" on="0"/>
        <pt x="626" y="27" on="0"/>
        <pt x="683" y="23" on="1"/>
        <pt x="683" y="0" on="1"/>
        <pt x="49" y="0" on="1"/>
        <pt x="49" y="23" on="1"/>
        <pt x="106" y="27" on="0"/>
        <pt x="176" y="53" on="0"/>
        <pt x="203" y="81" on="1"/>
        <pt x="234" y="113" on="0"/>
        <pt x="257" y="211" on="0"/>
        <pt x="257" y="314" on="1"/>
        <pt x="257" y="1051" on="1"/>
        <pt x="257" y="1154" on="0"/>
        <pt x="234" y="1252" on="0"/>
        <pt x="203" y="1284" on="1"/>
        <pt x="176" y="1312" on="0"/>
        <pt x="105" y="1339" on="0"/>
        <pt x="49" y="1342" on="1"/>
        <pt x="49" y="1365" on="1"/>
        <pt x="685" y="1365" on="1"/>
        <pt x="685" y="1342" on="1"/>
        <pt x="557" y="1336" on="0"/>
        <pt x="506" y="1259" on="1"/>
        <pt x="475" y="1212" on="0"/>
      </contour>
      <contour>
        <pt x="475" y="1075" on="1"/>
        <pt x="475" y="445" on="1"/>
        <pt x="574" y="445" on="1"/>
        <pt x="673" y="445" on="0"/>
        <pt x="780" y="474" on="0"/>
        <pt x="823" y="513" on="1"/>
        <pt x="922" y="602" on="0"/>
        <pt x="922" y="746" on="1"/>
        <pt x="922" y="922" on="0"/>
        <pt x="811" y="1013" on="1"/>
        <pt x="750" y="1064" on="0"/>
        <pt x="665" y="1073" on="1"/>
        <pt x="642" y="1075" on="0"/>
        <pt x="559" y="1075" on="1"/>
      </contour>
    </TTGlyph>
    <TTGlyph name="U" xMin="35" yMin="-34" xMax="1506" yMax="1365">
      <contour>
        <pt x="674" y="1365" on="1"/>
        <pt x="674" y="1342" on="1"/>
        <pt x="617" y="1339" on="0"/>
        <pt x="545" y="1313" on="0"/>
        <pt x="518" y="1284" on="1"/>
        <pt x="485" y="1250" on="0"/>
        <pt x="464" y="1150" on="0"/>
        <pt x="464" y="1028" on="1"/>
        <pt x="464" y="462" on="1"/>
        <pt x="464" y="324" on="0"/>
        <pt x="485" y="201" on="0"/>
        <pt x="517" y="149" on="1"/>
        <pt x="565" y="70" on="0"/>
        <pt x="706" y="-1" on="0"/>
        <pt x="813" y="-1" on="1"/>
        <pt x="917" y="-1" on="0"/>
        <pt x="1106" y="62" on="0"/>
        <pt x="1169" y="118" on="1"/>
        <pt x="1208" y="153" on="0"/>
        <pt x="1245" y="235" on="0"/>
        <pt x="1251" y="298" on="1"/>
        <pt x="1255" y="339" on="0"/>
        <pt x="1255" y="492" on="1"/>
        <pt x="1255" y="1051" on="1"/>
        <pt x="1255" y="1154" on="0"/>
        <pt x="1232" y="1252" on="0"/>
        <pt x="1201" y="1284" on="1"/>
        <pt x="1173" y="1313" on="0"/>
        <pt x="1102" y="1339" on="0"/>
        <pt x="1045" y="1342" on="1"/>
        <pt x="1045" y="1365" on="1"/>
        <pt x="1506" y="1365" on="1"/>
        <pt x="1506" y="1342" on="1"/>
        <pt x="1449" y="1339" on="0"/>
        <pt x="1378" y="1313" on="0"/>
        <pt x="1350" y="1284" on="1"/>
        <pt x="1319" y="1252" on="0"/>
        <pt x="1296" y="1153" on="0"/>
        <pt x="1296" y="1051" on="1"/>
        <pt x="1296" y="420" on="1"/>
        <pt x="1296" y="280" on="0"/>
        <pt x="1253" y="147" on="0"/>
        <pt x="1189" y="92" on="1"/>
        <pt x="1043" y="-34" on="0"/>
        <pt x="772" y="-34" on="1"/>
        <pt x="489" y="-34" on="0"/>
        <pt x="355" y="85" on="1"/>
        <pt x="268" y="161" on="0"/>
        <pt x="251" y="285" on="1"/>
        <pt x="245" y="329" on="0"/>
        <pt x="245" y="444" on="1"/>
        <pt x="245" y="1051" on="1"/>
        <pt x="245" y="1154" on="0"/>
        <pt x="223" y="1252" on="0"/>
        <pt x="191" y="1284" on="1"/>
        <pt x="164" y="1313" on="0"/>
        <pt x="93" y="1339" on="0"/>
        <pt x="35" y="1342" on="1"/>
        <pt x="35" y="1365" on="1"/>
      </contour>
    </TTGlyph>
    <TTGlyph name="Uacute" xMin="35" yMin="-34" xMax="1506" yMax="1772">
      <component glyphName="U" x="0" y="0" flags="0x214"/>
      <component glyphName=".notdef#24" x="0" y="0" flags="0x14"/>
    </TTGlyph>
    <TTGlyph name="Ucircumflex" xMin="35" yMin="-34" xMax="1506" yMax="1768">
      <component glyphName="U" x="0" y="0" flags="0x214"/>
      <component glyphName=".notdef#26" x="0" y="0" flags="0x14"/>
    </TTGlyph>
    <TTGlyph name="Udieresis" xMin="35" yMin="-34" xMax="1506" yMax="1748">
      <component glyphName="U" x="0" y="0" flags="0x214"/>
      <component glyphName=".notdef#23" x="0" y="0" flags="0x14"/>
    </TTGlyph>
    <TTGlyph name="Ugrave" xMin="35" yMin="-34" xMax="1506" yMax="1772">
      <component glyphName="U" x="0" y="0" flags="0x214"/>
      <component glyphName=".notdef#25" x="0" y="0" flags="0x14"/>
    </TTGlyph>
    <TTGlyph name="V" xMin="-34" yMin="0" xMax="1422" yMax="1365">
      <contour>
        <pt x="-34" y="1365" on="1"/>
        <pt x="626" y="1365" on="1"/>
        <pt x="626" y="1342" on="1"/>
        <pt x="551" y="1335" on="0"/>
        <pt x="518" y="1319" on="1"/>
        <pt x="487" y="1304" on="0"/>
        <pt x="449" y="1241" on="0"/>
        <pt x="449" y="1204" on="1"/>
        <pt x="449" y="1178" on="0"/>
        <pt x="459" y="1138" on="0"/>
        <pt x="484" y="1071" on="1"/>
        <pt x="780" y="266" on="1"/>
        <pt x="1067" y="972" on="1"/>
        <pt x="1127" y="1121" on="0"/>
        <pt x="1127" y="1189" on="1"/>
        <pt x="1127" y="1227" on="0"/>
        <pt x="1103" y="1293" on="0"/>
        <pt x="1083" y="1311" on="1"/>
        <pt x="1063" y="1328" on="0"/>
        <pt x="1015" y="1342" on="0"/>
        <pt x="977" y="1342" on="1"/>
        <pt x="977" y="1365" on="1"/>
        <pt x="1422" y="1365" on="1"/>
        <pt x="1422" y="1342" on="1"/>
        <pt x="1367" y="1337" on="0"/>
        <pt x="1286" y="1293" on="0"/>
        <pt x="1249" y="1248" on="1"/>
        <pt x="1224" y="1216" on="0"/>
        <pt x="1169" y="1105" on="0"/>
        <pt x="1121" y="989" on="1"/>
        <pt x="711" y="0" on="1"/>
        <pt x="669" y="0" on="1"/>
        <pt x="271" y="1022" on="1"/>
        <pt x="193" y="1223" on="0"/>
        <pt x="146" y="1277" on="1"/>
        <pt x="116" y="1311" on="0"/>
        <pt x="29" y="1342" on="0"/>
        <pt x="-34" y="1342" on="1"/>
      </contour>
    </TTGlyph>
    <TTGlyph name="W" xMin="-34" yMin="0" xMax="2186" yMax="1365">
      <contour>
        <pt x="-34" y="1365" on="1"/>
        <pt x="595" y="1365" on="1"/>
        <pt x="595" y="1342" on="1"/>
        <pt x="507" y="1342" on="0"/>
        <pt x="475" y="1329" on="1"/>
        <pt x="448" y="1317" on="0"/>
        <pt x="414" y="1263" on="0"/>
        <pt x="414" y="1229" on="1"/>
        <pt x="414" y="1187" on="0"/>
        <pt x="446" y="1113" on="1"/>
        <pt x="472" y="1051" on="1"/>
        <pt x="783" y="291" on="1"/>
        <pt x="1000" y="946" on="1"/>
        <pt x="1042" y="1072" on="0"/>
        <pt x="1042" y="1134" on="1"/>
        <pt x="1042" y="1180" on="0"/>
        <pt x="1009" y="1267" on="0"/>
        <pt x="982" y="1294" on="1"/>
        <pt x="956" y="1320" on="0"/>
        <pt x="889" y="1342" on="0"/>
        <pt x="837" y="1342" on="1"/>
        <pt x="837" y="1365" on="1"/>
        <pt x="1480" y="1365" on="1"/>
        <pt x="1480" y="1342" on="1"/>
        <pt x="1421" y="1342" on="0"/>
        <pt x="1368" y="1334" on="0"/>
        <pt x="1345" y="1321" on="1"/>
        <pt x="1315" y="1303" on="0"/>
        <pt x="1278" y="1236" on="0"/>
        <pt x="1278" y="1197" on="1"/>
        <pt x="1278" y="1161" on="0"/>
        <pt x="1306" y="1072" on="1"/>
        <pt x="1552" y="279" on="1"/>
        <pt x="1827" y="954" on="1"/>
        <pt x="1891" y="1109" on="0"/>
        <pt x="1891" y="1194" on="1"/>
        <pt x="1891" y="1283" on="0"/>
        <pt x="1832" y="1320" on="1"/>
        <pt x="1796" y="1342" on="0"/>
        <pt x="1723" y="1342" on="1"/>
        <pt x="1723" y="1365" on="1"/>
        <pt x="2186" y="1365" on="1"/>
        <pt x="2186" y="1342" on="1"/>
        <pt x="2119" y="1335" on="0"/>
        <pt x="2050" y="1298" on="0"/>
        <pt x="2016" y="1249" on="1"/>
        <pt x="1966" y="1179" on="0"/>
        <pt x="1891" y="996" on="1"/>
        <pt x="1480" y="0" on="1"/>
        <pt x="1439" y="0" on="1"/>
        <pt x="1083" y="1065" on="1"/>
        <pt x="722" y="0" on="1"/>
        <pt x="677" y="0" on="1"/>
        <pt x="230" y="1076" on="1"/>
        <pt x="200" y="1149" on="1"/>
        <pt x="169" y="1223" on="0"/>
        <pt x="127" y="1289" on="0"/>
        <pt x="97" y="1308" on="1"/>
        <pt x="73" y="1324" on="0"/>
        <pt x="17" y="1338" on="0"/>
        <pt x="-34" y="1342" on="1"/>
      </contour>
    </TTGlyph>
    <TTGlyph name="X" xMin="0" yMin="0" xMax="1483" yMax="1365">
      <contour>
        <pt x="27" y="1365" on="1"/>
        <pt x="686" y="1365" on="1"/>
        <pt x="686" y="1342" on="1"/>
        <pt x="617" y="1342" on="0"/>
        <pt x="580" y="1330" on="1"/>
        <pt x="520" y="1311" on="0"/>
        <pt x="520" y="1258" on="1"/>
        <pt x="520" y="1203" on="0"/>
        <pt x="602" y="1084" on="1"/>
        <pt x="777" y="828" on="1"/>
        <pt x="930" y="1017" on="1"/>
        <pt x="1020" y="1128" on="0"/>
        <pt x="1074" y="1217" on="0"/>
        <pt x="1074" y="1255" on="1"/>
        <pt x="1074" y="1308" on="0"/>
        <pt x="1018" y="1328" on="1"/>
        <pt x="992" y="1338" on="0"/>
        <pt x="927" y="1342" on="1"/>
        <pt x="927" y="1365" on="1"/>
        <pt x="1386" y="1365" on="1"/>
        <pt x="1386" y="1342" on="1"/>
        <pt x="1310" y="1342" on="0"/>
        <pt x="1268" y="1322" on="1"/>
        <pt x="1203" y="1292" on="0"/>
        <pt x="1095" y="1156" on="1"/>
        <pt x="1019" y="1060" on="1"/>
        <pt x="802" y="791" on="1"/>
        <pt x="1146" y="280" on="1"/>
        <pt x="1237" y="144" on="0"/>
        <pt x="1311" y="83" on="1"/>
        <pt x="1349" y="52" on="0"/>
        <pt x="1422" y="26" on="0"/>
        <pt x="1483" y="23" on="1"/>
        <pt x="1483" y="0" on="1"/>
        <pt x="789" y="0" on="1"/>
        <pt x="789" y="23" on="1"/>
        <pt x="870" y="32" on="0"/>
        <pt x="907" y="51" on="1"/>
        <pt x="967" y="81" on="0"/>
        <pt x="967" y="135" on="1"/>
        <pt x="967" y="154" on="0"/>
        <pt x="943" y="204" on="0"/>
        <pt x="910" y="254" on="1"/>
        <pt x="665" y="624" on="1"/>
        <pt x="427" y="334" on="1"/>
        <pt x="372" y="267" on="0"/>
        <pt x="325" y="178" on="0"/>
        <pt x="325" y="140" on="1"/>
        <pt x="325" y="86" on="0"/>
        <pt x="406" y="27" on="0"/>
        <pt x="486" y="23" on="1"/>
        <pt x="486" y="0" on="1"/>
        <pt x="0" y="0" on="1"/>
        <pt x="0" y="23" on="1"/>
        <pt x="55" y="33" on="0"/>
        <pt x="128" y="70" on="0"/>
        <pt x="177" y="116" on="1"/>
        <pt x="249" y="182" on="0"/>
        <pt x="380" y="341" on="1"/>
        <pt x="640" y="659" on="1"/>
        <pt x="330" y="1124" on="1"/>
        <pt x="277" y="1201" on="1"/>
        <pt x="219" y="1286" on="0"/>
        <pt x="179" y="1311" on="1"/>
        <pt x="143" y="1333" on="0"/>
        <pt x="57" y="1340" on="1"/>
        <pt x="47" y="1340" on="0"/>
        <pt x="27" y="1342" on="1"/>
      </contour>
    </TTGlyph>
    <TTGlyph name="Y" xMin="-34" yMin="0" xMax="1379" yMax="1365">
      <contour>
        <pt x="375" y="0" on="1"/>
        <pt x="375" y="23" on="1"/>
        <pt x="432" y="26" on="0"/>
        <pt x="504" y="52" on="0"/>
        <pt x="532" y="81" on="1"/>
        <pt x="563" y="113" on="0"/>
        <pt x="585" y="211" on="0"/>
        <pt x="585" y="314" on="1"/>
        <pt x="586" y="509" on="1"/>
        <pt x="586" y="551" on="0"/>
        <pt x="569" y="602" on="1"/>
        <pt x="550" y="661" on="0"/>
        <pt x="491" y="750" on="1"/>
        <pt x="232" y="1139" on="1"/>
        <pt x="186" y="1209" on="1"/>
        <pt x="135" y="1285" on="0"/>
        <pt x="86" y="1313" on="1"/>
        <pt x="61" y="1328" on="0"/>
        <pt x="11" y="1340" on="0"/>
        <pt x="-34" y="1342" on="1"/>
        <pt x="-34" y="1365" on="1"/>
        <pt x="618" y="1365" on="1"/>
        <pt x="618" y="1342" on="1"/>
        <pt x="535" y="1337" on="0"/>
        <pt x="512" y="1327" on="1"/>
        <pt x="456" y="1303" on="0"/>
        <pt x="456" y="1240" on="1"/>
        <pt x="456" y="1217" on="0"/>
        <pt x="481" y="1159" on="0"/>
        <pt x="509" y="1115" on="1"/>
        <pt x="780" y="691" on="1"/>
        <pt x="1012" y="1053" on="1"/>
        <pt x="1038" y="1094" on="1"/>
        <pt x="1075" y="1152" on="0"/>
        <pt x="1075" y="1208" on="1"/>
        <pt x="1075" y="1272" on="0"/>
        <pt x="993" y="1342" on="0"/>
        <pt x="919" y="1342" on="1"/>
        <pt x="919" y="1365" on="1"/>
        <pt x="1379" y="1365" on="1"/>
        <pt x="1379" y="1342" on="1"/>
        <pt x="1327" y="1336" on="0"/>
        <pt x="1271" y="1313" on="0"/>
        <pt x="1242" y="1287" on="1"/>
        <pt x="1174" y="1223" on="0"/>
        <pt x="1091" y="1096" on="1"/>
        <pt x="863" y="748" on="1"/>
        <pt x="822" y="686" on="0"/>
        <pt x="804" y="628" on="0"/>
        <pt x="804" y="559" on="1"/>
        <pt x="804" y="314" on="1"/>
        <pt x="804" y="207" on="0"/>
        <pt x="825" y="114" on="0"/>
        <pt x="857" y="81" on="1"/>
        <pt x="912" y="23" on="0"/>
        <pt x="1014" y="23" on="1"/>
        <pt x="1014" y="0" on="1"/>
      </contour>
    </TTGlyph>
    <TTGlyph name="Yacute" xMin="-34" yMin="0" xMax="1379" yMax="1772">
      <component glyphName="Y" x="0" y="0" flags="0x214"/>
      <component glyphName=".notdef#24" x="-3" y="0" flags="0x14"/>
    </TTGlyph>
    <TTGlyph name="Ydieresis" xMin="-34" yMin="0" xMax="1379" yMax="1748">
      <component glyphName="Y" x="0" y="0" flags="0x214"/>
      <component glyphName=".notdef#27" x="0" y="0" flags="0x14"/>
    </TTGlyph>
    <TTGlyph name="Z" xMin="20" yMin="0" xMax="1234" yMax="1365">
      <contour>
        <pt x="73" y="1365" on="1"/>
        <pt x="1144" y="1365" on="1"/>
        <pt x="1144" y="1342" on="1"/>
        <pt x="279" y="31" on="1"/>
        <pt x="599" y="31" on="1"/>
        <pt x="879" y="31" on="0"/>
        <pt x="1007" y="111" on="1"/>
        <pt x="1110" y="174" on="0"/>
        <pt x="1172" y="304" on="1"/>
        <pt x="1198" y="359" on="0"/>
        <pt x="1211" y="431" on="1"/>
        <pt x="1234" y="430" on="1"/>
        <pt x="1203" y="0" on="1"/>
        <pt x="20" y="0" on="1"/>
        <pt x="20" y="23" on="1"/>
        <pt x="893" y="1334" on="1"/>
        <pt x="607" y="1334" on="1"/>
        <pt x="452" y="1334" on="0"/>
        <pt x="273" y="1289" on="0"/>
        <pt x="202" y="1233" on="1"/>
        <pt x="144" y="1187" on="0"/>
        <pt x="83" y="1076" on="0"/>
        <pt x="73" y="998" on="1"/>
        <pt x="50" y="1000" on="1"/>
      </contour>
    </TTGlyph>
    <TTGlyph name="a" xMin="61" yMin="-18" xMax="899" yMax="865">
      <contour>
        <pt x="882" y="97" on="1"/>
        <pt x="899" y="87" on="1"/>
        <pt x="863" y="-18" on="0"/>
        <pt x="734" y="-18" on="1"/>
        <pt x="663" y="-18" on="0"/>
        <pt x="616" y="17" on="1"/>
        <pt x="585" y="40" on="0"/>
        <pt x="552" y="97" on="1"/>
        <pt x="485" y="37" on="0"/>
        <pt x="451" y="18" on="1"/>
        <pt x="386" y="-18" on="0"/>
        <pt x="300" y="-18" on="1"/>
        <pt x="190" y="-18" on="0"/>
        <pt x="61" y="88" on="0"/>
        <pt x="61" y="178" on="1"/>
        <pt x="61" y="261" on="0"/>
        <pt x="114" y="317" on="1"/>
        <pt x="144" y="348" on="0"/>
        <pt x="222" y="385" on="0"/>
        <pt x="296" y="404" on="1"/>
        <pt x="383" y="426" on="0"/>
        <pt x="466" y="456" on="0"/>
        <pt x="494" y="477" on="1"/>
        <pt x="526" y="500" on="0"/>
        <pt x="550" y="562" on="0"/>
        <pt x="550" y="617" on="1"/>
        <pt x="550" y="734" on="0"/>
        <pt x="506" y="788" on="1"/>
        <pt x="486" y="813" on="0"/>
        <pt x="423" y="843" on="0"/>
        <pt x="389" y="843" on="1"/>
        <pt x="348" y="843" on="0"/>
        <pt x="284" y="801" on="0"/>
        <pt x="268" y="764" on="1"/>
        <pt x="243" y="706" on="1"/>
        <pt x="223" y="659" on="0"/>
        <pt x="171" y="659" on="1"/>
        <pt x="137" y="659" on="0"/>
        <pt x="91" y="704" on="0"/>
        <pt x="91" y="738" on="1"/>
        <pt x="91" y="789" on="0"/>
        <pt x="163" y="824" on="1"/>
        <pt x="202" y="842" on="0"/>
        <pt x="317" y="865" on="0"/>
        <pt x="372" y="865" on="1"/>
        <pt x="434" y="865" on="0"/>
        <pt x="568" y="833" on="0"/>
        <pt x="613" y="808" on="1"/>
        <pt x="678" y="771" on="0"/>
        <pt x="694" y="712" on="1"/>
        <pt x="702" y="682" on="0"/>
        <pt x="702" y="611" on="1"/>
        <pt x="702" y="241" on="1"/>
        <pt x="702" y="147" on="0"/>
        <pt x="710" y="113" on="1"/>
        <pt x="727" y="42" on="0"/>
        <pt x="792" y="42" on="1"/>
        <pt x="823" y="42" on="0"/>
        <pt x="858" y="64" on="0"/>
      </contour>
      <contour>
        <pt x="552" y="491" on="1"/>
        <pt x="498" y="446" on="0"/>
        <pt x="433" y="412" on="1"/>
        <pt x="360" y="373" on="0"/>
        <pt x="304" y="333" on="0"/>
        <pt x="281" y="305" on="1"/>
        <pt x="234" y="247" on="0"/>
        <pt x="234" y="170" on="1"/>
        <pt x="234" y="104" on="0"/>
        <pt x="307" y="18" on="0"/>
        <pt x="363" y="18" on="1"/>
        <pt x="412" y="18" on="0"/>
        <pt x="499" y="79" on="0"/>
        <pt x="521" y="130" on="1"/>
        <pt x="552" y="197" on="0"/>
        <pt x="552" y="324" on="1"/>
      </contour>
    </TTGlyph>
    <TTGlyph name="aacute" xMin="61" yMin="-18" xMax="899" yMax="1273">
      <component glyphName="a" x="0" y="0" flags="0x214"/>
      <component glyphName="acute" x="-75" y="0" flags="0x14"/>
    </TTGlyph>
    <TTGlyph name="acircumflex" xMin="61" yMin="-18" xMax="899" yMax="1303">
      <component glyphName="a" x="0" y="0" flags="0x214"/>
      <component glyphName="circumflex" x="-109" y="0" flags="0x14"/>
    </TTGlyph>
    <TTGlyph name="acute" xMin="396" yMin="1000" xMax="765" yMax="1273">
      <contour>
        <pt x="396" y="1000" on="1"/>
        <pt x="579" y="1273" on="1"/>
        <pt x="765" y="1273" on="1"/>
        <pt x="445" y="1000" on="1"/>
      </contour>
    </TTGlyph>
    <TTGlyph name="adieresis" xMin="61" yMin="-18" xMax="899" yMax="1240">
      <component glyphName="a" x="0" y="0" flags="0x214"/>
      <component glyphName="dieresis" x="-103" y="0" flags="0x14"/>
    </TTGlyph>
    <TTGlyph name="ae" xMin="61" yMin="-18" xMax="1322" yMax="865">
      <contour>
        <pt x="648" y="112" on="1"/>
        <pt x="561" y="46" on="0"/>
        <pt x="514" y="25" on="1"/>
        <pt x="421" y="-18" on="0"/>
        <pt x="309" y="-18" on="1"/>
        <pt x="193" y="-18" on="0"/>
        <pt x="61" y="86" on="0"/>
        <pt x="61" y="178" on="1"/>
        <pt x="61" y="261" on="0"/>
        <pt x="114" y="317" on="1"/>
        <pt x="144" y="348" on="0"/>
        <pt x="222" y="385" on="0"/>
        <pt x="296" y="404" on="1"/>
        <pt x="383" y="426" on="0"/>
        <pt x="466" y="456" on="0"/>
        <pt x="494" y="477" on="1"/>
        <pt x="526" y="500" on="0"/>
        <pt x="550" y="561" on="0"/>
        <pt x="550" y="617" on="1"/>
        <pt x="550" y="734" on="0"/>
        <pt x="506" y="788" on="1"/>
        <pt x="486" y="813" on="0"/>
        <pt x="423" y="843" on="0"/>
        <pt x="389" y="843" on="1"/>
        <pt x="348" y="843" on="0"/>
        <pt x="284" y="801" on="0"/>
        <pt x="268" y="764" on="1"/>
        <pt x="243" y="706" on="1"/>
        <pt x="223" y="659" on="0"/>
        <pt x="171" y="659" on="1"/>
        <pt x="137" y="659" on="0"/>
        <pt x="91" y="704" on="0"/>
        <pt x="91" y="738" on="1"/>
        <pt x="91" y="789" on="0"/>
        <pt x="163" y="824" on="1"/>
        <pt x="202" y="842" on="0"/>
        <pt x="317" y="865" on="0"/>
        <pt x="373" y="865" on="1"/>
        <pt x="472" y="865" on="0"/>
        <pt x="566" y="830" on="1"/>
        <pt x="610" y="814" on="0"/>
        <pt x="656" y="783" on="0"/>
        <pt x="678" y="754" on="1"/>
        <pt x="730" y="806" on="0"/>
        <pt x="885" y="865" on="0"/>
        <pt x="967" y="865" on="1"/>
        <pt x="1047" y="865" on="0"/>
        <pt x="1182" y="807" on="0"/>
        <pt x="1229" y="753" on="1"/>
        <pt x="1302" y="670" on="0"/>
        <pt x="1302" y="544" on="1"/>
        <pt x="715" y="544" on="1"/>
        <pt x="711" y="495" on="0"/>
        <pt x="711" y="473" on="1"/>
        <pt x="711" y="386" on="0"/>
        <pt x="763" y="220" on="0"/>
        <pt x="806" y="165" on="1"/>
        <pt x="851" y="109" on="0"/>
        <pt x="985" y="45" on="0"/>
        <pt x="1057" y="45" on="1"/>
        <pt x="1111" y="45" on="0"/>
        <pt x="1208" y="81" on="0"/>
        <pt x="1240" y="113" on="1"/>
        <pt x="1276" y="148" on="0"/>
        <pt x="1302" y="225" on="1"/>
        <pt x="1322" y="218" on="1"/>
        <pt x="1269" y="-18" on="0"/>
        <pt x="981" y="-18" on="1"/>
        <pt x="758" y="-18" on="0"/>
      </contour>
      <contour>
        <pt x="1154" y="582" on="1"/>
        <pt x="1146" y="683" on="0"/>
        <pt x="1116" y="737" on="1"/>
        <pt x="1089" y="786" on="0"/>
        <pt x="999" y="843" on="0"/>
        <pt x="948" y="843" on="1"/>
        <pt x="862" y="843" on="0"/>
        <pt x="733" y="694" on="0"/>
        <pt x="721" y="582" on="1"/>
      </contour>
      <contour>
        <pt x="552" y="491" on="1"/>
        <pt x="498" y="446" on="0"/>
        <pt x="433" y="412" on="1"/>
        <pt x="360" y="373" on="0"/>
        <pt x="304" y="333" on="0"/>
        <pt x="281" y="305" on="1"/>
        <pt x="234" y="246" on="0"/>
        <pt x="234" y="170" on="1"/>
        <pt x="234" y="103" on="0"/>
        <pt x="307" y="18" on="0"/>
        <pt x="363" y="18" on="1"/>
        <pt x="412" y="18" on="0"/>
        <pt x="499" y="79" on="0"/>
        <pt x="521" y="130" on="1"/>
        <pt x="552" y="197" on="0"/>
        <pt x="552" y="324" on="1"/>
      </contour>
    </TTGlyph>
    <TTGlyph name="agrave" xMin="61" yMin="-18" xMax="899" yMax="1273">
      <component glyphName="a" x="0" y="0" flags="0x214"/>
      <component glyphName="grave" x="-103" y="0" flags="0x14"/>
    </TTGlyph>
    <TTGlyph name="ampersand" xMin="21" yMin="-34" xMax="1357" yMax="1388">
      <contour>
        <pt x="501" y="831" on="1"/>
        <pt x="835" y="367" on="1"/>
        <pt x="905" y="498" on="0"/>
        <pt x="961" y="638" on="0"/>
        <pt x="961" y="687" on="1"/>
        <pt x="961" y="784" on="0"/>
        <pt x="822" y="804" on="1"/>
        <pt x="822" y="824" on="1"/>
        <pt x="1211" y="824" on="1"/>
        <pt x="1211" y="804" on="1"/>
        <pt x="1165" y="800" on="0"/>
        <pt x="1107" y="777" on="0"/>
        <pt x="1081" y="753" on="1"/>
        <pt x="1030" y="705" on="0"/>
        <pt x="955" y="549" on="1"/>
        <pt x="924" y="485" on="1"/>
        <pt x="899" y="431" on="0"/>
        <pt x="851" y="344" on="1"/>
        <pt x="889" y="294" on="0"/>
        <pt x="992" y="179" on="0"/>
        <pt x="1032" y="142" on="1"/>
        <pt x="1089" y="90" on="0"/>
        <pt x="1174" y="43" on="0"/>
        <pt x="1214" y="43" on="1"/>
        <pt x="1257" y="43" on="0"/>
        <pt x="1315" y="91" on="0"/>
        <pt x="1337" y="145" on="1"/>
        <pt x="1357" y="136" on="1"/>
        <pt x="1307" y="-34" on="0"/>
        <pt x="1142" y="-34" on="1"/>
        <pt x="1087" y="-34" on="0"/>
        <pt x="967" y="8" on="0"/>
        <pt x="918" y="45" on="1"/>
        <pt x="843" y="101" on="0"/>
        <pt x="763" y="196" on="1"/>
        <pt x="719" y="132" on="0"/>
        <pt x="691" y="100" on="1"/>
        <pt x="633" y="35" on="0"/>
        <pt x="478" y="-34" on="0"/>
        <pt x="390" y="-34" on="1"/>
        <pt x="309" y="-34" on="0"/>
        <pt x="158" y="26" on="0"/>
        <pt x="110" y="78" on="1"/>
        <pt x="21" y="173" on="0"/>
        <pt x="21" y="318" on="1"/>
        <pt x="21" y="461" on="0"/>
        <pt x="107" y="578" on="1"/>
        <pt x="141" y="624" on="0"/>
        <pt x="236" y="705" on="0"/>
        <pt x="319" y="759" on="1"/>
        <pt x="335" y="770" on="1"/>
        <pt x="273" y="858" on="0"/>
        <pt x="247" y="909" on="1"/>
        <pt x="186" y="1027" on="0"/>
        <pt x="186" y="1120" on="1"/>
        <pt x="186" y="1178" on="0"/>
        <pt x="214" y="1235" on="1"/>
        <pt x="249" y="1310" on="0"/>
        <pt x="385" y="1388" on="0"/>
        <pt x="480" y="1388" on="1"/>
        <pt x="604" y="1388" on="0"/>
        <pt x="764" y="1253" on="0"/>
        <pt x="764" y="1147" on="1"/>
        <pt x="764" y="1069" on="0"/>
        <pt x="682" y="948" on="0"/>
        <pt x="590" y="890" on="1"/>
        <pt x="525" y="848" on="0"/>
      </contour>
      <contour>
        <pt x="357" y="742" on="1"/>
        <pt x="274" y="691" on="0"/>
        <pt x="182" y="509" on="0"/>
        <pt x="182" y="397" on="1"/>
        <pt x="182" y="320" on="0"/>
        <pt x="230" y="176" on="0"/>
        <pt x="271" y="126" on="1"/>
        <pt x="309" y="81" on="0"/>
        <pt x="416" y="31" on="0"/>
        <pt x="475" y="31" on="1"/>
        <pt x="568" y="31" on="0"/>
        <pt x="641" y="89" on="1"/>
        <pt x="668" y="111" on="0"/>
        <pt x="712" y="165" on="0"/>
        <pt x="745" y="217" on="1"/>
      </contour>
      <contour>
        <pt x="482" y="853" on="1"/>
        <pt x="529" y="890" on="0"/>
        <pt x="576" y="946" on="0"/>
        <pt x="594" y="985" on="1"/>
        <pt x="629" y="1059" on="0"/>
        <pt x="629" y="1144" on="1"/>
        <pt x="629" y="1244" on="0"/>
        <pt x="533" y="1362" on="0"/>
        <pt x="452" y="1362" on="1"/>
        <pt x="382" y="1362" on="0"/>
        <pt x="296" y="1272" on="0"/>
        <pt x="296" y="1200" on="1"/>
        <pt x="296" y="1157" on="0"/>
        <pt x="331" y="1071" on="0"/>
        <pt x="380" y="996" on="1"/>
        <pt x="427" y="924" on="0"/>
      </contour>
    </TTGlyph>
    <TTGlyph name="apple" xMin="67" yMin="-57" xMax="1316" yMax="1416">
      <contour>
        <pt x="985" y="1416" on="1"/>
        <pt x="985" y="1395" on="1"/>
        <pt x="985" y="1284" on="0"/>
        <pt x="920" y="1195" on="1"/>
        <pt x="869" y="1125" on="0"/>
        <pt x="786" y="1083" on="1"/>
        <pt x="758" y="1069" on="0"/>
        <pt x="720" y="1061" on="0"/>
        <pt x="681" y="1061" on="1"/>
        <pt x="681" y="1192" on="0"/>
        <pt x="750" y="1283" on="1"/>
        <pt x="791" y="1339" on="0"/>
        <pt x="911" y="1406" on="0"/>
      </contour>
      <contour>
        <pt x="1278" y="935" on="1"/>
        <pt x="1189" y="867" on="0"/>
        <pt x="1113" y="736" on="0"/>
        <pt x="1113" y="651" on="1"/>
        <pt x="1113" y="522" on="0"/>
        <pt x="1200" y="424" on="1"/>
        <pt x="1226" y="396" on="0"/>
        <pt x="1274" y="363" on="0"/>
        <pt x="1316" y="345" on="1"/>
        <pt x="1279" y="255" on="0"/>
        <pt x="1218" y="142" on="0"/>
        <pt x="1177" y="88" on="1"/>
        <pt x="1067" y="-54" on="0"/>
        <pt x="971" y="-54" on="1"/>
        <pt x="930" y="-54" on="0"/>
        <pt x="887" y="-37" on="1"/>
        <pt x="804" y="-1" on="1"/>
        <pt x="776" y="10" on="0"/>
        <pt x="708" y="5" on="1"/>
        <pt x="644" y="0" on="0"/>
        <pt x="631" y="-5" on="1"/>
        <pt x="544" y="-40" on="1"/>
        <pt x="502" y="-57" on="0"/>
        <pt x="466" y="-57" on="1"/>
        <pt x="367" y="-57" on="0"/>
        <pt x="262" y="78" on="1"/>
        <pt x="178" y="186" on="0"/>
        <pt x="122" y="341" on="1"/>
        <pt x="67" y="490" on="0"/>
        <pt x="67" y="629" on="1"/>
        <pt x="67" y="772" on="0"/>
        <pt x="196" y="1004" on="0"/>
        <pt x="300" y="1048" on="1"/>
        <pt x="367" y="1077" on="0"/>
        <pt x="450" y="1077" on="1"/>
        <pt x="516" y="1077" on="0"/>
        <pt x="609" y="1041" on="1"/>
        <pt x="676" y="1015" on="0"/>
        <pt x="705" y="1015" on="1"/>
        <pt x="739" y="1015" on="0"/>
        <pt x="794" y="1036" on="1"/>
        <pt x="873" y="1066" on="0"/>
        <pt x="937" y="1081" on="0"/>
        <pt x="983" y="1081" on="1"/>
        <pt x="1091" y="1081" on="0"/>
        <pt x="1181" y="1027" on="1"/>
        <pt x="1233" y="996" on="0"/>
      </contour>
    </TTGlyph>
    <TTGlyph name="approxequal" xMin="46" yMin="381" xMax="961" yMax="947">
      <contour>
        <pt x="927" y="947" on="1"/>
        <pt x="961" y="929" on="1"/>
        <pt x="914" y="856" on="0"/>
        <pt x="844" y="801" on="1"/>
        <pt x="756" y="731" on="0"/>
        <pt x="665" y="731" on="1"/>
        <pt x="618" y="731" on="0"/>
        <pt x="530" y="759" on="1"/>
        <pt x="415" y="796" on="0"/>
        <pt x="318" y="818" on="0"/>
        <pt x="274" y="818" on="1"/>
        <pt x="223" y="818" on="0"/>
        <pt x="182" y="795" on="1"/>
        <pt x="152" y="779" on="0"/>
        <pt x="98" y="720" on="1"/>
        <pt x="92" y="713" on="0"/>
        <pt x="80" y="700" on="1"/>
        <pt x="46" y="719" on="1"/>
        <pt x="184" y="919" on="0"/>
        <pt x="347" y="919" on="1"/>
        <pt x="408" y="919" on="0"/>
        <pt x="543" y="874" on="1"/>
        <pt x="660" y="837" on="0"/>
        <pt x="716" y="837" on="1"/>
        <pt x="773" y="837" on="0"/>
        <pt x="882" y="894" on="0"/>
      </contour>
      <contour>
        <pt x="927" y="628" on="1"/>
        <pt x="961" y="610" on="1"/>
        <pt x="915" y="537" on="0"/>
        <pt x="844" y="482" on="1"/>
        <pt x="756" y="412" on="0"/>
        <pt x="665" y="412" on="1"/>
        <pt x="618" y="412" on="0"/>
        <pt x="530" y="440" on="1"/>
        <pt x="415" y="476" on="0"/>
        <pt x="318" y="498" on="0"/>
        <pt x="274" y="498" on="1"/>
        <pt x="223" y="498" on="0"/>
        <pt x="182" y="476" on="1"/>
        <pt x="152" y="460" on="0"/>
        <pt x="98" y="401" on="1"/>
        <pt x="92" y="394" on="0"/>
        <pt x="80" y="381" on="1"/>
        <pt x="46" y="400" on="1"/>
        <pt x="184" y="599" on="0"/>
        <pt x="347" y="599" on="1"/>
        <pt x="408" y="599" on="0"/>
        <pt x="543" y="555" on="1"/>
        <pt x="659" y="517" on="0"/>
        <pt x="719" y="517" on="1"/>
        <pt x="774" y="517" on="0"/>
        <pt x="883" y="575" on="0"/>
      </contour>
    </TTGlyph>
    <TTGlyph name="aring" xMin="61" yMin="-18" xMax="899" yMax="1313">
      <component glyphName="a" x="0" y="0" flags="0x214"/>
      <component glyphName="ring" x="-103" y="0" flags="0x14"/>
    </TTGlyph>
    <TTGlyph name="asciicircum" xMin="-51" yMin="585" xMax="1075" yMax="1434">
      <contour>
        <pt x="1075" y="585" on="1"/>
        <pt x="996" y="585" on="1"/>
        <pt x="583" y="1220" on="1"/>
        <pt x="159" y="585" on="1"/>
        <pt x="-51" y="585" on="1"/>
        <pt x="517" y="1434" on="1"/>
        <pt x="530" y="1434" on="1"/>
      </contour>
    </TTGlyph>
    <TTGlyph name="asciitilde" xMin="253" yMin="1255" xMax="1112" yMax="1502">
      <contour>
        <pt x="1082" y="1502" on="1"/>
        <pt x="1112" y="1483" on="1"/>
        <pt x="1063" y="1396" on="0"/>
        <pt x="908" y="1286" on="0"/>
        <pt x="833" y="1286" on="1"/>
        <pt x="769" y="1295" on="1"/>
        <pt x="817" y="1290" on="0"/>
        <pt x="833" y="1286" on="1"/>
        <pt x="744" y="1302" on="1"/>
        <pt x="726" y="1308" on="0"/>
        <pt x="707" y="1314" on="1"/>
        <pt x="644" y="1334" on="1"/>
        <pt x="574" y="1357" on="0"/>
        <pt x="504" y="1372" on="0"/>
        <pt x="467" y="1372" on="1"/>
        <pt x="418" y="1372" on="0"/>
        <pt x="349" y="1332" on="0"/>
        <pt x="300" y="1275" on="1"/>
        <pt x="283" y="1255" on="1"/>
        <pt x="253" y="1274" on="1"/>
        <pt x="294" y="1341" on="0"/>
        <pt x="352" y="1396" on="1"/>
        <pt x="391" y="1433" on="0"/>
        <pt x="487" y="1473" on="0"/>
        <pt x="536" y="1473" on="1"/>
        <pt x="592" y="1473" on="0"/>
        <pt x="720" y="1429" on="1"/>
        <pt x="830" y="1391" on="0"/>
        <pt x="881" y="1391" on="1"/>
        <pt x="993" y="1391" on="0"/>
      </contour>
    </TTGlyph>
    <TTGlyph name="asterisk" xMin="255" yMin="905" xMax="751" yMax="1383">
      <contour>
        <pt x="504" y="1383" on="1"/>
        <pt x="529" y="1383" on="0"/>
        <pt x="559" y="1361" on="0"/>
        <pt x="559" y="1343" on="1"/>
        <pt x="559" y="1321" on="0"/>
        <pt x="549" y="1283" on="1"/>
        <pt x="532" y="1223" on="1"/>
        <pt x="522" y="1187" on="0"/>
        <pt x="523" y="1175" on="1"/>
        <pt x="523" y="1159" on="0"/>
        <pt x="535" y="1158" on="1"/>
        <pt x="540" y="1158" on="0"/>
        <pt x="602" y="1195" on="0"/>
        <pt x="637" y="1219" on="1"/>
        <pt x="678" y="1247" on="0"/>
        <pt x="703" y="1247" on="1"/>
        <pt x="723" y="1247" on="0"/>
        <pt x="751" y="1206" on="0"/>
        <pt x="751" y="1178" on="1"/>
        <pt x="751" y="1132" on="0"/>
        <pt x="665" y="1132" on="1"/>
        <pt x="603" y="1129" on="1"/>
        <pt x="542" y="1129" on="0"/>
        <pt x="541" y="1110" on="1"/>
        <pt x="540" y="1098" on="0"/>
        <pt x="631" y="1028" on="1"/>
        <pt x="681" y="990" on="0"/>
        <pt x="681" y="968" on="1"/>
        <pt x="681" y="947" on="0"/>
        <pt x="639" y="905" on="0"/>
        <pt x="618" y="905" on="1"/>
        <pt x="598" y="905" on="0"/>
        <pt x="572" y="934" on="0"/>
        <pt x="557" y="975" on="1"/>
        <pt x="536" y="1033" on="1"/>
        <pt x="516" y="1087" on="0"/>
        <pt x="503" y="1087" on="1"/>
        <pt x="490" y="1087" on="0"/>
        <pt x="470" y="1033" on="1"/>
        <pt x="448" y="975" on="1"/>
        <pt x="434" y="935" on="0"/>
        <pt x="409" y="905" on="0"/>
        <pt x="391" y="905" on="1"/>
        <pt x="369" y="905" on="0"/>
        <pt x="325" y="946" on="0"/>
        <pt x="325" y="967" on="1"/>
        <pt x="325" y="990" on="0"/>
        <pt x="375" y="1028" on="1"/>
        <pt x="465" y="1097" on="0"/>
        <pt x="465" y="1110" on="1"/>
        <pt x="466" y="1118" on="0"/>
        <pt x="431" y="1129" on="0"/>
        <pt x="403" y="1129" on="1"/>
        <pt x="341" y="1132" on="1"/>
        <pt x="255" y="1132" on="0"/>
        <pt x="255" y="1180" on="1"/>
        <pt x="255" y="1207" on="0"/>
        <pt x="283" y="1248" on="0"/>
        <pt x="302" y="1248" on="1"/>
        <pt x="328" y="1248" on="0"/>
        <pt x="369" y="1219" on="1"/>
        <pt x="408" y="1192" on="0"/>
        <pt x="421" y="1184" on="1"/>
        <pt x="463" y="1161" on="1"/>
        <pt x="470" y="1158" on="1"/>
        <pt x="483" y="1158" on="0"/>
        <pt x="483" y="1180" on="1"/>
        <pt x="483" y="1190" on="0"/>
        <pt x="474" y="1223" on="1"/>
        <pt x="457" y="1283" on="1"/>
        <pt x="447" y="1320" on="0"/>
        <pt x="447" y="1342" on="1"/>
        <pt x="447" y="1360" on="0"/>
        <pt x="478" y="1383" on="0"/>
      </contour>
    </TTGlyph>
    <TTGlyph name="at" xMin="96" yMin="-34" xMax="1432" yMax="1399">
      <contour>
        <pt x="1229" y="170" on="1"/>
        <pt x="1260" y="124" on="1"/>
        <pt x="1206" y="77" on="0"/>
        <pt x="1147" y="48" on="1"/>
        <pt x="1068" y="9" on="0"/>
        <pt x="889" y="-34" on="0"/>
        <pt x="805" y="-34" on="1"/>
        <pt x="681" y="-34" on="0"/>
        <pt x="563" y="10" on="1"/>
        <pt x="350" y="88" on="0"/>
        <pt x="96" y="455" on="0"/>
        <pt x="96" y="683" on="1"/>
        <pt x="96" y="844" on="0"/>
        <pt x="229" y="1132" on="0"/>
        <pt x="351" y="1233" on="1"/>
        <pt x="446" y="1313" on="0"/>
        <pt x="682" y="1399" on="0"/>
        <pt x="803" y="1399" on="1"/>
        <pt x="939" y="1399" on="0"/>
        <pt x="1194" y="1291" on="0"/>
        <pt x="1281" y="1197" on="1"/>
        <pt x="1354" y="1116" on="0"/>
        <pt x="1432" y="912" on="0"/>
        <pt x="1432" y="800" on="1"/>
        <pt x="1432" y="674" on="0"/>
        <pt x="1335" y="460" on="0"/>
        <pt x="1245" y="390" on="1"/>
        <pt x="1183" y="342" on="0"/>
        <pt x="1034" y="290" on="0"/>
        <pt x="960" y="290" on="1"/>
        <pt x="827" y="290" on="0"/>
        <pt x="827" y="399" on="1"/>
        <pt x="827" y="434" on="0"/>
        <pt x="843" y="498" on="1"/>
        <pt x="835" y="501" on="1"/>
        <pt x="780" y="399" on="0"/>
        <pt x="646" y="293" on="0"/>
        <pt x="571" y="293" on="1"/>
        <pt x="492" y="293" on="0"/>
        <pt x="438" y="349" on="1"/>
        <pt x="382" y="405" on="0"/>
        <pt x="382" y="511" on="1"/>
        <pt x="382" y="613" on="0"/>
        <pt x="484" y="835" on="0"/>
        <pt x="573" y="928" on="1"/>
        <pt x="639" y="996" on="0"/>
        <pt x="781" y="1072" on="0"/>
        <pt x="844" y="1072" on="1"/>
        <pt x="891" y="1072" on="0"/>
        <pt x="956" y="1026" on="0"/>
        <pt x="972" y="983" on="1"/>
        <pt x="983" y="981" on="1"/>
        <pt x="1010" y="1064" on="1"/>
        <pt x="1119" y="1063" on="1"/>
        <pt x="991" y="632" on="1"/>
        <pt x="972" y="568" on="0"/>
        <pt x="943" y="421" on="0"/>
        <pt x="943" y="388" on="1"/>
        <pt x="943" y="364" on="0"/>
        <pt x="970" y="344" on="0"/>
        <pt x="1002" y="344" on="1"/>
        <pt x="1059" y="344" on="0"/>
        <pt x="1186" y="408" on="0"/>
        <pt x="1238" y="463" on="1"/>
        <pt x="1364" y="597" on="0"/>
        <pt x="1364" y="789" on="1"/>
        <pt x="1364" y="921" on="0"/>
        <pt x="1268" y="1126" on="0"/>
        <pt x="1168" y="1208" on="1"/>
        <pt x="1010" y="1338" on="0"/>
        <pt x="804" y="1338" on="1"/>
        <pt x="682" y="1338" on="0"/>
        <pt x="568" y="1291" on="1"/>
        <pt x="383" y="1216" on="0"/>
        <pt x="164" y="888" on="0"/>
        <pt x="164" y="685" on="1"/>
        <pt x="164" y="529" on="0"/>
        <pt x="292" y="260" on="0"/>
        <pt x="411" y="166" on="1"/>
        <pt x="497" y="99" on="0"/>
        <pt x="704" y="27" on="0"/>
        <pt x="812" y="27" on="1"/>
        <pt x="1036" y="27" on="0"/>
      </contour>
      <contour>
        <pt x="943" y="940" on="1"/>
        <pt x="943" y="983" on="0"/>
        <pt x="895" y="1037" on="0"/>
        <pt x="855" y="1037" on="1"/>
        <pt x="759" y="1037" on="0"/>
        <pt x="643" y="848" on="1"/>
        <pt x="582" y="748" on="0"/>
        <pt x="508" y="533" on="0"/>
        <pt x="508" y="453" on="1"/>
        <pt x="508" y="336" on="0"/>
        <pt x="597" y="336" on="1"/>
        <pt x="649" y="336" on="0"/>
        <pt x="765" y="441" on="0"/>
        <pt x="816" y="534" on="1"/>
        <pt x="862" y="620" on="0"/>
        <pt x="903" y="744" on="1"/>
        <pt x="943" y="864" on="0"/>
      </contour>
    </TTGlyph>
    <TTGlyph name="atilde" xMin="61" yMin="-18" xMax="899" yMax="1243">
      <component glyphName="a" x="0" y="0" flags="0x214"/>
      <component glyphName="tilde" x="-103" y="0" flags="0x14"/>
    </TTGlyph>
    <TTGlyph name="b" xMin="14" yMin="-43" xMax="988" yMax="1405">
      <contour>
        <pt x="319" y="740" on="1"/>
        <pt x="361" y="792" on="0"/>
        <pt x="399" y="817" on="1"/>
        <pt x="476" y="866" on="0"/>
        <pt x="583" y="866" on="1"/>
        <pt x="735" y="866" on="0"/>
        <pt x="848" y="769" on="1"/>
        <pt x="988" y="650" on="0"/>
        <pt x="988" y="433" on="1"/>
        <pt x="988" y="216" on="0"/>
        <pt x="854" y="91" on="1"/>
        <pt x="738" y="-18" on="0"/>
        <pt x="557" y="-18" on="1"/>
        <pt x="462" y="-18" on="0"/>
        <pt x="396" y="8" on="1"/>
        <pt x="340" y="31" on="1"/>
        <pt x="317" y="40" on="0"/>
        <pt x="299" y="40" on="1"/>
        <pt x="248" y="40" on="0"/>
        <pt x="209" y="-43" on="1"/>
        <pt x="169" y="-43" on="1"/>
        <pt x="169" y="1130" on="1"/>
        <pt x="169" y="1242" on="0"/>
        <pt x="98" y="1339" on="0"/>
        <pt x="14" y="1339" on="1"/>
        <pt x="14" y="1363" on="1"/>
        <pt x="319" y="1405" on="1"/>
      </contour>
      <contour>
        <pt x="319" y="437" on="1"/>
        <pt x="319" y="330" on="0"/>
        <pt x="343" y="150" on="0"/>
        <pt x="362" y="109" on="1"/>
        <pt x="385" y="60" on="0"/>
        <pt x="476" y="4" on="0"/>
        <pt x="534" y="4" on="1"/>
        <pt x="656" y="4" on="0"/>
        <pt x="815" y="236" on="0"/>
        <pt x="815" y="415" on="1"/>
        <pt x="815" y="509" on="0"/>
        <pt x="763" y="678" on="0"/>
        <pt x="715" y="737" on="1"/>
        <pt x="677" y="786" on="0"/>
        <pt x="585" y="837" on="0"/>
        <pt x="537" y="837" on="1"/>
        <pt x="479" y="837" on="0"/>
        <pt x="379" y="766" on="0"/>
        <pt x="355" y="709" on="1"/>
        <pt x="319" y="625" on="0"/>
      </contour>
    </TTGlyph>
    <TTGlyph name="backslash" xMin="-12" yMin="-246" xMax="667" yMax="1427">
      <contour>
        <pt x="667" y="-246" on="1"/>
        <pt x="603" y="-246" on="1"/>
        <pt x="-12" y="1427" on="1"/>
        <pt x="51" y="1427" on="1"/>
      </contour>
    </TTGlyph>
    <TTGlyph name="bar" xMin="456" yMin="-500" xMax="569" yMax="1524">
      <contour>
        <pt x="456" y="1524" on="1"/>
        <pt x="569" y="1524" on="1"/>
        <pt x="569" y="-500" on="1"/>
        <pt x="456" y="-500" on="1"/>
      </contour>
    </TTGlyph>
    <TTGlyph name="braceleft" xMin="78" yMin="-246" xMax="542" yMax="1427">
      <contour>
        <pt x="78" y="608" on="1"/>
        <pt x="78" y="629" on="1"/>
        <pt x="132" y="637" on="0"/>
        <pt x="168" y="659" on="1"/>
        <pt x="199" y="678" on="0"/>
        <pt x="225" y="740" on="0"/>
        <pt x="225" y="796" on="1"/>
        <pt x="224" y="897" on="1"/>
        <pt x="221" y="1059" on="1"/>
        <pt x="221" y="1215" on="0"/>
        <pt x="242" y="1280" on="1"/>
        <pt x="261" y="1338" on="0"/>
        <pt x="338" y="1406" on="0"/>
        <pt x="397" y="1416" on="1"/>
        <pt x="444" y="1425" on="0"/>
        <pt x="486" y="1425" on="1"/>
        <pt x="527" y="1426" on="1"/>
        <pt x="542" y="1427" on="1"/>
        <pt x="542" y="1399" on="1"/>
        <pt x="499" y="1396" on="0"/>
        <pt x="454" y="1380" on="0"/>
        <pt x="432" y="1361" on="1"/>
        <pt x="405" y="1338" on="0"/>
        <pt x="378" y="1280" on="0"/>
        <pt x="374" y="1235" on="1"/>
        <pt x="371" y="1203" on="0"/>
        <pt x="371" y="1100" on="1"/>
        <pt x="372" y="915" on="1"/>
        <pt x="372" y="799" on="0"/>
        <pt x="353" y="713" on="0"/>
        <pt x="320" y="677" on="1"/>
        <pt x="281" y="635" on="0"/>
        <pt x="214" y="623" on="1"/>
        <pt x="214" y="615" on="1"/>
        <pt x="272" y="607" on="0"/>
        <pt x="312" y="567" on="1"/>
        <pt x="343" y="537" on="0"/>
        <pt x="370" y="452" on="0"/>
        <pt x="370" y="386" on="1"/>
        <pt x="371" y="282" on="1"/>
        <pt x="371" y="71" on="1"/>
        <pt x="371" y="-40" on="0"/>
        <pt x="390" y="-134" on="0"/>
        <pt x="419" y="-166" on="1"/>
        <pt x="441" y="-191" on="0"/>
        <pt x="507" y="-219" on="0"/>
        <pt x="542" y="-219" on="1"/>
        <pt x="542" y="-246" on="1"/>
        <pt x="520" y="-245" on="1"/>
        <pt x="412" y="-245" on="0"/>
        <pt x="350" y="-222" on="1"/>
        <pt x="283" y="-196" on="0"/>
        <pt x="219" y="-63" on="0"/>
        <pt x="219" y="50" on="1"/>
        <pt x="220" y="158" on="1"/>
        <pt x="223" y="324" on="1"/>
        <pt x="226" y="442" on="1"/>
        <pt x="226" y="522" on="0"/>
        <pt x="159" y="598" on="0"/>
      </contour>
    </TTGlyph>
    <TTGlyph name="braceright" xMin="59" yMin="-246" xMax="523" yMax="1427">
      <contour>
        <pt x="523" y="608" on="1"/>
        <pt x="443" y="598" on="0"/>
        <pt x="375" y="522" on="0"/>
        <pt x="375" y="443" on="1"/>
        <pt x="378" y="324" on="1"/>
        <pt x="381" y="158" on="1"/>
        <pt x="382" y="48" on="1"/>
        <pt x="382" y="-64" on="0"/>
        <pt x="318" y="-196" on="0"/>
        <pt x="251" y="-222" on="1"/>
        <pt x="189" y="-245" on="0"/>
        <pt x="82" y="-245" on="1"/>
        <pt x="59" y="-246" on="1"/>
        <pt x="59" y="-219" on="1"/>
        <pt x="95" y="-219" on="0"/>
        <pt x="160" y="-191" on="0"/>
        <pt x="182" y="-166" on="1"/>
        <pt x="218" y="-126" on="0"/>
        <pt x="226" y="-44" on="1"/>
        <pt x="230" y="-13" on="0"/>
        <pt x="230" y="141" on="1"/>
        <pt x="230" y="282" on="1"/>
        <pt x="231" y="386" on="1"/>
        <pt x="231" y="452" on="0"/>
        <pt x="258" y="537" on="0"/>
        <pt x="289" y="567" on="1"/>
        <pt x="330" y="607" on="0"/>
        <pt x="387" y="615" on="1"/>
        <pt x="387" y="623" on="1"/>
        <pt x="320" y="635" on="0"/>
        <pt x="281" y="677" on="1"/>
        <pt x="248" y="713" on="0"/>
        <pt x="229" y="799" on="0"/>
        <pt x="229" y="917" on="1"/>
        <pt x="230" y="1068" on="1"/>
        <pt x="230" y="1111" on="1"/>
        <pt x="230" y="1203" on="0"/>
        <pt x="227" y="1235" on="1"/>
        <pt x="223" y="1280" on="0"/>
        <pt x="196" y="1338" on="0"/>
        <pt x="169" y="1361" on="1"/>
        <pt x="147" y="1380" on="0"/>
        <pt x="102" y="1396" on="0"/>
        <pt x="59" y="1399" on="1"/>
        <pt x="59" y="1427" on="1"/>
        <pt x="74" y="1426" on="1"/>
        <pt x="115" y="1425" on="1"/>
        <pt x="157" y="1425" on="0"/>
        <pt x="204" y="1416" on="1"/>
        <pt x="263" y="1406" on="0"/>
        <pt x="340" y="1338" on="0"/>
        <pt x="359" y="1280" on="1"/>
        <pt x="380" y="1215" on="0"/>
        <pt x="380" y="1061" on="1"/>
        <pt x="377" y="897" on="1"/>
        <pt x="376" y="795" on="1"/>
        <pt x="376" y="739" on="0"/>
        <pt x="402" y="678" on="0"/>
        <pt x="433" y="659" on="1"/>
        <pt x="469" y="637" on="0"/>
        <pt x="523" y="629" on="1"/>
      </contour>
    </TTGlyph>
    <TTGlyph name="bracketleft" xMin="235" yMin="-246" xMax="535" yMax="1427">
      <contour>
        <pt x="235" y="1427" on="1"/>
        <pt x="535" y="1427" on="1"/>
        <pt x="535" y="1400" on="1"/>
        <pt x="450" y="1395" on="0"/>
        <pt x="389" y="1369" on="1"/>
        <pt x="389" y="-188" on="1"/>
        <pt x="450" y="-214" on="0"/>
        <pt x="535" y="-219" on="1"/>
        <pt x="535" y="-246" on="1"/>
        <pt x="235" y="-246" on="1"/>
      </contour>
    </TTGlyph>
    <TTGlyph name="bracketright" xMin="66" yMin="-246" xMax="366" yMax="1427">
      <contour>
        <pt x="366" y="-246" on="1"/>
        <pt x="66" y="-246" on="1"/>
        <pt x="66" y="-219" on="1"/>
        <pt x="151" y="-214" on="0"/>
        <pt x="212" y="-188" on="1"/>
        <pt x="212" y="1369" on="1"/>
        <pt x="151" y="1395" on="0"/>
        <pt x="66" y="1400" on="1"/>
        <pt x="66" y="1427" on="1"/>
        <pt x="366" y="1427" on="1"/>
      </contour>
    </TTGlyph>
    <TTGlyph name="breve" xMin="282" yMin="1035" xMax="742" yMax="1281">
      <contour>
        <pt x="282" y="1281" on="1"/>
        <pt x="302" y="1278" on="1"/>
        <pt x="350" y="1154" on="0"/>
        <pt x="512" y="1154" on="1"/>
        <pt x="676" y="1154" on="0"/>
        <pt x="722" y="1278" on="1"/>
        <pt x="742" y="1281" on="1"/>
        <pt x="737" y="1216" on="0"/>
        <pt x="709" y="1161" on="1"/>
        <pt x="645" y="1035" on="0"/>
        <pt x="511" y="1035" on="1"/>
        <pt x="381" y="1035" on="0"/>
        <pt x="316" y="1161" on="1"/>
        <pt x="287" y="1216" on="0"/>
      </contour>
    </TTGlyph>
    <TTGlyph name="brokenbar" xMin="0" yMin="-341" xMax="106" yMax="1365">
      <contour>
        <pt x="0" y="1365" on="1"/>
        <pt x="106" y="1365" on="1"/>
        <pt x="106" y="679" on="1"/>
        <pt x="0" y="679" on="1"/>
      </contour>
      <contour>
        <pt x="0" y="314" on="1"/>
        <pt x="106" y="314" on="1"/>
        <pt x="106" y="-341" on="1"/>
        <pt x="0" y="-341" on="1"/>
      </contour>
    </TTGlyph>
    <TTGlyph name="bullet" xMin="401" yMin="410" xMax="964" yMax="982">
      <contour>
        <pt x="683" y="982" on="1"/>
        <pt x="800" y="982" on="0"/>
        <pt x="964" y="815" on="0"/>
        <pt x="964" y="696" on="1"/>
        <pt x="964" y="578" on="0"/>
        <pt x="799" y="410" on="0"/>
        <pt x="683" y="410" on="1"/>
        <pt x="567" y="410" on="0"/>
        <pt x="401" y="578" on="0"/>
        <pt x="401" y="697" on="1"/>
        <pt x="401" y="759" on="0"/>
        <pt x="453" y="874" on="0"/>
        <pt x="501" y="915" on="1"/>
        <pt x="579" y="982" on="0"/>
      </contour>
    </TTGlyph>
    <TTGlyph name="c" xMin="61" yMin="-18" xMax="797" yMax="865">
      <contour>
        <pt x="775" y="189" on="1"/>
        <pt x="795" y="182" on="1"/>
        <pt x="760" y="76" on="0"/>
        <pt x="616" y="-18" on="0"/>
        <pt x="490" y="-18" on="1"/>
        <pt x="288" y="-18" on="0"/>
        <pt x="173" y="102" on="1"/>
        <pt x="61" y="220" on="0"/>
        <pt x="61" y="400" on="1"/>
        <pt x="61" y="488" on="0"/>
        <pt x="123" y="660" on="0"/>
        <pt x="177" y="721" on="1"/>
        <pt x="238" y="791" on="0"/>
        <pt x="415" y="865" on="0"/>
        <pt x="520" y="865" on="1"/>
        <pt x="665" y="865" on="0"/>
        <pt x="747" y="800" on="1"/>
        <pt x="797" y="760" on="0"/>
        <pt x="797" y="712" on="1"/>
        <pt x="797" y="680" on="0"/>
        <pt x="755" y="637" on="0"/>
        <pt x="725" y="637" on="1"/>
        <pt x="660" y="637" on="0"/>
        <pt x="629" y="732" on="1"/>
        <pt x="615" y="776" on="0"/>
        <pt x="598" y="808" on="0"/>
        <pt x="582" y="820" on="1"/>
        <pt x="551" y="843" on="0"/>
        <pt x="506" y="843" on="1"/>
        <pt x="447" y="843" on="0"/>
        <pt x="397" y="810" on="1"/>
        <pt x="353" y="781" on="0"/>
        <pt x="292" y="694" on="0"/>
        <pt x="269" y="628" on="1"/>
        <pt x="234" y="527" on="0"/>
        <pt x="234" y="430" on="1"/>
        <pt x="234" y="341" on="0"/>
        <pt x="298" y="171" on="0"/>
        <pt x="353" y="114" on="1"/>
        <pt x="439" y="24" on="0"/>
        <pt x="555" y="24" on="1"/>
        <pt x="651" y="24" on="0"/>
        <pt x="714" y="85" on="1"/>
        <pt x="746" y="117" on="0"/>
      </contour>
    </TTGlyph>
    <TTGlyph name="caron" xMin="249" yMin="995" xMax="793" yMax="1276">
      <contour>
        <pt x="521" y="1131" on="1"/>
        <pt x="745" y="1276" on="1"/>
        <pt x="793" y="1276" on="1"/>
        <pt x="536" y="995" on="1"/>
        <pt x="506" y="995" on="1"/>
        <pt x="249" y="1276" on="1"/>
        <pt x="297" y="1276" on="1"/>
      </contour>
    </TTGlyph>
    <TTGlyph name="ccedilla" xMin="61" yMin="-386" xMax="797" yMax="865">
      <contour>
        <pt x="490" y="-18" on="1"/>
        <pt x="454" y="-120" on="1"/>
        <pt x="518" y="-130" on="0"/>
        <pt x="553" y="-151" on="1"/>
        <pt x="614" y="-187" on="0"/>
        <pt x="614" y="-248" on="1"/>
        <pt x="614" y="-308" on="0"/>
        <pt x="510" y="-386" on="0"/>
        <pt x="430" y="-386" on="1"/>
        <pt x="350" y="-386" on="0"/>
        <pt x="262" y="-345" on="1"/>
        <pt x="273" y="-328" on="1"/>
        <pt x="341" y="-354" on="0"/>
        <pt x="386" y="-354" on="1"/>
        <pt x="437" y="-354" on="0"/>
        <pt x="505" y="-294" on="0"/>
        <pt x="505" y="-249" on="1"/>
        <pt x="505" y="-177" on="0"/>
        <pt x="392" y="-143" on="1"/>
        <pt x="438" y="-16" on="1"/>
        <pt x="318" y="-4" on="0"/>
        <pt x="240" y="47" on="1"/>
        <pt x="155" y="102" on="0"/>
        <pt x="61" y="287" on="0"/>
        <pt x="61" y="399" on="1"/>
        <pt x="61" y="494" on="0"/>
        <pt x="96" y="583" on="1"/>
        <pt x="148" y="718" on="0"/>
        <pt x="368" y="865" on="0"/>
        <pt x="520" y="865" on="1"/>
        <pt x="665" y="865" on="0"/>
        <pt x="747" y="800" on="1"/>
        <pt x="797" y="760" on="0"/>
        <pt x="797" y="712" on="1"/>
        <pt x="797" y="680" on="0"/>
        <pt x="755" y="637" on="0"/>
        <pt x="725" y="637" on="1"/>
        <pt x="660" y="637" on="0"/>
        <pt x="629" y="732" on="1"/>
        <pt x="615" y="776" on="0"/>
        <pt x="598" y="808" on="0"/>
        <pt x="582" y="820" on="1"/>
        <pt x="551" y="843" on="0"/>
        <pt x="506" y="843" on="1"/>
        <pt x="447" y="843" on="0"/>
        <pt x="397" y="810" on="1"/>
        <pt x="353" y="781" on="0"/>
        <pt x="292" y="694" on="0"/>
        <pt x="269" y="628" on="1"/>
        <pt x="234" y="527" on="0"/>
        <pt x="234" y="430" on="1"/>
        <pt x="234" y="341" on="0"/>
        <pt x="298" y="171" on="0"/>
        <pt x="353" y="114" on="1"/>
        <pt x="439" y="24" on="0"/>
        <pt x="555" y="24" on="1"/>
        <pt x="651" y="24" on="0"/>
        <pt x="714" y="85" on="1"/>
        <pt x="746" y="117" on="0"/>
        <pt x="775" y="189" on="1"/>
        <pt x="795" y="181" on="1"/>
        <pt x="760" y="76" on="0"/>
        <pt x="616" y="-18" on="0"/>
      </contour>
    </TTGlyph>
    <TTGlyph name="cedilla" xMin="304" yMin="-386" xMax="656" yMax="0">
      <contour>
        <pt x="538" y="0" on="1"/>
        <pt x="497" y="-120" on="1"/>
        <pt x="561" y="-130" on="0"/>
        <pt x="595" y="-151" on="1"/>
        <pt x="656" y="-187" on="0"/>
        <pt x="656" y="-248" on="1"/>
        <pt x="656" y="-308" on="0"/>
        <pt x="552" y="-386" on="0"/>
        <pt x="472" y="-386" on="1"/>
        <pt x="393" y="-386" on="0"/>
        <pt x="304" y="-345" on="1"/>
        <pt x="315" y="-327" on="1"/>
        <pt x="383" y="-353" on="0"/>
        <pt x="429" y="-353" on="1"/>
        <pt x="480" y="-353" on="0"/>
        <pt x="547" y="-294" on="0"/>
        <pt x="547" y="-249" on="1"/>
        <pt x="547" y="-177" on="0"/>
        <pt x="435" y="-143" on="1"/>
        <pt x="486" y="0" on="1"/>
      </contour>
    </TTGlyph>
    <TTGlyph name="cent" xMin="135" yMin="-12" xMax="871" yMax="1226">
      <contour>
        <pt x="581" y="1042" on="1"/>
        <pt x="595" y="1042" on="1"/>
        <pt x="739" y="1042" on="0"/>
        <pt x="821" y="977" on="1"/>
        <pt x="871" y="937" on="0"/>
        <pt x="871" y="889" on="1"/>
        <pt x="871" y="858" on="0"/>
        <pt x="829" y="814" on="0"/>
        <pt x="799" y="814" on="1"/>
        <pt x="734" y="814" on="0"/>
        <pt x="703" y="909" on="1"/>
        <pt x="685" y="964" on="0"/>
        <pt x="657" y="1002" on="0"/>
        <pt x="625" y="1013" on="1"/>
        <pt x="605" y="1021" on="0"/>
        <pt x="581" y="1021" on="1"/>
        <pt x="581" y="206" on="1"/>
        <pt x="609" y="201" on="0"/>
        <pt x="630" y="201" on="1"/>
        <pt x="725" y="201" on="0"/>
        <pt x="788" y="262" on="1"/>
        <pt x="820" y="294" on="0"/>
        <pt x="849" y="366" on="1"/>
        <pt x="869" y="359" on="1"/>
        <pt x="834" y="254" on="0"/>
        <pt x="759" y="205" on="1"/>
        <pt x="728" y="184" on="0"/>
        <pt x="630" y="159" on="0"/>
        <pt x="581" y="159" on="1"/>
        <pt x="581" y="-12" on="1"/>
        <pt x="537" y="-12" on="1"/>
        <pt x="537" y="160" on="1"/>
        <pt x="430" y="160" on="0"/>
        <pt x="339" y="209" on="1"/>
        <pt x="243" y="261" on="0"/>
        <pt x="135" y="456" on="0"/>
        <pt x="135" y="577" on="1"/>
        <pt x="135" y="699" on="0"/>
        <pt x="243" y="912" on="0"/>
        <pt x="334" y="970" on="1"/>
        <pt x="425" y="1029" on="0"/>
        <pt x="537" y="1039" on="1"/>
        <pt x="537" y="1226" on="1"/>
        <pt x="581" y="1226" on="1"/>
      </contour>
      <contour>
        <pt x="537" y="218" on="1"/>
        <pt x="537" y="1016" on="1"/>
        <pt x="464" y="998" on="0"/>
        <pt x="411" y="934" on="1"/>
        <pt x="367" y="882" on="0"/>
        <pt x="308" y="695" on="0"/>
        <pt x="308" y="607" on="1"/>
        <pt x="308" y="511" on="0"/>
        <pt x="384" y="330" on="0"/>
        <pt x="448" y="273" on="1"/>
        <pt x="486" y="239" on="0"/>
      </contour>
    </TTGlyph>
    <TTGlyph name="circumflex" xMin="249" yMin="1022" xMax="793" yMax="1303">
      <contour>
        <pt x="521" y="1168" on="1"/>
        <pt x="297" y="1022" on="1"/>
        <pt x="249" y="1022" on="1"/>
        <pt x="506" y="1303" on="1"/>
        <pt x="536" y="1303" on="1"/>
        <pt x="793" y="1022" on="1"/>
        <pt x="745" y="1022" on="1"/>
      </contour>
    </TTGlyph>
    <TTGlyph name="colon" xMin="129" yMin="-17" xMax="371" yMax="865">
      <contour>
        <pt x="250" y="865" on="1"/>
        <pt x="300" y="865" on="0"/>
        <pt x="371" y="794" on="0"/>
        <pt x="371" y="744" on="1"/>
        <pt x="371" y="694" on="0"/>
        <pt x="300" y="623" on="0"/>
        <pt x="250" y="623" on="1"/>
        <pt x="200" y="623" on="0"/>
        <pt x="129" y="694" on="0"/>
        <pt x="129" y="744" on="1"/>
        <pt x="129" y="794" on="0"/>
        <pt x="200" y="865" on="0"/>
      </contour>
      <contour>
        <pt x="250" y="226" on="1"/>
        <pt x="300" y="226" on="0"/>
        <pt x="371" y="155" on="0"/>
        <pt x="371" y="104" on="1"/>
        <pt x="371" y="54" on="0"/>
        <pt x="300" y="-17" on="0"/>
        <pt x="250" y="-17" on="1"/>
        <pt x="200" y="-17" on="0"/>
        <pt x="129" y="54" on="0"/>
        <pt x="129" y="104" on="1"/>
        <pt x="129" y="155" on="0"/>
        <pt x="200" y="226" on="0"/>
      </contour>
    </TTGlyph>
    <TTGlyph name="comma" xMin="91" yMin="-298" xMax="388" yMax="227">
      <contour>
        <pt x="100" y="-298" on="1"/>
        <pt x="91" y="-277" on="1"/>
        <pt x="156" y="-250" on="0"/>
        <pt x="232" y="-190" on="0"/>
        <pt x="259" y="-143" on="1"/>
        <pt x="301" y="-71" on="0"/>
        <pt x="307" y="-3" on="1"/>
        <pt x="280" y="-12" on="0"/>
        <pt x="260" y="-12" on="1"/>
        <pt x="205" y="-12" on="0"/>
        <pt x="135" y="53" on="0"/>
        <pt x="135" y="105" on="1"/>
        <pt x="135" y="155" on="0"/>
        <pt x="205" y="227" on="0"/>
        <pt x="254" y="227" on="1"/>
        <pt x="314" y="227" on="0"/>
        <pt x="388" y="131" on="0"/>
        <pt x="388" y="52" on="1"/>
        <pt x="388" y="-26" on="0"/>
        <pt x="313" y="-179" on="0"/>
        <pt x="251" y="-228" on="1"/>
        <pt x="186" y="-280" on="0"/>
      </contour>
    </TTGlyph>
    <TTGlyph name="copyright" xMin="96" yMin="-34" xMax="1543" yMax="1399">
      <contour>
        <pt x="1140" y="1075" on="1"/>
        <pt x="1148" y="814" on="1"/>
        <pt x="1126" y="814" on="1"/>
        <pt x="1119" y="833" on="0"/>
        <pt x="1115" y="842" on="1"/>
        <pt x="1088" y="914" on="0"/>
        <pt x="1050" y="977" on="0"/>
        <pt x="1016" y="1008" on="1"/>
        <pt x="955" y="1063" on="0"/>
        <pt x="873" y="1063" on="1"/>
        <pt x="809" y="1063" on="0"/>
        <pt x="761" y="1036" on="1"/>
        <pt x="719" y="1013" on="0"/>
        <pt x="646" y="923" on="0"/>
        <pt x="623" y="866" on="1"/>
        <pt x="590" y="785" on="0"/>
        <pt x="590" y="682" on="1"/>
        <pt x="590" y="514" on="0"/>
        <pt x="750" y="319" on="0"/>
        <pt x="889" y="319" on="1"/>
        <pt x="954" y="319" on="0"/>
        <pt x="1059" y="363" on="0"/>
        <pt x="1088" y="402" on="1"/>
        <pt x="1122" y="449" on="0"/>
        <pt x="1137" y="531" on="1"/>
        <pt x="1159" y="528" on="1"/>
        <pt x="1148" y="433" on="0"/>
        <pt x="1107" y="379" on="1"/>
        <pt x="1029" y="274" on="0"/>
        <pt x="848" y="274" on="1"/>
        <pt x="661" y="274" on="0"/>
        <pt x="439" y="489" on="0"/>
        <pt x="439" y="669" on="1"/>
        <pt x="439" y="772" on="0"/>
        <pt x="517" y="949" on="0"/>
        <pt x="587" y="1002" on="1"/>
        <pt x="641" y="1043" on="0"/>
        <pt x="791" y="1091" on="0"/>
        <pt x="865" y="1091" on="1"/>
        <pt x="937" y="1091" on="0"/>
        <pt x="1017" y="1065" on="1"/>
        <pt x="1065" y="1050" on="1"/>
        <pt x="1078" y="1045" on="0"/>
        <pt x="1088" y="1045" on="1"/>
        <pt x="1099" y="1045" on="0"/>
        <pt x="1111" y="1057" on="0"/>
        <pt x="1119" y="1075" on="1"/>
      </contour>
      <contour>
        <pt x="820" y="-34" on="1"/>
        <pt x="667" y="-34" on="0"/>
        <pt x="381" y="92" on="0"/>
        <pt x="282" y="202" on="1"/>
        <pt x="193" y="301" on="0"/>
        <pt x="96" y="551" on="0"/>
        <pt x="96" y="683" on="1"/>
        <pt x="96" y="815" on="0"/>
        <pt x="192" y="1064" on="0"/>
        <pt x="282" y="1162" on="1"/>
        <pt x="385" y="1276" on="0"/>
        <pt x="666" y="1399" on="0"/>
        <pt x="820" y="1399" on="1"/>
        <pt x="973" y="1399" on="0"/>
        <pt x="1254" y="1276" on="0"/>
        <pt x="1357" y="1162" on="1"/>
        <pt x="1447" y="1064" on="0"/>
        <pt x="1543" y="815" on="0"/>
        <pt x="1543" y="683" on="1"/>
        <pt x="1543" y="551" on="0"/>
        <pt x="1447" y="301" on="0"/>
        <pt x="1358" y="202" on="1"/>
        <pt x="1258" y="92" on="0"/>
        <pt x="972" y="-34" on="0"/>
      </contour>
      <contour>
        <pt x="820" y="41" on="1"/>
        <pt x="935" y="41" on="0"/>
        <pt x="1161" y="128" on="0"/>
        <pt x="1245" y="205" on="1"/>
        <pt x="1344" y="295" on="0"/>
        <pt x="1455" y="547" on="0"/>
        <pt x="1455" y="683" on="1"/>
        <pt x="1455" y="819" on="0"/>
        <pt x="1345" y="1068" on="0"/>
        <pt x="1245" y="1159" on="1"/>
        <pt x="1157" y="1239" on="0"/>
        <pt x="937" y="1324" on="0"/>
        <pt x="820" y="1324" on="1"/>
        <pt x="702" y="1324" on="0"/>
        <pt x="482" y="1239" on="0"/>
        <pt x="395" y="1159" on="1"/>
        <pt x="294" y="1068" on="0"/>
        <pt x="185" y="819" on="0"/>
        <pt x="185" y="683" on="1"/>
        <pt x="185" y="547" on="0"/>
        <pt x="295" y="295" on="0"/>
        <pt x="394" y="205" on="1"/>
        <pt x="478" y="128" on="0"/>
        <pt x="704" y="41" on="0"/>
      </contour>
    </TTGlyph>
    <TTGlyph name="currency" xMin="72" yMin="229" xMax="935" yMax="1091">
      <contour>
        <pt x="773" y="956" on="1"/>
        <pt x="909" y="1091" on="1"/>
        <pt x="935" y="1065" on="1"/>
        <pt x="799" y="929" on="1"/>
        <pt x="903" y="807" on="0"/>
        <pt x="903" y="660" on="1"/>
        <pt x="903" y="542" on="0"/>
        <pt x="838" y="442" on="1"/>
        <pt x="825" y="421" on="0"/>
        <pt x="799" y="390" on="1"/>
        <pt x="935" y="255" on="1"/>
        <pt x="909" y="229" on="1"/>
        <pt x="774" y="364" on="1"/>
        <pt x="647" y="261" on="0"/>
        <pt x="504" y="261" on="1"/>
        <pt x="359" y="261" on="0"/>
        <pt x="234" y="364" on="1"/>
        <pt x="98" y="229" on="1"/>
        <pt x="72" y="255" on="1"/>
        <pt x="208" y="391" on="1"/>
        <pt x="104" y="513" on="0"/>
        <pt x="104" y="661" on="1"/>
        <pt x="104" y="807" on="0"/>
        <pt x="208" y="930" on="1"/>
        <pt x="72" y="1065" on="1"/>
        <pt x="98" y="1091" on="1"/>
        <pt x="234" y="956" on="1"/>
        <pt x="354" y="1060" on="0"/>
        <pt x="504" y="1060" on="1"/>
        <pt x="652" y="1060" on="0"/>
      </contour>
      <contour>
        <pt x="504" y="368" on="1"/>
        <pt x="557" y="368" on="0"/>
        <pt x="661" y="407" on="0"/>
        <pt x="700" y="442" on="1"/>
        <pt x="745" y="483" on="0"/>
        <pt x="796" y="598" on="0"/>
        <pt x="796" y="660" on="1"/>
        <pt x="796" y="781" on="0"/>
        <pt x="625" y="953" on="0"/>
        <pt x="504" y="953" on="1"/>
        <pt x="382" y="953" on="0"/>
        <pt x="211" y="781" on="0"/>
        <pt x="211" y="660" on="1"/>
        <pt x="211" y="598" on="0"/>
        <pt x="262" y="483" on="0"/>
        <pt x="307" y="442" on="1"/>
        <pt x="346" y="407" on="0"/>
        <pt x="451" y="368" on="0"/>
      </contour>
    </TTGlyph>
    <TTGlyph name="d" xMin="61" yMin="-32" xMax="1045" yMax="1402">
      <contour>
        <pt x="754" y="-32" on="1"/>
        <pt x="744" y="17" on="0"/>
        <pt x="744" y="72" on="1"/>
        <pt x="670" y="24" on="0"/>
        <pt x="539" y="-18" on="0"/>
        <pt x="464" y="-18" on="1"/>
        <pt x="312" y="-18" on="0"/>
        <pt x="204" y="73" on="1"/>
        <pt x="135" y="131" on="0"/>
        <pt x="61" y="306" on="0"/>
        <pt x="61" y="410" on="1"/>
        <pt x="61" y="520" on="0"/>
        <pt x="141" y="707" on="0"/>
        <pt x="213" y="769" on="1"/>
        <pt x="327" y="865" on="0"/>
        <pt x="484" y="865" on="1"/>
        <pt x="560" y="865" on="0"/>
        <pt x="668" y="821" on="0"/>
        <pt x="740" y="763" on="1"/>
        <pt x="740" y="1134" on="1"/>
        <pt x="740" y="1243" on="0"/>
        <pt x="668" y="1339" on="0"/>
        <pt x="585" y="1339" on="1"/>
        <pt x="585" y="1363" on="1"/>
        <pt x="890" y="1402" on="1"/>
        <pt x="890" y="243" on="1"/>
        <pt x="890" y="130" on="0"/>
        <pt x="962" y="34" on="0"/>
        <pt x="1045" y="34" on="1"/>
        <pt x="1045" y="9" on="1"/>
      </contour>
      <contour>
        <pt x="740" y="432" on="1"/>
        <pt x="740" y="571" on="0"/>
        <pt x="716" y="710" on="0"/>
        <pt x="685" y="754" on="1"/>
        <pt x="658" y="792" on="0"/>
        <pt x="567" y="838" on="0"/>
        <pt x="519" y="838" on="1"/>
        <pt x="412" y="838" on="0"/>
        <pt x="334" y="738" on="1"/>
        <pt x="287" y="678" on="0"/>
        <pt x="234" y="512" on="0"/>
        <pt x="234" y="424" on="1"/>
        <pt x="234" y="338" on="0"/>
        <pt x="284" y="173" on="0"/>
        <pt x="327" y="114" on="1"/>
        <pt x="402" y="12" on="0"/>
        <pt x="511" y="12" on="1"/>
        <pt x="563" y="12" on="0"/>
        <pt x="657" y="64" on="0"/>
        <pt x="686" y="110" on="1"/>
        <pt x="716" y="158" on="0"/>
        <pt x="740" y="299" on="0"/>
      </contour>
    </TTGlyph>
    <TTGlyph name="dagger" xMin="91" yMin="-264" xMax="916" yMax="1383">
      <contour>
        <pt x="527" y="-264" on="1"/>
        <pt x="481" y="-264" on="1"/>
        <pt x="480" y="-83" on="1"/>
        <pt x="480" y="101" on="0"/>
        <pt x="440" y="366" on="0"/>
        <pt x="384" y="544" on="1"/>
        <pt x="436" y="622" on="0"/>
        <pt x="479" y="752" on="0"/>
        <pt x="486" y="851" on="1"/>
        <pt x="427" y="847" on="0"/>
        <pt x="363" y="831" on="0"/>
        <pt x="276" y="800" on="1"/>
        <pt x="212" y="778" on="0"/>
        <pt x="179" y="778" on="1"/>
        <pt x="140" y="778" on="0"/>
        <pt x="91" y="831" on="0"/>
        <pt x="91" y="873" on="1"/>
        <pt x="91" y="914" on="0"/>
        <pt x="143" y="971" on="0"/>
        <pt x="179" y="971" on="1"/>
        <pt x="205" y="971" on="0"/>
        <pt x="227" y="963" on="1"/>
        <pt x="291" y="939" on="1"/>
        <pt x="312" y="931" on="0"/>
        <pt x="382" y="910" on="1"/>
        <pt x="429" y="897" on="0"/>
        <pt x="486" y="891" on="1"/>
        <pt x="481" y="941" on="0"/>
        <pt x="473" y="989" on="0"/>
        <pt x="461" y="1031" on="1"/>
        <pt x="443" y="1097" on="0"/>
        <pt x="426" y="1151" on="1"/>
        <pt x="405" y="1216" on="0"/>
        <pt x="396" y="1254" on="0"/>
        <pt x="396" y="1273" on="1"/>
        <pt x="396" y="1321" on="0"/>
        <pt x="457" y="1383" on="0"/>
        <pt x="504" y="1383" on="1"/>
        <pt x="550" y="1383" on="0"/>
        <pt x="611" y="1321" on="0"/>
        <pt x="611" y="1275" on="1"/>
        <pt x="581" y="1151" on="1"/>
        <pt x="564" y="1098" on="0"/>
        <pt x="546" y="1031" on="1"/>
        <pt x="534" y="988" on="0"/>
        <pt x="526" y="941" on="0"/>
        <pt x="521" y="891" on="1"/>
        <pt x="578" y="897" on="0"/>
        <pt x="625" y="910" on="1"/>
        <pt x="696" y="931" on="0"/>
        <pt x="716" y="939" on="1"/>
        <pt x="780" y="963" on="1"/>
        <pt x="802" y="971" on="0"/>
        <pt x="825" y="971" on="1"/>
        <pt x="864" y="971" on="0"/>
        <pt x="916" y="915" on="0"/>
        <pt x="916" y="873" on="1"/>
        <pt x="916" y="831" on="0"/>
        <pt x="868" y="778" on="0"/>
        <pt x="830" y="778" on="1"/>
        <pt x="795" y="778" on="0"/>
        <pt x="731" y="800" on="1"/>
        <pt x="644" y="831" on="0"/>
        <pt x="581" y="847" on="0"/>
        <pt x="521" y="851" on="1"/>
        <pt x="525" y="788" on="0"/>
        <pt x="542" y="708" on="0"/>
        <pt x="563" y="656" on="1"/>
        <pt x="586" y="600" on="0"/>
        <pt x="623" y="544" on="1"/>
        <pt x="568" y="366" on="0"/>
        <pt x="527" y="101" on="0"/>
        <pt x="527" y="-83" on="1"/>
      </contour>
    </TTGlyph>
    <TTGlyph name="daggerdbl" xMin="91" yMin="-281" xMax="916" yMax="1383">
      <contour>
        <pt x="384" y="551" on="1"/>
        <pt x="435" y="650" on="0"/>
        <pt x="476" y="771" on="0"/>
        <pt x="486" y="851" on="1"/>
        <pt x="427" y="847" on="0"/>
        <pt x="363" y="831" on="0"/>
        <pt x="276" y="800" on="1"/>
        <pt x="212" y="778" on="0"/>
        <pt x="179" y="778" on="1"/>
        <pt x="140" y="778" on="0"/>
        <pt x="91" y="831" on="0"/>
        <pt x="91" y="873" on="1"/>
        <pt x="91" y="914" on="0"/>
        <pt x="143" y="971" on="0"/>
        <pt x="179" y="971" on="1"/>
        <pt x="205" y="971" on="0"/>
        <pt x="227" y="963" on="1"/>
        <pt x="291" y="939" on="1"/>
        <pt x="312" y="931" on="0"/>
        <pt x="382" y="910" on="1"/>
        <pt x="429" y="897" on="0"/>
        <pt x="486" y="891" on="1"/>
        <pt x="481" y="941" on="0"/>
        <pt x="473" y="989" on="0"/>
        <pt x="461" y="1031" on="1"/>
        <pt x="443" y="1097" on="0"/>
        <pt x="426" y="1151" on="1"/>
        <pt x="405" y="1216" on="0"/>
        <pt x="396" y="1254" on="0"/>
        <pt x="396" y="1273" on="1"/>
        <pt x="396" y="1321" on="0"/>
        <pt x="457" y="1383" on="0"/>
        <pt x="504" y="1383" on="1"/>
        <pt x="550" y="1383" on="0"/>
        <pt x="611" y="1321" on="0"/>
        <pt x="611" y="1275" on="1"/>
        <pt x="581" y="1151" on="1"/>
        <pt x="564" y="1098" on="0"/>
        <pt x="546" y="1031" on="1"/>
        <pt x="534" y="988" on="0"/>
        <pt x="526" y="941" on="0"/>
        <pt x="521" y="891" on="1"/>
        <pt x="578" y="897" on="0"/>
        <pt x="625" y="910" on="1"/>
        <pt x="696" y="931" on="0"/>
        <pt x="716" y="939" on="1"/>
        <pt x="780" y="963" on="1"/>
        <pt x="802" y="971" on="0"/>
        <pt x="825" y="971" on="1"/>
        <pt x="864" y="971" on="0"/>
        <pt x="916" y="915" on="0"/>
        <pt x="916" y="873" on="1"/>
        <pt x="916" y="831" on="0"/>
        <pt x="868" y="778" on="0"/>
        <pt x="830" y="778" on="1"/>
        <pt x="795" y="778" on="0"/>
        <pt x="731" y="800" on="1"/>
        <pt x="644" y="831" on="0"/>
        <pt x="581" y="847" on="0"/>
        <pt x="521" y="851" on="1"/>
        <pt x="532" y="770" on="0"/>
        <pt x="566" y="670" on="0"/>
        <pt x="623" y="551" on="1"/>
        <pt x="566" y="432" on="0"/>
        <pt x="532" y="331" on="0"/>
        <pt x="521" y="251" on="1"/>
        <pt x="581" y="255" on="0"/>
        <pt x="644" y="270" on="0"/>
        <pt x="731" y="302" on="1"/>
        <pt x="795" y="324" on="0"/>
        <pt x="828" y="324" on="1"/>
        <pt x="868" y="324" on="0"/>
        <pt x="916" y="271" on="0"/>
        <pt x="916" y="229" on="1"/>
        <pt x="916" y="188" on="0"/>
        <pt x="865" y="130" on="0"/>
        <pt x="828" y="130" on="1"/>
        <pt x="802" y="130" on="0"/>
        <pt x="780" y="139" on="1"/>
        <pt x="716" y="163" on="1"/>
        <pt x="696" y="171" on="0"/>
        <pt x="625" y="191" on="1"/>
        <pt x="578" y="205" on="0"/>
        <pt x="521" y="211" on="1"/>
        <pt x="526" y="161" on="0"/>
        <pt x="534" y="113" on="0"/>
        <pt x="546" y="71" on="1"/>
        <pt x="564" y="5" on="0"/>
        <pt x="581" y="-49" on="1"/>
        <pt x="602" y="-114" on="0"/>
        <pt x="611" y="-152" on="0"/>
        <pt x="611" y="-172" on="1"/>
        <pt x="611" y="-219" on="0"/>
        <pt x="550" y="-281" on="0"/>
        <pt x="504" y="-281" on="1"/>
        <pt x="458" y="-281" on="0"/>
        <pt x="396" y="-219" on="0"/>
        <pt x="396" y="-173" on="1"/>
        <pt x="426" y="-49" on="1"/>
        <pt x="443" y="4" on="0"/>
        <pt x="461" y="71" on="1"/>
        <pt x="473" y="113" on="0"/>
        <pt x="481" y="161" on="0"/>
        <pt x="486" y="211" on="1"/>
        <pt x="429" y="205" on="0"/>
        <pt x="382" y="191" on="1"/>
        <pt x="312" y="171" on="0"/>
        <pt x="291" y="163" on="1"/>
        <pt x="227" y="139" on="1"/>
        <pt x="205" y="130" on="0"/>
        <pt x="182" y="130" on="1"/>
        <pt x="143" y="130" on="0"/>
        <pt x="91" y="187" on="0"/>
        <pt x="91" y="229" on="1"/>
        <pt x="91" y="270" on="0"/>
        <pt x="139" y="324" on="0"/>
        <pt x="177" y="324" on="1"/>
        <pt x="212" y="324" on="0"/>
        <pt x="276" y="302" on="1"/>
        <pt x="364" y="270" on="0"/>
        <pt x="427" y="255" on="0"/>
        <pt x="486" y="251" on="1"/>
        <pt x="476" y="331" on="0"/>
        <pt x="442" y="432" on="0"/>
      </contour>
    </TTGlyph>
    <TTGlyph name="degree" xMin="75" yMin="975" xMax="485" yMax="1383">
      <contour>
        <pt x="485" y="1181" on="1"/>
        <pt x="485" y="1095" on="0"/>
        <pt x="366" y="975" on="0"/>
        <pt x="281" y="975" on="1"/>
        <pt x="244" y="975" on="0"/>
        <pt x="169" y="1004" on="0"/>
        <pt x="141" y="1029" on="1"/>
        <pt x="110" y="1057" on="0"/>
        <pt x="75" y="1137" on="0"/>
        <pt x="75" y="1181" on="1"/>
        <pt x="75" y="1282" on="0"/>
        <pt x="155" y="1341" on="1"/>
        <pt x="212" y="1383" on="0"/>
        <pt x="282" y="1383" on="1"/>
        <pt x="365" y="1383" on="0"/>
        <pt x="485" y="1264" on="0"/>
      </contour>
      <contour>
        <pt x="431" y="1178" on="1"/>
        <pt x="431" y="1243" on="0"/>
        <pt x="343" y="1331" on="0"/>
        <pt x="278" y="1331" on="1"/>
        <pt x="217" y="1331" on="0"/>
        <pt x="128" y="1243" on="0"/>
        <pt x="128" y="1181" on="1"/>
        <pt x="128" y="1118" on="0"/>
        <pt x="218" y="1029" on="0"/>
        <pt x="281" y="1029" on="1"/>
        <pt x="343" y="1029" on="0"/>
        <pt x="431" y="1117" on="0"/>
      </contour>
    </TTGlyph>
    <TTGlyph name="dieresis" xMin="253" yMin="1063" xMax="771" yMax="1240">
      <contour>
        <pt x="342" y="1240" on="1"/>
        <pt x="379" y="1240" on="0"/>
        <pt x="431" y="1188" on="0"/>
        <pt x="431" y="1151" on="1"/>
        <pt x="431" y="1115" on="0"/>
        <pt x="379" y="1063" on="0"/>
        <pt x="342" y="1063" on="1"/>
        <pt x="305" y="1063" on="0"/>
        <pt x="253" y="1114" on="0"/>
        <pt x="253" y="1151" on="1"/>
        <pt x="253" y="1188" on="0"/>
        <pt x="305" y="1240" on="0"/>
      </contour>
      <contour>
        <pt x="683" y="1240" on="1"/>
        <pt x="719" y="1240" on="0"/>
        <pt x="771" y="1188" on="0"/>
        <pt x="771" y="1152" on="1"/>
        <pt x="771" y="1115" on="0"/>
        <pt x="719" y="1064" on="0"/>
        <pt x="683" y="1064" on="1"/>
        <pt x="646" y="1064" on="0"/>
        <pt x="595" y="1115" on="0"/>
        <pt x="595" y="1152" on="1"/>
        <pt x="595" y="1188" on="0"/>
        <pt x="646" y="1240" on="0"/>
      </contour>
    </TTGlyph>
    <TTGlyph name="divide" xMin="66" yMin="312" xMax="940" yMax="1026">
      <contour>
        <pt x="66" y="700" on="1"/>
        <pt x="940" y="700" on="1"/>
        <pt x="940" y="638" on="1"/>
        <pt x="66" y="638" on="1"/>
      </contour>
      <contour>
        <pt x="503" y="1026" on="1"/>
        <pt x="538" y="1026" on="0"/>
        <pt x="587" y="977" on="0"/>
        <pt x="587" y="942" on="1"/>
        <pt x="587" y="907" on="0"/>
        <pt x="538" y="858" on="0"/>
        <pt x="503" y="858" on="1"/>
        <pt x="468" y="858" on="0"/>
        <pt x="419" y="907" on="0"/>
        <pt x="419" y="942" on="1"/>
        <pt x="419" y="977" on="0"/>
        <pt x="468" y="1026" on="0"/>
      </contour>
      <contour>
        <pt x="503" y="480" on="1"/>
        <pt x="538" y="480" on="0"/>
        <pt x="587" y="431" on="0"/>
        <pt x="587" y="396" on="1"/>
        <pt x="587" y="361" on="0"/>
        <pt x="538" y="312" on="0"/>
        <pt x="503" y="312" on="1"/>
        <pt x="468" y="312" on="0"/>
        <pt x="419" y="361" on="0"/>
        <pt x="419" y="396" on="1"/>
        <pt x="419" y="431" on="0"/>
        <pt x="468" y="480" on="0"/>
      </contour>
    </TTGlyph>
    <TTGlyph name="dollar" xMin="98" yMin="-189" xMax="908" yMax="1526">
      <contour>
        <pt x="496" y="1374" on="1"/>
        <pt x="496" y="1526" on="1"/>
        <pt x="541" y="1526" on="1"/>
        <pt x="541" y="1374" on="1"/>
        <pt x="644" y="1368" on="0"/>
        <pt x="725" y="1329" on="1"/>
        <pt x="792" y="1296" on="0"/>
        <pt x="868" y="1187" on="0"/>
        <pt x="868" y="1122" on="1"/>
        <pt x="868" y="1071" on="0"/>
        <pt x="809" y="1001" on="0"/>
        <pt x="766" y="1001" on="1"/>
        <pt x="733" y="1001" on="0"/>
        <pt x="687" y="1047" on="0"/>
        <pt x="687" y="1081" on="1"/>
        <pt x="687" y="1103" on="0"/>
        <pt x="696" y="1124" on="1"/>
        <pt x="714" y="1162" on="1"/>
        <pt x="723" y="1183" on="0"/>
        <pt x="723" y="1212" on="1"/>
        <pt x="723" y="1254" on="0"/>
        <pt x="675" y="1317" on="0"/>
        <pt x="631" y="1333" on="1"/>
        <pt x="594" y="1346" on="0"/>
        <pt x="541" y="1351" on="1"/>
        <pt x="541" y="804" on="1"/>
        <pt x="551" y="798" on="1"/>
        <pt x="730" y="694" on="0"/>
        <pt x="804" y="607" on="1"/>
        <pt x="853" y="549" on="0"/>
        <pt x="908" y="406" on="0"/>
        <pt x="908" y="334" on="1"/>
        <pt x="908" y="234" on="0"/>
        <pt x="812" y="72" on="0"/>
        <pt x="727" y="28" on="1"/>
        <pt x="646" y="-13" on="0"/>
        <pt x="541" y="-26" on="1"/>
        <pt x="541" y="-189" on="1"/>
        <pt x="496" y="-189" on="1"/>
        <pt x="496" y="-29" on="1"/>
        <pt x="402" y="-29" on="0"/>
        <pt x="306" y="10" on="1"/>
        <pt x="207" y="50" on="0"/>
        <pt x="98" y="190" on="0"/>
        <pt x="98" y="277" on="1"/>
        <pt x="98" y="343" on="0"/>
        <pt x="168" y="434" on="0"/>
        <pt x="218" y="434" on="1"/>
        <pt x="251" y="434" on="0"/>
        <pt x="294" y="391" on="0"/>
        <pt x="294" y="358" on="1"/>
        <pt x="294" y="324" on="0"/>
        <pt x="257" y="275" on="1"/>
        <pt x="237" y="247" on="0"/>
        <pt x="222" y="211" on="0"/>
        <pt x="222" y="189" on="1"/>
        <pt x="222" y="135" on="0"/>
        <pt x="293" y="42" on="0"/>
        <pt x="353" y="17" on="1"/>
        <pt x="411" y="-7" on="0"/>
        <pt x="488" y="-7" on="1"/>
        <pt x="496" y="-7" on="1"/>
        <pt x="496" y="647" on="1"/>
        <pt x="439" y="680" on="1"/>
        <pt x="358" y="727" on="0"/>
        <pt x="273" y="789" on="0"/>
        <pt x="239" y="826" on="1"/>
        <pt x="150" y="925" on="0"/>
        <pt x="150" y="1052" on="1"/>
        <pt x="150" y="1132" on="0"/>
        <pt x="226" y="1271" on="0"/>
        <pt x="293" y="1313" on="1"/>
        <pt x="380" y="1367" on="0"/>
      </contour>
      <contour>
        <pt x="496" y="1353" on="1"/>
        <pt x="428" y="1349" on="0"/>
        <pt x="383" y="1328" on="1"/>
        <pt x="331" y="1303" on="0"/>
        <pt x="267" y="1191" on="0"/>
        <pt x="267" y="1122" on="1"/>
        <pt x="267" y="1040" on="0"/>
        <pt x="314" y="973" on="1"/>
        <pt x="340" y="936" on="0"/>
        <pt x="405" y="884" on="0"/>
        <pt x="486" y="836" on="1"/>
        <pt x="496" y="830" on="1"/>
      </contour>
      <contour>
        <pt x="541" y="-4" on="1"/>
        <pt x="588" y="1" on="0"/>
        <pt x="646" y="23" on="0"/>
        <pt x="672" y="44" on="1"/>
        <pt x="716" y="80" on="0"/>
        <pt x="768" y="203" on="0"/>
        <pt x="768" y="273" on="1"/>
        <pt x="768" y="474" on="0"/>
        <pt x="541" y="619" on="1"/>
      </contour>
    </TTGlyph>
    <TTGlyph name="dotaccent" xMin="424" yMin="1064" xMax="600" yMax="1240">
      <contour>
        <pt x="512" y="1240" on="1"/>
        <pt x="548" y="1240" on="0"/>
        <pt x="600" y="1188" on="0"/>
        <pt x="600" y="1152" on="1"/>
        <pt x="600" y="1115" on="0"/>
        <pt x="548" y="1064" on="0"/>
        <pt x="512" y="1064" on="1"/>
        <pt x="476" y="1064" on="0"/>
        <pt x="424" y="1115" on="0"/>
        <pt x="424" y="1152" on="1"/>
        <pt x="424" y="1188" on="0"/>
        <pt x="476" y="1240" on="0"/>
      </contour>
    </TTGlyph>
    <TTGlyph name="dotlessi" xMin="27" yMin="0" xMax="468" yMax="867">
      <contour>
        <pt x="38" y="831" on="1"/>
        <pt x="325" y="867" on="1"/>
        <pt x="325" y="289" on="1"/>
        <pt x="326" y="213" on="1"/>
        <pt x="326" y="145" on="0"/>
        <pt x="342" y="82" on="0"/>
        <pt x="365" y="61" on="1"/>
        <pt x="393" y="34" on="0"/>
        <pt x="468" y="20" on="1"/>
        <pt x="468" y="0" on="1"/>
        <pt x="27" y="0" on="1"/>
        <pt x="27" y="20" on="1"/>
        <pt x="87" y="28" on="0"/>
        <pt x="139" y="57" on="0"/>
        <pt x="155" y="92" on="1"/>
        <pt x="166" y="115" on="0"/>
        <pt x="175" y="208" on="0"/>
        <pt x="175" y="296" on="1"/>
        <pt x="175" y="543" on="1"/>
        <pt x="175" y="646" on="0"/>
        <pt x="165" y="729" on="0"/>
        <pt x="148" y="755" on="1"/>
        <pt x="131" y="783" on="0"/>
        <pt x="83" y="808" on="0"/>
        <pt x="38" y="811" on="1"/>
      </contour>
    </TTGlyph>
    <TTGlyph name="e" xMin="61" yMin="-18" xMax="845" yMax="865">
      <contour>
        <pt x="238" y="544" on="1"/>
        <pt x="234" y="495" on="0"/>
        <pt x="234" y="473" on="1"/>
        <pt x="234" y="386" on="0"/>
        <pt x="285" y="220" on="0"/>
        <pt x="329" y="165" on="1"/>
        <pt x="374" y="109" on="0"/>
        <pt x="507" y="45" on="0"/>
        <pt x="580" y="45" on="1"/>
        <pt x="634" y="45" on="0"/>
        <pt x="731" y="81" on="0"/>
        <pt x="763" y="113" on="1"/>
        <pt x="799" y="148" on="0"/>
        <pt x="825" y="225" on="1"/>
        <pt x="845" y="218" on="1"/>
        <pt x="819" y="101" on="0"/>
        <pt x="648" y="-18" on="0"/>
        <pt x="506" y="-18" on="1"/>
        <pt x="383" y="-18" on="0"/>
        <pt x="207" y="60" on="0"/>
        <pt x="146" y="141" on="1"/>
        <pt x="61" y="254" on="0"/>
        <pt x="61" y="419" on="1"/>
        <pt x="61" y="644" on="0"/>
        <pt x="222" y="772" on="1"/>
        <pt x="339" y="865" on="0"/>
        <pt x="489" y="865" on="1"/>
        <pt x="569" y="865" on="0"/>
        <pt x="705" y="808" on="0"/>
        <pt x="752" y="754" on="1"/>
        <pt x="825" y="670" on="0"/>
        <pt x="825" y="544" on="1"/>
      </contour>
      <contour>
        <pt x="676" y="583" on="1"/>
        <pt x="669" y="683" on="0"/>
        <pt x="639" y="737" on="1"/>
        <pt x="612" y="786" on="0"/>
        <pt x="522" y="843" on="0"/>
        <pt x="471" y="843" on="1"/>
        <pt x="385" y="843" on="0"/>
        <pt x="256" y="695" on="0"/>
        <pt x="244" y="583" on="1"/>
      </contour>
    </TTGlyph>
    <TTGlyph name="eacute" xMin="61" yMin="-18" xMax="845" yMax="1273">
      <component glyphName="e" x="0" y="0" flags="0x214"/>
      <component glyphName="acute" x="-10" y="0" flags="0x14"/>
    </TTGlyph>
    <TTGlyph name="ecircumflex" xMin="61" yMin="-18" xMax="845" yMax="1303">
      <component glyphName="e" x="0" y="0" flags="0x214"/>
      <component glyphName="circumflex" x="-51" y="0" flags="0x14"/>
    </TTGlyph>
    <TTGlyph name="edieresis" xMin="61" yMin="-18" xMax="845" yMax="1240">
      <component glyphName="e" x="0" y="0" flags="0x214"/>
      <component glyphName="dieresis" x="-51" y="0" flags="0x14"/>
    </TTGlyph>
    <TTGlyph name="egrave" xMin="61" yMin="-18" xMax="845" yMax="1273">
      <component glyphName="e" x="0" y="0" flags="0x214"/>
      <component glyphName="grave" x="-78" y="0" flags="0x14"/>
    </TTGlyph>
    <TTGlyph name="eight" xMin="94" yMin="-18" xMax="913" yMax="1383">
      <contour>
        <pt x="616" y="753" on="1"/>
        <pt x="693" y="711" on="0"/>
        <pt x="782" y="645" on="0"/>
        <pt x="817" y="606" on="1"/>
        <pt x="913" y="500" on="0"/>
        <pt x="913" y="354" on="1"/>
        <pt x="913" y="197" on="0"/>
        <pt x="808" y="93" on="1"/>
        <pt x="697" y="-18" on="0"/>
        <pt x="518" y="-18" on="1"/>
        <pt x="320" y="-18" on="0"/>
        <pt x="197" y="101" on="1"/>
        <pt x="94" y="201" on="0"/>
        <pt x="94" y="338" on="1"/>
        <pt x="94" y="485" on="0"/>
        <pt x="208" y="582" on="1"/>
        <pt x="257" y="624" on="0"/>
        <pt x="382" y="689" on="1"/>
        <pt x="266" y="746" on="0"/>
        <pt x="205" y="822" on="1"/>
        <pt x="125" y="920" on="0"/>
        <pt x="125" y="1044" on="1"/>
        <pt x="125" y="1178" on="0"/>
        <pt x="215" y="1272" on="1"/>
        <pt x="266" y="1325" on="0"/>
        <pt x="411" y="1383" on="0"/>
        <pt x="494" y="1383" on="1"/>
        <pt x="568" y="1383" on="0"/>
        <pt x="707" y="1336" on="0"/>
        <pt x="757" y="1294" on="1"/>
        <pt x="856" y="1210" on="0"/>
        <pt x="856" y="1079" on="1"/>
        <pt x="856" y="957" on="0"/>
        <pt x="770" y="868" on="1"/>
        <pt x="728" y="824" on="0"/>
      </contour>
      <contour>
        <pt x="571" y="772" on="1"/>
        <pt x="638" y="825" on="0"/>
        <pt x="705" y="972" on="0"/>
        <pt x="705" y="1064" on="1"/>
        <pt x="705" y="1193" on="0"/>
        <pt x="574" y="1359" on="0"/>
        <pt x="472" y="1359" on="1"/>
        <pt x="375" y="1359" on="0"/>
        <pt x="250" y="1219" on="0"/>
        <pt x="250" y="1110" on="1"/>
        <pt x="250" y="967" on="0"/>
        <pt x="372" y="873" on="1"/>
        <pt x="438" y="822" on="0"/>
      </contour>
      <contour>
        <pt x="422" y="670" on="1"/>
        <pt x="327" y="599" on="0"/>
        <pt x="235" y="427" on="0"/>
        <pt x="235" y="318" on="1"/>
        <pt x="235" y="185" on="0"/>
        <pt x="309" y="98" on="1"/>
        <pt x="387" y="7" on="0"/>
        <pt x="517" y="7" on="1"/>
        <pt x="628" y="7" on="0"/>
        <pt x="694" y="78" on="1"/>
        <pt x="730" y="116" on="0"/>
        <pt x="770" y="226" on="0"/>
        <pt x="770" y="286" on="1"/>
        <pt x="770" y="425" on="0"/>
        <pt x="668" y="524" on="1"/>
        <pt x="590" y="600" on="0"/>
      </contour>
    </TTGlyph>
    <TTGlyph name="ellipsis" xMin="129" yMin="-17" xMax="1372" yMax="226">
      <contour>
        <pt x="250" y="226" on="1"/>
        <pt x="300" y="226" on="0"/>
        <pt x="371" y="155" on="0"/>
        <pt x="371" y="104" on="1"/>
        <pt x="371" y="54" on="0"/>
        <pt x="300" y="-17" on="0"/>
        <pt x="250" y="-17" on="1"/>
        <pt x="200" y="-17" on="0"/>
        <pt x="129" y="54" on="0"/>
        <pt x="129" y="104" on="1"/>
        <pt x="129" y="155" on="0"/>
        <pt x="200" y="226" on="0"/>
      </contour>
      <contour>
        <pt x="750" y="226" on="1"/>
        <pt x="801" y="226" on="0"/>
        <pt x="871" y="155" on="0"/>
        <pt x="871" y="104" on="1"/>
        <pt x="871" y="54" on="0"/>
        <pt x="801" y="-17" on="0"/>
        <pt x="750" y="-17" on="1"/>
        <pt x="700" y="-17" on="0"/>
        <pt x="629" y="54" on="0"/>
        <pt x="629" y="104" on="1"/>
        <pt x="629" y="155" on="0"/>
        <pt x="700" y="226" on="0"/>
      </contour>
      <contour>
        <pt x="1251" y="226" on="1"/>
        <pt x="1301" y="226" on="0"/>
        <pt x="1372" y="155" on="0"/>
        <pt x="1372" y="104" on="1"/>
        <pt x="1372" y="54" on="0"/>
        <pt x="1301" y="-17" on="0"/>
        <pt x="1251" y="-17" on="1"/>
        <pt x="1200" y="-17" on="0"/>
        <pt x="1130" y="54" on="0"/>
        <pt x="1130" y="104" on="1"/>
        <pt x="1130" y="155" on="0"/>
        <pt x="1201" y="226" on="0"/>
      </contour>
    </TTGlyph>
    <TTGlyph name="emdash" xMin="0" yMin="359" xMax="1302" yMax="509">
      <contour>
        <pt x="0" y="509" on="1"/>
        <pt x="1302" y="509" on="1"/>
        <pt x="1302" y="359" on="1"/>
        <pt x="0" y="359" on="1"/>
      </contour>
    </TTGlyph>
    <TTGlyph name="endash" xMin="139" yMin="359" xMax="867" yMax="509">
      <contour>
        <pt x="139" y="509" on="1"/>
        <pt x="867" y="509" on="1"/>
        <pt x="867" y="359" on="1"/>
        <pt x="139" y="359" on="1"/>
      </contour>
    </TTGlyph>
    <TTGlyph name="equal" xMin="66" yMin="543" xMax="940" yMax="795">
      <contour>
        <pt x="66" y="795" on="1"/>
        <pt x="940" y="795" on="1"/>
        <pt x="940" y="734" on="1"/>
        <pt x="66" y="734" on="1"/>
      </contour>
      <contour>
        <pt x="66" y="604" on="1"/>
        <pt x="940" y="604" on="1"/>
        <pt x="940" y="543" on="1"/>
        <pt x="66" y="543" on="1"/>
      </contour>
    </TTGlyph>
    <TTGlyph name="eth" xMin="61" yMin="-18" xMax="998" yMax="1394">
      <contour>
        <pt x="615" y="1144" on="1"/>
        <pt x="441" y="1031" on="1"/>
        <pt x="416" y="1069" on="1"/>
        <pt x="593" y="1184" on="1"/>
        <pt x="526" y="1302" on="0"/>
        <pt x="465" y="1378" on="1"/>
        <pt x="484" y="1394" on="1"/>
        <pt x="549" y="1331" on="0"/>
        <pt x="631" y="1233" on="1"/>
        <pt x="644" y="1217" on="1"/>
        <pt x="824" y="1334" on="1"/>
        <pt x="849" y="1296" on="1"/>
        <pt x="673" y="1182" on="1"/>
        <pt x="686" y="1166" on="1"/>
        <pt x="860" y="948" on="0"/>
        <pt x="934" y="752" on="1"/>
        <pt x="998" y="579" on="0"/>
        <pt x="998" y="431" on="1"/>
        <pt x="998" y="260" on="0"/>
        <pt x="884" y="136" on="1"/>
        <pt x="743" y="-18" on="0"/>
        <pt x="530" y="-18" on="1"/>
        <pt x="315" y="-18" on="0"/>
        <pt x="175" y="136" on="1"/>
        <pt x="61" y="261" on="0"/>
        <pt x="61" y="423" on="1"/>
        <pt x="61" y="583" on="0"/>
        <pt x="181" y="711" on="1"/>
        <pt x="326" y="865" on="0"/>
        <pt x="530" y="865" on="1"/>
        <pt x="627" y="865" on="0"/>
        <pt x="728" y="821" on="1"/>
        <pt x="703" y="970" on="0"/>
      </contour>
      <contour>
        <pt x="520" y="845" on="1"/>
        <pt x="405" y="845" on="0"/>
        <pt x="320" y="725" on="1"/>
        <pt x="235" y="605" on="0"/>
        <pt x="235" y="431" on="1"/>
        <pt x="235" y="259" on="0"/>
        <pt x="315" y="137" on="1"/>
        <pt x="359" y="72" on="0"/>
        <pt x="472" y="2" on="0"/>
        <pt x="536" y="2" on="1"/>
        <pt x="593" y="2" on="0"/>
        <pt x="697" y="61" on="0"/>
        <pt x="735" y="115" on="1"/>
        <pt x="775" y="173" on="0"/>
        <pt x="824" y="342" on="0"/>
        <pt x="824" y="424" on="1"/>
        <pt x="824" y="505" on="0"/>
        <pt x="771" y="673" on="0"/>
        <pt x="727" y="731" on="1"/>
        <pt x="642" y="845" on="0"/>
      </contour>
    </TTGlyph>
    <TTGlyph name="exclam" xMin="137" yMin="-17" xMax="389" yMax="1379">
      <contour>
        <pt x="269" y="350" on="1"/>
        <pt x="251" y="350" on="1"/>
        <pt x="157" y="1097" on="1"/>
        <pt x="145" y="1189" on="0"/>
        <pt x="145" y="1239" on="1"/>
        <pt x="145" y="1305" on="0"/>
        <pt x="211" y="1379" on="0"/>
        <pt x="269" y="1379" on="1"/>
        <pt x="324" y="1379" on="0"/>
        <pt x="389" y="1307" on="0"/>
        <pt x="389" y="1244" on="1"/>
        <pt x="389" y="1200" on="0"/>
        <pt x="377" y="1117" on="1"/>
      </contour>
      <contour>
        <pt x="258" y="226" on="1"/>
        <pt x="308" y="226" on="0"/>
        <pt x="379" y="155" on="0"/>
        <pt x="379" y="104" on="1"/>
        <pt x="379" y="54" on="0"/>
        <pt x="308" y="-17" on="0"/>
        <pt x="258" y="-17" on="1"/>
        <pt x="208" y="-17" on="0"/>
        <pt x="137" y="54" on="0"/>
        <pt x="137" y="104" on="1"/>
        <pt x="137" y="155" on="0"/>
        <pt x="208" y="226" on="0"/>
      </contour>
    </TTGlyph>
    <TTGlyph name="exclamdown" xMin="137" yMin="-531" xMax="389" yMax="865">
      <contour>
        <pt x="257" y="498" on="1"/>
        <pt x="275" y="498" on="1"/>
        <pt x="369" y="-249" on="1"/>
        <pt x="381" y="-340" on="0"/>
        <pt x="381" y="-391" on="1"/>
        <pt x="381" y="-456" on="0"/>
        <pt x="315" y="-531" on="0"/>
        <pt x="257" y="-531" on="1"/>
        <pt x="201" y="-531" on="0"/>
        <pt x="137" y="-458" on="0"/>
        <pt x="137" y="-396" on="1"/>
        <pt x="137" y="-352" on="0"/>
        <pt x="149" y="-268" on="1"/>
      </contour>
      <contour>
        <pt x="268" y="865" on="1"/>
        <pt x="318" y="865" on="0"/>
        <pt x="389" y="794" on="0"/>
        <pt x="389" y="744" on="1"/>
        <pt x="389" y="694" on="0"/>
        <pt x="318" y="623" on="0"/>
        <pt x="268" y="623" on="1"/>
        <pt x="218" y="623" on="0"/>
        <pt x="147" y="694" on="0"/>
        <pt x="147" y="744" on="1"/>
        <pt x="147" y="794" on="0"/>
        <pt x="217" y="865" on="0"/>
      </contour>
    </TTGlyph>
    <TTGlyph name="f" xMin="27" yMin="0" xMax="737" yMax="1408">
      <contour>
        <pt x="325" y="812" on="1"/>
        <pt x="325" y="289" on="1"/>
        <pt x="326" y="213" on="1"/>
        <pt x="326" y="145" on="0"/>
        <pt x="342" y="82" on="0"/>
        <pt x="365" y="61" on="1"/>
        <pt x="393" y="34" on="0"/>
        <pt x="468" y="20" on="1"/>
        <pt x="468" y="0" on="1"/>
        <pt x="27" y="0" on="1"/>
        <pt x="27" y="20" on="1"/>
        <pt x="87" y="28" on="0"/>
        <pt x="139" y="57" on="0"/>
        <pt x="155" y="92" on="1"/>
        <pt x="166" y="115" on="0"/>
        <pt x="175" y="208" on="0"/>
        <pt x="175" y="296" on="1"/>
        <pt x="175" y="812" on="1"/>
        <pt x="30" y="812" on="1"/>
        <pt x="30" y="850" on="1"/>
        <pt x="175" y="850" on="1"/>
        <pt x="175" y="1094" on="1"/>
        <pt x="175" y="1182" on="0"/>
        <pt x="220" y="1284" on="0"/>
        <pt x="278" y="1327" on="1"/>
        <pt x="330" y="1365" on="0"/>
        <pt x="481" y="1408" on="0"/>
        <pt x="565" y="1408" on="1"/>
        <pt x="643" y="1408" on="0"/>
        <pt x="737" y="1354" on="0"/>
        <pt x="737" y="1309" on="1"/>
        <pt x="737" y="1279" on="0"/>
        <pt x="698" y="1239" on="0"/>
        <pt x="670" y="1239" on="1"/>
        <pt x="643" y="1239" on="0"/>
        <pt x="603" y="1268" on="0"/>
        <pt x="583" y="1301" on="1"/>
        <pt x="555" y="1347" on="0"/>
        <pt x="519" y="1376" on="0"/>
        <pt x="488" y="1376" on="1"/>
        <pt x="450" y="1376" on="0"/>
        <pt x="382" y="1345" on="0"/>
        <pt x="363" y="1320" on="1"/>
        <pt x="342" y="1292" on="0"/>
        <pt x="326" y="1201" on="0"/>
        <pt x="326" y="1115" on="1"/>
        <pt x="326" y="850" on="1"/>
        <pt x="523" y="850" on="1"/>
        <pt x="523" y="812" on="1"/>
      </contour>
    </TTGlyph>
    <TTGlyph name="fi" xMin="27" yMin="0" xMax="1045" yMax="1408">
      <contour>
        <pt x="175" y="850" on="1"/>
        <pt x="175" y="1029" on="1"/>
        <pt x="175" y="1186" on="0"/>
        <pt x="242" y="1277" on="1"/>
        <pt x="337" y="1408" on="0"/>
        <pt x="546" y="1408" on="1"/>
        <pt x="623" y="1408" on="0"/>
        <pt x="762" y="1370" on="0"/>
        <pt x="806" y="1337" on="1"/>
        <pt x="864" y="1293" on="0"/>
        <pt x="864" y="1242" on="1"/>
        <pt x="864" y="1209" on="0"/>
        <pt x="820" y="1165" on="0"/>
        <pt x="787" y="1165" on="1"/>
        <pt x="755" y="1165" on="0"/>
        <pt x="716" y="1202" on="0"/>
        <pt x="712" y="1236" on="1"/>
        <pt x="709" y="1263" on="1"/>
        <pt x="703" y="1314" on="0"/>
        <pt x="607" y="1376" on="0"/>
        <pt x="533" y="1376" on="1"/>
        <pt x="437" y="1376" on="0"/>
        <pt x="387" y="1333" on="1"/>
        <pt x="363" y="1313" on="0"/>
        <pt x="338" y="1262" on="0"/>
        <pt x="332" y="1223" on="1"/>
        <pt x="325" y="1171" on="0"/>
        <pt x="325" y="1125" on="1"/>
        <pt x="325" y="850" on="1"/>
        <pt x="765" y="850" on="1"/>
        <pt x="903" y="867" on="1"/>
        <pt x="903" y="213" on="1"/>
        <pt x="903" y="145" on="0"/>
        <pt x="919" y="82" on="0"/>
        <pt x="942" y="61" on="1"/>
        <pt x="970" y="34" on="0"/>
        <pt x="1045" y="20" on="1"/>
        <pt x="1045" y="0" on="1"/>
        <pt x="604" y="0" on="1"/>
        <pt x="604" y="20" on="1"/>
        <pt x="664" y="28" on="0"/>
        <pt x="716" y="57" on="0"/>
        <pt x="732" y="92" on="1"/>
        <pt x="743" y="115" on="0"/>
        <pt x="752" y="208" on="0"/>
        <pt x="752" y="296" on="1"/>
        <pt x="752" y="543" on="1"/>
        <pt x="752" y="643" on="0"/>
        <pt x="742" y="727" on="0"/>
        <pt x="726" y="756" on="1"/>
        <pt x="709" y="786" on="0"/>
        <pt x="645" y="812" on="0"/>
        <pt x="588" y="812" on="1"/>
        <pt x="325" y="812" on="1"/>
        <pt x="325" y="289" on="1"/>
        <pt x="326" y="213" on="1"/>
        <pt x="326" y="145" on="0"/>
        <pt x="342" y="82" on="0"/>
        <pt x="365" y="61" on="1"/>
        <pt x="393" y="34" on="0"/>
        <pt x="468" y="20" on="1"/>
        <pt x="468" y="0" on="1"/>
        <pt x="27" y="0" on="1"/>
        <pt x="27" y="20" on="1"/>
        <pt x="87" y="28" on="0"/>
        <pt x="139" y="57" on="0"/>
        <pt x="155" y="92" on="1"/>
        <pt x="166" y="115" on="0"/>
        <pt x="175" y="208" on="0"/>
        <pt x="175" y="296" on="1"/>
        <pt x="175" y="812" on="1"/>
        <pt x="30" y="812" on="1"/>
        <pt x="30" y="850" on="1"/>
      </contour>
    </TTGlyph>
    <TTGlyph name="five" xMin="45" yMin="-18" xMax="907" yMax="1369">
      <contour>
        <pt x="271" y="633" on="1"/>
        <pt x="451" y="1369" on="1"/>
        <pt x="591" y="1334" on="0"/>
        <pt x="711" y="1334" on="1"/>
        <pt x="784" y="1334" on="0"/>
        <pt x="869" y="1350" on="0"/>
        <pt x="907" y="1369" on="1"/>
        <pt x="898" y="1320" on="0"/>
        <pt x="866" y="1258" on="0"/>
        <pt x="837" y="1233" on="1"/>
        <pt x="784" y="1188" on="0"/>
        <pt x="674" y="1188" on="1"/>
        <pt x="591" y="1188" on="0"/>
        <pt x="451" y="1215" on="1"/>
        <pt x="342" y="776" on="1"/>
        <pt x="395" y="817" on="0"/>
        <pt x="480" y="848" on="0"/>
        <pt x="540" y="848" on="1"/>
        <pt x="695" y="848" on="0"/>
        <pt x="798" y="737" on="1"/>
        <pt x="845" y="687" on="0"/>
        <pt x="896" y="555" on="0"/>
        <pt x="896" y="487" on="1"/>
        <pt x="896" y="382" on="0"/>
        <pt x="848" y="276" on="1"/>
        <pt x="783" y="135" on="0"/>
        <pt x="552" y="-18" on="0"/>
        <pt x="402" y="-18" on="1"/>
        <pt x="321" y="-18" on="0"/>
        <pt x="174" y="29" on="0"/>
        <pt x="126" y="69" on="1"/>
        <pt x="88" y="102" on="0"/>
        <pt x="45" y="189" on="0"/>
        <pt x="45" y="236" on="1"/>
        <pt x="45" y="281" on="0"/>
        <pt x="96" y="340" on="0"/>
        <pt x="135" y="340" on="1"/>
        <pt x="167" y="340" on="0"/>
        <pt x="208" y="294" on="0"/>
        <pt x="208" y="258" on="1"/>
        <pt x="208" y="244" on="0"/>
        <pt x="206" y="218" on="1"/>
        <pt x="203" y="196" on="0"/>
        <pt x="203" y="177" on="1"/>
        <pt x="203" y="100" on="0"/>
        <pt x="306" y="7" on="0"/>
        <pt x="390" y="7" on="1"/>
        <pt x="529" y="7" on="0"/>
        <pt x="620" y="132" on="1"/>
        <pt x="667" y="198" on="0"/>
        <pt x="723" y="390" on="0"/>
        <pt x="723" y="490" on="1"/>
        <pt x="723" y="642" on="0"/>
        <pt x="605" y="824" on="0"/>
        <pt x="506" y="824" on="1"/>
        <pt x="438" y="824" on="0"/>
        <pt x="336" y="727" on="0"/>
        <pt x="304" y="633" on="1"/>
      </contour>
    </TTGlyph>
    <TTGlyph name="fl" xMin="27" yMin="0" xMax="1045" yMax="1408">
      <contour>
        <pt x="175" y="850" on="1"/>
        <pt x="175" y="1094" on="1"/>
        <pt x="175" y="1182" on="0"/>
        <pt x="218" y="1284" on="0"/>
        <pt x="272" y="1326" on="1"/>
        <pt x="320" y="1364" on="0"/>
        <pt x="463" y="1408" on="0"/>
        <pt x="539" y="1408" on="1"/>
        <pt x="622" y="1408" on="0"/>
        <pt x="705" y="1380" on="1"/>
        <pt x="903" y="1405" on="1"/>
        <pt x="903" y="213" on="1"/>
        <pt x="903" y="145" on="0"/>
        <pt x="919" y="82" on="0"/>
        <pt x="942" y="61" on="1"/>
        <pt x="970" y="34" on="0"/>
        <pt x="1045" y="20" on="1"/>
        <pt x="1045" y="0" on="1"/>
        <pt x="604" y="0" on="1"/>
        <pt x="604" y="20" on="1"/>
        <pt x="664" y="28" on="0"/>
        <pt x="716" y="57" on="0"/>
        <pt x="732" y="92" on="1"/>
        <pt x="743" y="115" on="0"/>
        <pt x="752" y="208" on="0"/>
        <pt x="752" y="296" on="1"/>
        <pt x="752" y="1117" on="1"/>
        <pt x="752" y="1203" on="0"/>
        <pt x="730" y="1293" on="0"/>
        <pt x="702" y="1321" on="1"/>
        <pt x="678" y="1346" on="0"/>
        <pt x="589" y="1376" on="0"/>
        <pt x="539" y="1376" on="1"/>
        <pt x="489" y="1376" on="0"/>
        <pt x="400" y="1346" on="0"/>
        <pt x="376" y="1321" on="1"/>
        <pt x="348" y="1293" on="0"/>
        <pt x="325" y="1201" on="0"/>
        <pt x="325" y="1115" on="1"/>
        <pt x="325" y="850" on="1"/>
        <pt x="523" y="850" on="1"/>
        <pt x="523" y="812" on="1"/>
        <pt x="325" y="812" on="1"/>
        <pt x="325" y="289" on="1"/>
        <pt x="326" y="213" on="1"/>
        <pt x="326" y="145" on="0"/>
        <pt x="342" y="82" on="0"/>
        <pt x="365" y="61" on="1"/>
        <pt x="393" y="34" on="0"/>
        <pt x="468" y="20" on="1"/>
        <pt x="468" y="0" on="1"/>
        <pt x="27" y="0" on="1"/>
        <pt x="27" y="20" on="1"/>
        <pt x="87" y="28" on="0"/>
        <pt x="139" y="57" on="0"/>
        <pt x="155" y="92" on="1"/>
        <pt x="166" y="115" on="0"/>
        <pt x="175" y="208" on="0"/>
        <pt x="175" y="296" on="1"/>
        <pt x="175" y="812" on="1"/>
        <pt x="30" y="812" on="1"/>
        <pt x="30" y="850" on="1"/>
      </contour>
    </TTGlyph>
    <TTGlyph name="florin" xMin="-137" yMin="-287" xMax="1146" yMax="1516">
      <contour>
        <pt x="493" y="920" on="1"/>
        <pt x="334" y="920" on="1"/>
        <pt x="341" y="958" on="1"/>
        <pt x="500" y="958" on="1"/>
        <pt x="526" y="1079" on="1"/>
        <pt x="550" y="1196" on="0"/>
        <pt x="609" y="1340" on="0"/>
        <pt x="650" y="1386" on="1"/>
        <pt x="706" y="1449" on="0"/>
        <pt x="879" y="1516" on="0"/>
        <pt x="985" y="1516" on="1"/>
        <pt x="1062" y="1516" on="0"/>
        <pt x="1146" y="1467" on="0"/>
        <pt x="1146" y="1423" on="1"/>
        <pt x="1146" y="1392" on="0"/>
        <pt x="1099" y="1347" on="0"/>
        <pt x="1066" y="1347" on="1"/>
        <pt x="1037" y="1347" on="0"/>
        <pt x="1001" y="1375" on="0"/>
        <pt x="987" y="1409" on="1"/>
        <pt x="967" y="1457" on="0"/>
        <pt x="933" y="1485" on="0"/>
        <pt x="893" y="1485" on="1"/>
        <pt x="827" y="1485" on="0"/>
        <pt x="774" y="1426" on="1"/>
        <pt x="723" y="1368" on="0"/>
        <pt x="697" y="1223" on="1"/>
        <pt x="650" y="958" on="1"/>
        <pt x="848" y="958" on="1"/>
        <pt x="841" y="920" on="1"/>
        <pt x="643" y="920" on="1"/>
        <pt x="538" y="327" on="1"/>
        <pt x="509" y="168" on="0"/>
        <pt x="458" y="8" on="1"/>
        <pt x="437" y="-59" on="0"/>
        <pt x="401" y="-132" on="0"/>
        <pt x="374" y="-163" on="1"/>
        <pt x="324" y="-221" on="0"/>
        <pt x="167" y="-287" on="0"/>
        <pt x="79" y="-287" on="1"/>
        <pt x="-50" y="-287" on="0"/>
        <pt x="-112" y="-224" on="1"/>
        <pt x="-137" y="-200" on="0"/>
        <pt x="-137" y="-171" on="1"/>
        <pt x="-137" y="-141" on="0"/>
        <pt x="-88" y="-95" on="0"/>
        <pt x="-55" y="-95" on="1"/>
        <pt x="-29" y="-95" on="0"/>
        <pt x="5" y="-125" on="0"/>
        <pt x="19" y="-159" on="1"/>
        <pt x="38" y="-207" on="0"/>
        <pt x="45" y="-219" on="1"/>
        <pt x="73" y="-267" on="0"/>
        <pt x="126" y="-267" on="1"/>
        <pt x="159" y="-267" on="0"/>
        <pt x="230" y="-235" on="0"/>
        <pt x="254" y="-209" on="1"/>
        <pt x="305" y="-157" on="0"/>
        <pt x="331" y="-6" on="1"/>
      </contour>
    </TTGlyph>
    <TTGlyph name="four" xMin="71" yMin="0" xMax="936" yMax="1369">
      <contour>
        <pt x="572" y="325" on="1"/>
        <pt x="71" y="325" on="1"/>
        <pt x="71" y="347" on="1"/>
        <pt x="692" y="1369" on="1"/>
        <pt x="736" y="1369" on="1"/>
        <pt x="736" y="361" on="1"/>
        <pt x="803" y="361" on="0"/>
        <pt x="859" y="377" on="0"/>
        <pt x="881" y="404" on="1"/>
        <pt x="897" y="424" on="0"/>
        <pt x="912" y="472" on="0"/>
        <pt x="915" y="513" on="1"/>
        <pt x="916" y="536" on="1"/>
        <pt x="936" y="536" on="1"/>
        <pt x="936" y="155" on="1"/>
        <pt x="916" y="155" on="1"/>
        <pt x="912" y="216" on="0"/>
        <pt x="896" y="273" on="0"/>
        <pt x="878" y="291" on="1"/>
        <pt x="858" y="311" on="0"/>
        <pt x="808" y="325" on="0"/>
        <pt x="758" y="325" on="1"/>
        <pt x="736" y="325" on="1"/>
        <pt x="736" y="223" on="1"/>
        <pt x="736" y="168" on="0"/>
        <pt x="756" y="96" on="0"/>
        <pt x="777" y="72" on="1"/>
        <pt x="798" y="47" on="0"/>
        <pt x="850" y="27" on="0"/>
        <pt x="908" y="20" on="1"/>
        <pt x="908" y="0" on="1"/>
        <pt x="405" y="0" on="1"/>
        <pt x="405" y="20" on="1"/>
        <pt x="504" y="29" on="0"/>
        <pt x="535" y="61" on="1"/>
        <pt x="555" y="83" on="0"/>
        <pt x="572" y="159" on="0"/>
        <pt x="572" y="229" on="1"/>
      </contour>
      <contour>
        <pt x="572" y="361" on="1"/>
        <pt x="572" y="1096" on="1"/>
        <pt x="120" y="361" on="1"/>
      </contour>
    </TTGlyph>
    <TTGlyph name="fraction" xMin="-309" yMin="0" xMax="446" yMax="1365">
      <contour>
        <pt x="386" y="1365" on="1"/>
        <pt x="446" y="1365" on="1"/>
        <pt x="-249" y="0" on="1"/>
        <pt x="-309" y="0" on="1"/>
      </contour>
    </TTGlyph>
    <TTGlyph name="g" xMin="27" yMin="-366" xMax="870" yMax="865">
      <contour>
        <pt x="277" y="-85" on="1"/>
        <pt x="259" y="-90" on="1"/>
        <pt x="242" y="-62" on="0"/>
        <pt x="208" y="-40" on="0"/>
        <pt x="183" y="-40" on="1"/>
        <pt x="141" y="-40" on="0"/>
        <pt x="88" y="-104" on="0"/>
        <pt x="88" y="-155" on="1"/>
        <pt x="88" y="-236" on="0"/>
        <pt x="250" y="-340" on="0"/>
        <pt x="376" y="-340" on="1"/>
        <pt x="510" y="-340" on="0"/>
        <pt x="675" y="-225" on="0"/>
        <pt x="675" y="-133" on="1"/>
        <pt x="675" y="-59" on="0"/>
        <pt x="565" y="20" on="0"/>
        <pt x="463" y="20" on="1"/>
        <pt x="304" y="20" on="1"/>
        <pt x="206" y="20" on="0"/>
        <pt x="146" y="66" on="1"/>
        <pt x="84" y="114" on="0"/>
        <pt x="84" y="181" on="1"/>
        <pt x="84" y="252" on="0"/>
        <pt x="150" y="293" on="1"/>
        <pt x="184" y="313" on="0"/>
        <pt x="274" y="336" on="1"/>
        <pt x="187" y="376" on="0"/>
        <pt x="91" y="507" on="0"/>
        <pt x="91" y="586" on="1"/>
        <pt x="91" y="687" on="0"/>
        <pt x="166" y="766" on="1"/>
        <pt x="210" y="813" on="0"/>
        <pt x="330" y="865" on="0"/>
        <pt x="393" y="865" on="1"/>
        <pt x="489" y="865" on="0"/>
        <pt x="589" y="797" on="1"/>
        <pt x="636" y="834" on="0"/>
        <pt x="711" y="865" on="0"/>
        <pt x="755" y="865" on="1"/>
        <pt x="804" y="865" on="0"/>
        <pt x="834" y="844" on="1"/>
        <pt x="870" y="818" on="0"/>
        <pt x="870" y="780" on="1"/>
        <pt x="870" y="757" on="0"/>
        <pt x="842" y="726" on="0"/>
        <pt x="821" y="726" on="1"/>
        <pt x="789" y="726" on="0"/>
        <pt x="763" y="760" on="1"/>
        <pt x="740" y="790" on="1"/>
        <pt x="721" y="814" on="0"/>
        <pt x="686" y="814" on="1"/>
        <pt x="649" y="814" on="0"/>
        <pt x="608" y="777" on="1"/>
        <pt x="689" y="678" on="0"/>
        <pt x="689" y="573" on="1"/>
        <pt x="689" y="442" on="0"/>
        <pt x="573" y="366" on="1"/>
        <pt x="515" y="328" on="0"/>
        <pt x="448" y="315" on="1"/>
        <pt x="428" y="312" on="0"/>
        <pt x="321" y="305" on="1"/>
        <pt x="174" y="296" on="0"/>
        <pt x="174" y="223" on="1"/>
        <pt x="174" y="159" on="0"/>
        <pt x="299" y="159" on="1"/>
        <pt x="464" y="159" on="1"/>
        <pt x="551" y="159" on="0"/>
        <pt x="671" y="128" on="0"/>
        <pt x="716" y="95" on="1"/>
        <pt x="804" y="30" on="0"/>
        <pt x="804" y="-88" on="1"/>
        <pt x="804" y="-218" on="0"/>
        <pt x="702" y="-291" on="1"/>
        <pt x="597" y="-366" on="0"/>
        <pt x="394" y="-366" on="1"/>
        <pt x="176" y="-366" on="0"/>
        <pt x="85" y="-278" on="1"/>
        <pt x="27" y="-221" on="0"/>
        <pt x="27" y="-136" on="1"/>
        <pt x="27" y="-69" on="0"/>
        <pt x="113" y="24" on="0"/>
        <pt x="175" y="24" on="1"/>
        <pt x="220" y="24" on="0"/>
        <pt x="277" y="-30" on="0"/>
        <pt x="277" y="-74" on="1"/>
      </contour>
      <contour>
        <pt x="233" y="579" on="1"/>
        <pt x="233" y="471" on="0"/>
        <pt x="324" y="335" on="0"/>
        <pt x="395" y="335" on="1"/>
        <pt x="467" y="335" on="0"/>
        <pt x="547" y="470" on="0"/>
        <pt x="547" y="590" on="1"/>
        <pt x="547" y="714" on="0"/>
        <pt x="495" y="788" on="1"/>
        <pt x="457" y="843" on="0"/>
        <pt x="397" y="843" on="1"/>
        <pt x="325" y="843" on="0"/>
        <pt x="281" y="771" on="1"/>
        <pt x="259" y="735" on="0"/>
        <pt x="233" y="631" on="0"/>
      </contour>
    </TTGlyph>
</ttFont>
